<svg width="300" height="22" viewBox="0 0 300 22" fill="none" xmlns="http://www.w3.org/2000/svg">
<rect y="21" width="299.984" height="1" fill="#323232" fill-opacity="0.13"/>
<path d="M6.99219 8.40625V10.1406C6.99219 11.0729 6.91927 11.8594 6.77344 12.5C6.63281 13.1406 6.42969 13.6562 6.16406 14.0469C5.89844 14.4375 5.57812 14.7214 5.20312 14.8984C4.83333 15.0703 4.41667 15.1562 3.95312 15.1562C3.58854 15.1562 3.2474 15.1016 2.92969 14.9922C2.61719 14.8828 2.33594 14.7083 2.08594 14.4688C1.83594 14.224 1.6224 13.9062 1.44531 13.5156C1.26823 13.125 1.13281 12.651 1.03906 12.0938C0.945312 11.5365 0.898438 10.8854 0.898438 10.1406V8.40625C0.898438 7.47396 0.971354 6.69271 1.11719 6.0625C1.26302 5.43229 1.46875 4.92708 1.73438 4.54688C2.00521 4.16146 2.32552 3.88542 2.69531 3.71875C3.07031 3.55208 3.48698 3.46875 3.94531 3.46875C4.3151 3.46875 4.65625 3.52344 4.96875 3.63281C5.28646 3.73698 5.56771 3.90625 5.8125 4.14062C6.0625 4.36979 6.27604 4.67708 6.45312 5.0625C6.63021 5.44271 6.76302 5.90885 6.85156 6.46094C6.94531 7.01302 6.99219 7.66146 6.99219 8.40625ZM5.61719 10.375V8.16406C5.61719 7.65365 5.59375 7.20573 5.54688 6.82031C5.5 6.42969 5.43229 6.09635 5.34375 5.82031C5.25521 5.54427 5.14062 5.32031 5 5.14844C4.86458 4.97656 4.70833 4.85156 4.53125 4.77344C4.35417 4.6901 4.15885 4.64844 3.94531 4.64844C3.67969 4.64844 3.44271 4.71354 3.23438 4.84375C3.03125 4.96875 2.85677 5.16927 2.71094 5.44531C2.57031 5.72135 2.46354 6.08333 2.39062 6.53125C2.31771 6.97917 2.28125 7.52344 2.28125 8.16406V10.375C2.28125 10.8854 2.30469 11.3359 2.35156 11.7266C2.40365 12.1172 2.47396 12.4557 2.5625 12.7422C2.65625 13.0234 2.77083 13.2552 2.90625 13.4375C3.04167 13.6198 3.19792 13.7552 3.375 13.8438C3.55208 13.9271 3.74479 13.9688 3.95312 13.9688C4.22917 13.9688 4.46875 13.901 4.67188 13.7656C4.88021 13.6302 5.05469 13.4193 5.19531 13.1328C5.33594 12.8411 5.4401 12.4688 5.50781 12.0156C5.58073 11.5573 5.61719 11.0104 5.61719 10.375ZM14.8984 8.40625V10.1406C14.8984 11.0729 14.8255 11.8594 14.6797 12.5C14.5391 13.1406 14.3359 13.6562 14.0703 14.0469C13.8047 14.4375 13.4844 14.7214 13.1094 14.8984C12.7396 15.0703 12.3229 15.1562 11.8594 15.1562C11.4948 15.1562 11.1536 15.1016 10.8359 14.9922C10.5234 14.8828 10.2422 14.7083 9.99219 14.4688C9.74219 14.224 9.52865 13.9062 9.35156 13.5156C9.17448 13.125 9.03906 12.651 8.94531 12.0938C8.85156 11.5365 8.80469 10.8854 8.80469 10.1406V8.40625C8.80469 7.47396 8.8776 6.69271 9.02344 6.0625C9.16927 5.43229 9.375 4.92708 9.64062 4.54688C9.91146 4.16146 10.2318 3.88542 10.6016 3.71875C10.9766 3.55208 11.3932 3.46875 11.8516 3.46875C12.2214 3.46875 12.5625 3.52344 12.875 3.63281C13.1927 3.73698 13.474 3.90625 13.7188 4.14062C13.9688 4.36979 14.1823 4.67708 14.3594 5.0625C14.5365 5.44271 14.6693 5.90885 14.7578 6.46094C14.8516 7.01302 14.8984 7.66146 14.8984 8.40625ZM13.5234 10.375V8.16406C13.5234 7.65365 13.5 7.20573 13.4531 6.82031C13.4062 6.42969 13.3385 6.09635 13.25 5.82031C13.1615 5.54427 13.0469 5.32031 12.9062 5.14844C12.7708 4.97656 12.6146 4.85156 12.4375 4.77344C12.2604 4.6901 12.0651 4.64844 11.8516 4.64844C11.5859 4.64844 11.349 4.71354 11.1406 4.84375C10.9375 4.96875 10.763 5.16927 10.6172 5.44531C10.4766 5.72135 10.3698 6.08333 10.2969 6.53125C10.224 6.97917 10.1875 7.52344 10.1875 8.16406V10.375C10.1875 10.8854 10.2109 11.3359 10.2578 11.7266C10.3099 12.1172 10.3802 12.4557 10.4688 12.7422C10.5625 13.0234 10.6771 13.2552 10.8125 13.4375C10.9479 13.6198 11.1042 13.7552 11.2812 13.8438C11.4583 13.9271 11.651 13.9688 11.8594 13.9688C12.1354 13.9688 12.375 13.901 12.5781 13.7656C12.7865 13.6302 12.9609 13.4193 13.1016 13.1328C13.2422 12.8411 13.3464 12.4688 13.4141 12.0156C13.487 11.5573 13.5234 11.0104 13.5234 10.375ZM20.8438 3.5625V15H19.4609V5.36719L17.0703 6.42969V5.125L20.6328 3.5625H20.8438Z" fill="#323232" fill-opacity="0.09"/>
</svg>
