<svg width="301" height="22" viewBox="0 0 301 22" fill="none" xmlns="http://www.w3.org/2000/svg">
<path d="M7.99219 8.40625V10.1406C7.99219 11.0729 7.91927 11.8594 7.77344 12.5C7.63281 13.1406 7.42969 13.6562 7.16406 14.0469C6.89844 14.4375 6.57812 14.7214 6.20312 14.8984C5.83333 15.0703 5.41667 15.1562 4.95312 15.1562C4.58854 15.1562 4.2474 15.1016 3.92969 14.9922C3.61719 14.8828 3.33594 14.7083 3.08594 14.4688C2.83594 14.224 2.6224 13.9062 2.44531 13.5156C2.26823 13.125 2.13281 12.651 2.03906 12.0938C1.94531 11.5365 1.89844 10.8854 1.89844 10.1406V8.40625C1.89844 7.47396 1.97135 6.69271 2.11719 6.0625C2.26302 5.43229 2.46875 4.92708 2.73438 4.54688C3.00521 4.16146 3.32552 3.88542 3.69531 3.71875C4.07031 3.55208 4.48698 3.46875 4.94531 3.46875C5.3151 3.46875 5.65625 3.52344 5.96875 3.63281C6.28646 3.73698 6.56771 3.90625 6.8125 4.14062C7.0625 4.36979 7.27604 4.67708 7.45312 5.0625C7.63021 5.44271 7.76302 5.90885 7.85156 6.46094C7.94531 7.01302 7.99219 7.66146 7.99219 8.40625ZM6.61719 10.375V8.16406C6.61719 7.65365 6.59375 7.20573 6.54688 6.82031C6.5 6.42969 6.43229 6.09635 6.34375 5.82031C6.25521 5.54427 6.14062 5.32031 6 5.14844C5.86458 4.97656 5.70833 4.85156 5.53125 4.77344C5.35417 4.6901 5.15885 4.64844 4.94531 4.64844C4.67969 4.64844 4.44271 4.71354 4.23438 4.84375C4.03125 4.96875 3.85677 5.16927 3.71094 5.44531C3.57031 5.72135 3.46354 6.08333 3.39062 6.53125C3.31771 6.97917 3.28125 7.52344 3.28125 8.16406V10.375C3.28125 10.8854 3.30469 11.3359 3.35156 11.7266C3.40365 12.1172 3.47396 12.4557 3.5625 12.7422C3.65625 13.0234 3.77083 13.2552 3.90625 13.4375C4.04167 13.6198 4.19792 13.7552 4.375 13.8438C4.55208 13.9271 4.74479 13.9688 4.95312 13.9688C5.22917 13.9688 5.46875 13.901 5.67188 13.7656C5.88021 13.6302 6.05469 13.4193 6.19531 13.1328C6.33594 12.8411 6.4401 12.4688 6.50781 12.0156C6.58073 11.5573 6.61719 11.0104 6.61719 10.375ZM15.8984 8.40625V10.1406C15.8984 11.0729 15.8255 11.8594 15.6797 12.5C15.5391 13.1406 15.3359 13.6562 15.0703 14.0469C14.8047 14.4375 14.4844 14.7214 14.1094 14.8984C13.7396 15.0703 13.3229 15.1562 12.8594 15.1562C12.4948 15.1562 12.1536 15.1016 11.8359 14.9922C11.5234 14.8828 11.2422 14.7083 10.9922 14.4688C10.7422 14.224 10.5286 13.9062 10.3516 13.5156C10.1745 13.125 10.0391 12.651 9.94531 12.0938C9.85156 11.5365 9.80469 10.8854 9.80469 10.1406V8.40625C9.80469 7.47396 9.8776 6.69271 10.0234 6.0625C10.1693 5.43229 10.375 4.92708 10.6406 4.54688C10.9115 4.16146 11.2318 3.88542 11.6016 3.71875C11.9766 3.55208 12.3932 3.46875 12.8516 3.46875C13.2214 3.46875 13.5625 3.52344 13.875 3.63281C14.1927 3.73698 14.474 3.90625 14.7188 4.14062C14.9688 4.36979 15.1823 4.67708 15.3594 5.0625C15.5365 5.44271 15.6693 5.90885 15.7578 6.46094C15.8516 7.01302 15.8984 7.66146 15.8984 8.40625ZM14.5234 10.375V8.16406C14.5234 7.65365 14.5 7.20573 14.4531 6.82031C14.4062 6.42969 14.3385 6.09635 14.25 5.82031C14.1615 5.54427 14.0469 5.32031 13.9062 5.14844C13.7708 4.97656 13.6146 4.85156 13.4375 4.77344C13.2604 4.6901 13.0651 4.64844 12.8516 4.64844C12.5859 4.64844 12.349 4.71354 12.1406 4.84375C11.9375 4.96875 11.763 5.16927 11.6172 5.44531C11.4766 5.72135 11.3698 6.08333 11.2969 6.53125C11.224 6.97917 11.1875 7.52344 11.1875 8.16406V10.375C11.1875 10.8854 11.2109 11.3359 11.2578 11.7266C11.3099 12.1172 11.3802 12.4557 11.4688 12.7422C11.5625 13.0234 11.6771 13.2552 11.8125 13.4375C11.9479 13.6198 12.1042 13.7552 12.2812 13.8438C12.4583 13.9271 12.651 13.9688 12.8594 13.9688C13.1354 13.9688 13.375 13.901 13.5781 13.7656C13.7865 13.6302 13.9609 13.4193 14.1016 13.1328C14.2422 12.8411 14.3464 12.4688 14.4141 12.0156C14.487 11.5573 14.5234 11.0104 14.5234 10.375ZM24.0859 13.8125V15H17.7266V13.9609L20.8594 9.8125C21.2448 9.30208 21.5391 8.86979 21.7422 8.51562C21.9453 8.15625 22.0859 7.83594 22.1641 7.55469C22.2422 7.26823 22.2812 6.97656 22.2812 6.67969C22.2812 6.30469 22.2214 5.96615 22.1016 5.66406C21.9818 5.35677 21.8073 5.11198 21.5781 4.92969C21.349 4.7474 21.0729 4.65625 20.75 4.65625C20.3281 4.65625 19.9818 4.75521 19.7109 4.95312C19.4453 5.14583 19.25 5.41667 19.125 5.76562C19 6.11458 18.9375 6.51562 18.9375 6.96875H17.5547C17.5547 6.32812 17.6719 5.74219 17.9062 5.21094C18.1458 4.67969 18.5026 4.25781 18.9766 3.94531C19.4505 3.6276 20.0417 3.46875 20.75 3.46875C21.3594 3.46875 21.8802 3.59635 22.3125 3.85156C22.75 4.10156 23.0833 4.45573 23.3125 4.91406C23.5469 5.36719 23.6641 5.89844 23.6641 6.50781C23.6641 6.84115 23.6172 7.17969 23.5234 7.52344C23.4349 7.86198 23.3099 8.20052 23.1484 8.53906C22.9922 8.8776 22.8073 9.21094 22.5938 9.53906C22.3802 9.86719 22.151 10.1901 21.9062 10.5078L19.3828 13.8125H24.0859Z" fill="#323232" fill-opacity="0.09"/>
<rect x="0.984375" y="21" width="299.984" height="1" fill="#323232" fill-opacity="0.13"/>
</svg>
