<svg width="301" height="22" viewBox="0 0 301 22" fill="none" xmlns="http://www.w3.org/2000/svg">
<rect x="0.96875" y="21" width="299.984" height="1" fill="#323232" fill-opacity="0.13"/>
<path d="M7.99219 8.40625V10.1406C7.99219 11.0729 7.91927 11.8594 7.77344 12.5C7.63281 13.1406 7.42969 13.6562 7.16406 14.0469C6.89844 14.4375 6.57812 14.7214 6.20312 14.8984C5.83333 15.0703 5.41667 15.1562 4.95312 15.1562C4.58854 15.1562 4.2474 15.1016 3.92969 14.9922C3.61719 14.8828 3.33594 14.7083 3.08594 14.4688C2.83594 14.224 2.6224 13.9062 2.44531 13.5156C2.26823 13.125 2.13281 12.651 2.03906 12.0938C1.94531 11.5365 1.89844 10.8854 1.89844 10.1406V8.40625C1.89844 7.47396 1.97135 6.69271 2.11719 6.0625C2.26302 5.43229 2.46875 4.92708 2.73438 4.54688C3.00521 4.16146 3.32552 3.88542 3.69531 3.71875C4.07031 3.55208 4.48698 3.46875 4.94531 3.46875C5.3151 3.46875 5.65625 3.52344 5.96875 3.63281C6.28646 3.73698 6.56771 3.90625 6.8125 4.14062C7.0625 4.36979 7.27604 4.67708 7.45312 5.0625C7.63021 5.44271 7.76302 5.90885 7.85156 6.46094C7.94531 7.01302 7.99219 7.66146 7.99219 8.40625ZM6.61719 10.375V8.16406C6.61719 7.65365 6.59375 7.20573 6.54688 6.82031C6.5 6.42969 6.43229 6.09635 6.34375 5.82031C6.25521 5.54427 6.14062 5.32031 6 5.14844C5.86458 4.97656 5.70833 4.85156 5.53125 4.77344C5.35417 4.6901 5.15885 4.64844 4.94531 4.64844C4.67969 4.64844 4.44271 4.71354 4.23438 4.84375C4.03125 4.96875 3.85677 5.16927 3.71094 5.44531C3.57031 5.72135 3.46354 6.08333 3.39062 6.53125C3.31771 6.97917 3.28125 7.52344 3.28125 8.16406V10.375C3.28125 10.8854 3.30469 11.3359 3.35156 11.7266C3.40365 12.1172 3.47396 12.4557 3.5625 12.7422C3.65625 13.0234 3.77083 13.2552 3.90625 13.4375C4.04167 13.6198 4.19792 13.7552 4.375 13.8438C4.55208 13.9271 4.74479 13.9688 4.95312 13.9688C5.22917 13.9688 5.46875 13.901 5.67188 13.7656C5.88021 13.6302 6.05469 13.4193 6.19531 13.1328C6.33594 12.8411 6.4401 12.4688 6.50781 12.0156C6.58073 11.5573 6.61719 11.0104 6.61719 10.375ZM15.8984 8.40625V10.1406C15.8984 11.0729 15.8255 11.8594 15.6797 12.5C15.5391 13.1406 15.3359 13.6562 15.0703 14.0469C14.8047 14.4375 14.4844 14.7214 14.1094 14.8984C13.7396 15.0703 13.3229 15.1562 12.8594 15.1562C12.4948 15.1562 12.1536 15.1016 11.8359 14.9922C11.5234 14.8828 11.2422 14.7083 10.9922 14.4688C10.7422 14.224 10.5286 13.9062 10.3516 13.5156C10.1745 13.125 10.0391 12.651 9.94531 12.0938C9.85156 11.5365 9.80469 10.8854 9.80469 10.1406V8.40625C9.80469 7.47396 9.8776 6.69271 10.0234 6.0625C10.1693 5.43229 10.375 4.92708 10.6406 4.54688C10.9115 4.16146 11.2318 3.88542 11.6016 3.71875C11.9766 3.55208 12.3932 3.46875 12.8516 3.46875C13.2214 3.46875 13.5625 3.52344 13.875 3.63281C14.1927 3.73698 14.474 3.90625 14.7188 4.14062C14.9688 4.36979 15.1823 4.67708 15.3594 5.0625C15.5365 5.44271 15.6693 5.90885 15.7578 6.46094C15.8516 7.01302 15.8984 7.66146 15.8984 8.40625ZM14.5234 10.375V8.16406C14.5234 7.65365 14.5 7.20573 14.4531 6.82031C14.4062 6.42969 14.3385 6.09635 14.25 5.82031C14.1615 5.54427 14.0469 5.32031 13.9062 5.14844C13.7708 4.97656 13.6146 4.85156 13.4375 4.77344C13.2604 4.6901 13.0651 4.64844 12.8516 4.64844C12.5859 4.64844 12.349 4.71354 12.1406 4.84375C11.9375 4.96875 11.763 5.16927 11.6172 5.44531C11.4766 5.72135 11.3698 6.08333 11.2969 6.53125C11.224 6.97917 11.1875 7.52344 11.1875 8.16406V10.375C11.1875 10.8854 11.2109 11.3359 11.2578 11.7266C11.3099 12.1172 11.3802 12.4557 11.4688 12.7422C11.5625 13.0234 11.6771 13.2552 11.8125 13.4375C11.9479 13.6198 12.1042 13.7552 12.2812 13.8438C12.4583 13.9271 12.651 13.9688 12.8594 13.9688C13.1354 13.9688 13.375 13.901 13.5781 13.7656C13.7865 13.6302 13.9609 13.4193 14.1016 13.1328C14.2422 12.8411 14.3464 12.4688 14.4141 12.0156C14.487 11.5573 14.5234 11.0104 14.5234 10.375ZM19.5 8.60156H20.3906C20.7865 8.60156 21.1146 8.51823 21.375 8.35156C21.6354 8.17969 21.8281 7.94792 21.9531 7.65625C22.0833 7.35938 22.1484 7.02604 22.1484 6.65625C22.1484 6.21875 22.0911 5.85156 21.9766 5.55469C21.862 5.25781 21.6901 5.03385 21.4609 4.88281C21.237 4.73177 20.9531 4.65625 20.6094 4.65625C20.2865 4.65625 20.0052 4.73698 19.7656 4.89844C19.526 5.05469 19.3411 5.27865 19.2109 5.57031C19.0807 5.86198 19.0156 6.20573 19.0156 6.60156H17.6406C17.6406 6.02344 17.7604 5.4974 18 5.02344C18.2448 4.54948 18.5885 4.17188 19.0312 3.89062C19.4792 3.60938 20.0052 3.46875 20.6094 3.46875C21.1875 3.46875 21.6953 3.59115 22.1328 3.83594C22.5703 4.07552 22.9115 4.4349 23.1562 4.91406C23.4062 5.38802 23.5312 5.97917 23.5312 6.6875C23.5312 6.97396 23.4766 7.28125 23.3672 7.60938C23.263 7.93229 23.0938 8.23438 22.8594 8.51562C22.6302 8.79688 22.3281 9.02865 21.9531 9.21094C21.5833 9.38802 21.1302 9.47656 20.5938 9.47656H19.5V8.60156ZM19.5 9.78906V8.92188H20.5938C21.2292 8.92188 21.7474 9.00781 22.1484 9.17969C22.5495 9.35156 22.8594 9.58073 23.0781 9.86719C23.2969 10.1536 23.4479 10.4688 23.5312 10.8125C23.6198 11.151 23.6641 11.4896 23.6641 11.8281C23.6641 12.3594 23.5859 12.8307 23.4297 13.2422C23.2786 13.6536 23.0625 14.0026 22.7812 14.2891C22.5052 14.5755 22.1823 14.7917 21.8125 14.9375C21.4427 15.0833 21.0391 15.1562 20.6016 15.1562C20.1745 15.1562 19.7786 15.0859 19.4141 14.9453C19.0495 14.8047 18.7292 14.6016 18.4531 14.3359C18.1771 14.0651 17.9609 13.7344 17.8047 13.3438C17.6536 12.9479 17.5781 12.4974 17.5781 11.9922H18.9609C18.9609 12.388 19.026 12.7344 19.1562 13.0312C19.2865 13.3281 19.474 13.5599 19.7188 13.7266C19.9635 13.888 20.2578 13.9688 20.6016 13.9688C20.9453 13.9688 21.2422 13.8932 21.4922 13.7422C21.7422 13.5859 21.9349 13.3516 22.0703 13.0391C22.2109 12.7266 22.2812 12.3333 22.2812 11.8594C22.2812 11.3854 22.2031 10.9974 22.0469 10.6953C21.8958 10.388 21.6797 10.1615 21.3984 10.0156C21.1172 9.86458 20.7812 9.78906 20.3906 9.78906H19.5Z" fill="#323232" fill-opacity="0.09"/>
</svg>
