<svg width="940" height="304" viewBox="0 0 940 304" fill="none" xmlns="http://www.w3.org/2000/svg">
<path d="M440 175H500V177H440V175Z" fill="white"/>
<path d="M218.823 40.2422L227.697 1.54688H232.687L230.059 16.5908L220.423 57H215.434L218.823 40.2422ZM210.063 1.54688L216.995 39.4805L219.052 57H214.139L203.094 1.54688H210.063ZM243.998 39.4424L250.777 1.54688H257.747L246.74 57H241.827L243.998 39.4424ZM233.486 1.54688L242.094 40.2422L245.407 57H240.418L231.201 16.5908L228.573 1.54688H233.486ZM295.604 51.0205V57H271.534V51.0205H295.604ZM272.791 1.54688V57H265.783V1.54688H272.791ZM292.367 25.3887V31.3682H271.534V25.3887H292.367ZM295.224 1.54688V7.56445H271.534V1.54688H295.224ZM329.463 1.54688V57H322.455V1.54688H329.463ZM357.342 1.54688L338.261 27.4072L327.102 40.8516L325.845 33.0059L334.033 22.2656L348.963 1.54688H357.342ZM350.372 57L334.033 29.959L338.185 24.1318L358.713 57H350.372ZM394.856 51.0205V57H370.786V51.0205H394.856ZM372.043 1.54688V57H365.035V1.54688H372.043ZM391.619 25.3887V31.3682H370.786V25.3887H391.619ZM394.476 1.54688V7.56445H370.786V1.54688H394.476ZM433.628 51.0205V57H409.558V51.0205H433.628ZM410.814 1.54688V57H403.807V1.54688H410.814ZM430.391 25.3887V31.3682H409.558V25.3887H430.391ZM433.247 1.54688V7.56445H409.558V1.54688H433.247ZM460.25 35.2529H448.139V29.2734H460.25C462.535 29.2734 464.376 28.8164 465.772 27.9023C467.194 26.9883 468.223 25.7188 468.857 24.0938C469.518 22.4688 469.848 20.6152 469.848 18.5332C469.848 16.6289 469.518 14.8389 468.857 13.1631C468.223 11.4873 467.194 10.1416 465.772 9.12598C464.376 8.08496 462.535 7.56445 460.25 7.56445H449.586V57H442.578V1.54688H460.25C463.83 1.54688 466.852 2.27051 469.314 3.71777C471.777 5.16504 473.644 7.1709 474.913 9.73535C476.208 12.2744 476.855 15.1816 476.855 18.457C476.855 22.0117 476.208 25.0459 474.913 27.5596C473.644 30.0732 471.777 31.9902 469.314 33.3105C466.852 34.6055 463.83 35.2529 460.25 35.2529ZM520.045 1.54688V57H513.113V1.54688H520.045ZM534.632 1.54688V7.56445H498.564V1.54688H534.632ZM572.908 25.3887V31.3682H548.876V25.3887H572.908ZM549.828 1.54688V57H542.82V1.54688H549.828ZM579.116 1.54688V57H572.108V1.54688H579.116ZM598.502 1.54688V57H591.494V1.54688H598.502ZM646.947 1.54688V57H639.901L617.697 14.2295V57H610.689V1.54688H617.697L640.016 44.4316V1.54688H646.947ZM693.793 29.3877V50.0684C693.184 50.8809 692.257 51.8965 691.013 53.1152C689.794 54.334 688.08 55.4131 685.871 56.3525C683.662 57.292 680.768 57.7617 677.188 57.7617C674.318 57.7617 671.69 57.2793 669.304 56.3145C666.942 55.3496 664.898 53.9023 663.172 51.9727C661.471 50.0176 660.15 47.5928 659.211 44.6982C658.271 41.7783 657.802 38.3633 657.802 34.4531V24.0557C657.802 20.1709 658.195 16.7686 658.982 13.8486C659.77 10.9287 660.938 8.50391 662.486 6.57422C664.061 4.64453 666.003 3.19727 668.313 2.23242C670.649 1.26758 673.366 0.785156 676.464 0.785156C680.044 0.785156 683.091 1.45801 685.604 2.80371C688.118 4.14941 690.061 6.0918 691.432 8.63086C692.828 11.1699 693.615 14.2168 693.793 17.7715H686.785C686.607 15.4863 686.125 13.5313 685.338 11.9062C684.551 10.2559 683.434 8.99902 681.986 8.13574C680.539 7.24707 678.698 6.80273 676.464 6.80273C674.331 6.80273 672.528 7.1582 671.056 7.86914C669.583 8.58008 668.377 9.64648 667.438 11.0684C666.523 12.4902 665.851 14.2803 665.419 16.4385C665.013 18.5967 664.81 21.1104 664.81 23.9795V34.4531C664.81 37.3984 665.102 39.9629 665.686 42.1465C666.27 44.3301 667.095 46.1328 668.161 47.5547C669.253 48.9766 670.561 50.043 672.084 50.7539C673.607 51.4395 675.321 51.7822 677.226 51.7822C679.384 51.7822 681.085 51.5537 682.329 51.0967C683.573 50.6396 684.525 50.1191 685.186 49.5352C685.871 48.9512 686.417 48.4814 686.823 48.126V35.3291H676.654V29.3877H693.793ZM729.403 42.9844C729.403 41.6895 729.251 40.5469 728.946 39.5566C728.642 38.541 728.108 37.627 727.347 36.8145C726.585 36.002 725.519 35.2275 724.147 34.4912C722.776 33.7549 721.037 33.0059 718.93 32.2441C716.645 31.4316 714.575 30.5303 712.722 29.54C710.868 28.5244 709.281 27.3691 707.961 26.0742C706.666 24.7793 705.663 23.2939 704.952 21.6182C704.241 19.9424 703.886 18.0254 703.886 15.8672C703.886 13.709 704.254 11.7158 704.99 9.8877C705.752 8.05957 706.818 6.47266 708.189 5.12695C709.586 3.75586 711.262 2.68945 713.217 1.92773C715.172 1.16602 717.355 0.785156 719.768 0.785156C723.373 0.785156 726.407 1.58496 728.87 3.18457C731.358 4.75879 733.237 6.82813 734.507 9.39258C735.776 11.9316 736.411 14.6484 736.411 17.543H729.403C729.403 15.4609 729.061 13.6201 728.375 12.0205C727.715 10.3955 726.674 9.12598 725.252 8.21191C723.855 7.27246 722.027 6.80273 719.768 6.80273C717.736 6.80273 716.061 7.19629 714.74 7.9834C713.445 8.77051 712.48 9.83691 711.846 11.1826C711.236 12.5283 710.932 14.0645 710.932 15.791C710.932 16.959 711.135 18.0254 711.541 18.9902C711.947 19.9297 712.569 20.8057 713.407 21.6182C714.271 22.4307 715.337 23.1797 716.606 23.8652C717.901 24.5508 719.425 25.2109 721.177 25.8457C723.894 26.7344 726.217 27.7246 728.146 28.8164C730.076 29.9082 731.65 31.1396 732.869 32.5107C734.088 33.8564 734.977 35.3926 735.535 37.1191C736.119 38.8203 736.411 40.75 736.411 42.9082C736.411 45.168 736.03 47.2119 735.269 49.04C734.532 50.8682 733.453 52.4297 732.031 53.7246C730.609 55.0195 728.896 56.0225 726.89 56.7334C724.884 57.4189 722.624 57.7617 720.11 57.7617C717.927 57.7617 715.781 57.4062 713.674 56.6953C711.592 55.9844 709.7 54.918 707.999 53.4961C706.298 52.0742 704.939 50.3223 703.924 48.2402C702.908 46.1328 702.4 43.6953 702.4 40.9277H709.408C709.408 42.832 709.688 44.4697 710.246 45.8408C710.805 47.1865 711.579 48.3037 712.569 49.1924C713.56 50.0811 714.689 50.7412 715.959 51.1729C717.254 51.5791 718.638 51.7822 720.11 51.7822C722.142 51.7822 723.843 51.4268 725.214 50.7158C726.61 50.0049 727.651 48.9893 728.337 47.6689C729.048 46.3486 729.403 44.7871 729.403 42.9844Z" fill="white"/>
<path d="M274.022 210.162C273.278 210.162 272.624 210.06 272.06 209.856C271.508 209.64 270.944 209.358 270.368 209.01C270.44 208.554 270.482 208.098 270.494 207.642C270.518 207.186 270.53 206.79 270.53 206.454C270.662 206.418 270.818 206.394 270.998 206.382C271.178 206.358 271.346 206.346 271.502 206.346C271.538 206.958 271.646 207.486 271.826 207.93C272.018 208.362 272.312 208.698 272.708 208.938C273.116 209.178 273.638 209.298 274.274 209.298C275.102 209.298 275.69 209.118 276.038 208.758C276.398 208.386 276.578 207.942 276.578 207.426C276.578 206.898 276.434 206.466 276.146 206.13C275.858 205.782 275.486 205.488 275.03 205.248C274.574 205.008 274.088 204.774 273.572 204.546C273.068 204.318 272.588 204.054 272.132 203.754C271.676 203.454 271.304 203.082 271.016 202.638C270.728 202.182 270.584 201.606 270.584 200.91C270.584 200.238 270.728 199.662 271.016 199.182C271.316 198.69 271.736 198.318 272.276 198.066C272.816 197.802 273.458 197.67 274.202 197.67C274.622 197.67 275.018 197.706 275.39 197.778C275.774 197.85 276.122 197.946 276.434 198.066C276.746 198.186 277.004 198.318 277.208 198.462C277.208 198.81 277.214 199.212 277.226 199.668C277.238 200.124 277.268 200.514 277.316 200.838C277.184 200.886 277.022 200.928 276.83 200.964C276.65 200.988 276.476 201 276.308 201C276.188 200.304 276.032 199.776 275.84 199.416C275.648 199.056 275.414 198.81 275.138 198.678C274.862 198.534 274.544 198.462 274.184 198.462C273.548 198.462 273.05 198.618 272.69 198.93C272.33 199.242 272.15 199.68 272.15 200.244C272.15 200.772 272.294 201.21 272.582 201.558C272.87 201.906 273.242 202.206 273.698 202.458C274.154 202.71 274.634 202.956 275.138 203.196C275.642 203.424 276.122 203.688 276.578 203.988C277.034 204.276 277.406 204.636 277.694 205.068C277.982 205.5 278.126 206.046 278.126 206.706C278.126 207.306 277.982 207.87 277.694 208.398C277.406 208.926 276.962 209.352 276.362 209.676C275.762 210 274.982 210.162 274.022 210.162ZM283.863 210.162C283.047 210.162 282.333 209.988 281.721 209.64C281.109 209.28 280.635 208.782 280.299 208.146C279.963 207.498 279.795 206.742 279.795 205.878C279.795 205.062 279.969 204.33 280.317 203.682C280.665 203.034 281.145 202.524 281.757 202.152C282.369 201.78 283.071 201.594 283.863 201.594C284.715 201.594 285.441 201.774 286.041 202.134C286.653 202.494 287.121 202.998 287.445 203.646C287.769 204.282 287.931 205.026 287.931 205.878C287.931 206.694 287.757 207.426 287.409 208.074C287.073 208.722 286.599 209.232 285.987 209.604C285.387 209.976 284.679 210.162 283.863 210.162ZM284.007 209.298C284.727 209.298 285.261 209.004 285.609 208.416C285.957 207.816 286.131 207.042 286.131 206.094C286.131 205.35 286.017 204.708 285.789 204.168C285.573 203.616 285.279 203.196 284.907 202.908C284.535 202.608 284.127 202.458 283.683 202.458C282.987 202.458 282.465 202.74 282.117 203.304C281.781 203.868 281.613 204.6 281.613 205.5C281.613 206.304 281.709 206.994 281.901 207.57C282.105 208.134 282.387 208.566 282.747 208.866C283.107 209.154 283.527 209.298 284.007 209.298ZM299.675 208.596C299.351 209.112 298.949 209.502 298.469 209.766C297.989 210.03 297.407 210.162 296.723 210.162C296.111 210.162 295.517 210.006 294.941 209.694C294.377 209.37 293.909 208.896 293.537 208.272C293.165 207.636 292.979 206.85 292.979 205.914C292.979 205.194 293.123 204.504 293.411 203.844C293.699 203.184 294.119 202.644 294.671 202.224C295.235 201.804 295.919 201.594 296.723 201.594C297.275 201.594 297.779 201.66 298.235 201.792C298.703 201.924 299.105 202.128 299.441 202.404C299.393 202.752 299.357 203.094 299.333 203.43C299.321 203.766 299.315 204.108 299.315 204.456C299.219 204.504 299.087 204.54 298.919 204.564C298.763 204.588 298.619 204.6 298.487 204.6C298.415 203.904 298.211 203.37 297.875 202.998C297.539 202.626 297.107 202.44 296.579 202.44C295.991 202.44 295.523 202.716 295.175 203.268C294.827 203.82 294.653 204.612 294.653 205.644C294.653 206.244 294.749 206.814 294.941 207.354C295.145 207.882 295.439 208.314 295.823 208.65C296.207 208.974 296.675 209.136 297.227 209.136C297.611 209.136 297.971 209.046 298.307 208.866C298.655 208.686 298.961 208.428 299.225 208.092C299.321 208.14 299.411 208.212 299.495 208.308C299.579 208.392 299.639 208.488 299.675 208.596ZM300.501 210.054C300.501 209.934 300.507 209.808 300.519 209.676C300.531 209.532 300.555 209.4 300.591 209.28C301.071 209.28 301.395 209.172 301.563 208.956C301.743 208.728 301.833 208.314 301.833 207.714V199.65C301.833 199.362 301.803 199.128 301.743 198.948C301.695 198.756 301.575 198.612 301.383 198.516C301.191 198.42 300.891 198.372 300.483 198.372C300.483 198.24 300.495 198.12 300.519 198.012C300.543 197.904 300.585 197.802 300.645 197.706C300.825 197.706 301.077 197.676 301.401 197.616C301.737 197.556 302.061 197.478 302.373 197.382C302.685 197.286 302.913 197.19 303.057 197.094C303.165 197.13 303.255 197.202 303.327 197.31C303.411 197.418 303.453 197.586 303.453 197.814V207.714C303.453 208.314 303.531 208.728 303.687 208.956C303.855 209.172 304.131 209.28 304.515 209.28C304.551 209.4 304.575 209.538 304.587 209.694C304.599 209.85 304.605 209.97 304.605 210.054C304.401 210.042 304.185 210.03 303.957 210.018C303.729 210.018 303.495 210.012 303.255 210C303.027 210 302.799 210 302.571 210C302.343 210 302.103 210 301.851 210C301.611 210.012 301.377 210.018 301.149 210.018C300.921 210.03 300.705 210.042 300.501 210.054ZM309.767 210.162C308.915 210.162 308.207 209.97 307.643 209.586C307.079 209.202 306.653 208.686 306.365 208.038C306.089 207.378 305.951 206.658 305.951 205.878C305.951 205.11 306.101 204.402 306.401 203.754C306.701 203.106 307.127 202.584 307.679 202.188C308.243 201.792 308.909 201.594 309.677 201.594C310.457 201.594 311.081 201.762 311.549 202.098C312.029 202.434 312.383 202.884 312.611 203.448C312.851 204.012 312.995 204.636 313.043 205.32C312.995 205.56 312.905 205.764 312.773 205.932C312.569 205.932 312.263 205.932 311.855 205.932C311.447 205.932 310.985 205.938 310.469 205.95C309.953 205.95 309.425 205.962 308.885 205.986C308.345 205.998 307.835 206.016 307.355 206.04V205.122H311.171C311.171 204.33 311.027 203.688 310.739 203.196C310.451 202.704 310.043 202.458 309.515 202.458C309.227 202.458 308.945 202.548 308.669 202.728C308.393 202.896 308.165 203.202 307.985 203.646C307.805 204.078 307.715 204.696 307.715 205.5C307.715 206.088 307.787 206.664 307.931 207.228C308.087 207.78 308.351 208.242 308.723 208.614C309.107 208.974 309.647 209.154 310.343 209.154C310.739 209.154 311.129 209.064 311.513 208.884C311.897 208.704 312.239 208.446 312.539 208.11C312.635 208.158 312.725 208.242 312.809 208.362C312.905 208.47 312.959 208.572 312.971 208.668C312.563 209.208 312.089 209.592 311.549 209.82C311.021 210.048 310.427 210.162 309.767 210.162ZM319.931 210.162C319.799 210.102 319.691 209.994 319.607 209.838C319.535 209.682 319.499 209.436 319.499 209.1C319.499 208.992 319.505 208.866 319.517 208.722C319.529 208.566 319.553 208.428 319.589 208.308H319.625C319.589 208.5 319.505 208.71 319.373 208.938C319.253 209.154 319.091 209.346 318.887 209.514C318.683 209.694 318.425 209.844 318.113 209.964C317.801 210.072 317.423 210.126 316.979 210.126C316.223 210.126 315.647 209.958 315.251 209.622C314.855 209.274 314.657 208.806 314.657 208.218C314.657 207.75 314.765 207.354 314.981 207.03C315.209 206.694 315.497 206.418 315.845 206.202C316.205 205.974 316.589 205.794 316.997 205.662C317.417 205.53 317.825 205.428 318.221 205.356C318.617 205.284 318.965 205.224 319.265 205.176C319.265 204.684 319.253 204.3 319.229 204.024C319.217 203.748 319.181 203.532 319.121 203.376C319.073 203.208 318.995 203.064 318.887 202.944C318.743 202.764 318.575 202.632 318.383 202.548C318.203 202.452 317.999 202.404 317.771 202.404C317.375 202.404 317.063 202.53 316.835 202.782C316.607 203.022 316.445 203.304 316.349 203.628C316.253 203.952 316.199 204.24 316.187 204.492C316.055 204.492 315.887 204.486 315.683 204.474C315.491 204.45 315.347 204.414 315.251 204.366C315.275 204.066 315.281 203.73 315.269 203.358C315.257 202.986 315.221 202.668 315.161 202.404C315.653 202.152 316.169 201.954 316.709 201.81C317.261 201.666 317.765 201.594 318.221 201.594C318.665 201.594 319.043 201.66 319.355 201.792C319.679 201.912 319.937 202.074 320.129 202.278C320.441 202.578 320.645 202.974 320.741 203.466C320.837 203.946 320.885 204.588 320.885 205.392V207.372C320.885 207.708 320.909 207.978 320.957 208.182C321.017 208.374 321.125 208.518 321.281 208.614C321.437 208.698 321.677 208.752 322.001 208.776C322.001 208.896 321.995 209.034 321.983 209.19C321.971 209.334 321.941 209.472 321.893 209.604C321.593 209.616 321.257 209.676 320.885 209.784C320.525 209.88 320.207 210.006 319.931 210.162ZM317.483 209.136C317.747 209.136 318.017 209.052 318.293 208.884C318.569 208.704 318.797 208.428 318.977 208.056C319.169 207.684 319.265 207.198 319.265 206.598V205.914C318.965 205.95 318.647 206.004 318.311 206.076C317.975 206.136 317.663 206.232 317.375 206.364C317.087 206.496 316.853 206.682 316.673 206.922C316.493 207.15 316.403 207.462 316.403 207.858C316.403 208.302 316.511 208.626 316.727 208.83C316.943 209.034 317.195 209.136 317.483 209.136ZM324.72 206.148V204.15C324.72 203.862 324.69 203.628 324.63 203.448C324.57 203.268 324.444 203.13 324.252 203.034C324.06 202.938 323.766 202.884 323.37 202.872C323.37 202.74 323.382 202.62 323.406 202.512C323.43 202.404 323.472 202.302 323.532 202.206C323.904 202.182 324.33 202.11 324.81 201.99C325.29 201.87 325.668 201.738 325.944 201.594C326.052 201.63 326.142 201.708 326.214 201.828C326.298 201.936 326.34 202.122 326.34 202.386L324.72 206.148ZM331.668 207.714C331.668 208.338 331.752 208.758 331.92 208.974C332.1 209.178 332.37 209.28 332.73 209.28C332.766 209.388 332.79 209.502 332.802 209.622C332.814 209.742 332.82 209.886 332.82 210.054C332.556 210.03 332.256 210.012 331.92 210C331.584 210 331.23 210 330.858 210C330.618 210 330.366 210 330.102 210C329.838 210.012 329.586 210.018 329.346 210.018C329.118 210.03 328.908 210.042 328.716 210.054C328.716 209.886 328.722 209.742 328.734 209.622C328.746 209.49 328.77 209.376 328.806 209.28C329.238 209.28 329.55 209.172 329.742 208.956C329.946 208.728 330.048 208.314 330.048 207.714V204.978C330.048 204.126 329.892 203.55 329.58 203.25C329.268 202.938 328.866 202.782 328.374 202.782C328.062 202.782 327.75 202.884 327.438 203.088C327.126 203.28 326.862 203.598 326.646 204.042C326.442 204.474 326.34 205.056 326.34 205.788V207.714C326.34 208.314 326.43 208.728 326.61 208.956C326.79 209.172 327.114 209.28 327.582 209.28C327.618 209.388 327.642 209.502 327.654 209.622C327.666 209.742 327.672 209.886 327.672 210.054C327.504 210.042 327.3 210.03 327.06 210.018C326.82 210.018 326.568 210.012 326.304 210C326.04 210 325.782 210 325.53 210C325.29 210 325.038 210 324.774 210C324.51 210.012 324.258 210.018 324.018 210.018C323.778 210.03 323.568 210.042 323.388 210.054C323.388 209.886 323.394 209.742 323.406 209.622C323.418 209.49 323.442 209.376 323.478 209.28C323.946 209.28 324.27 209.172 324.45 208.956C324.63 208.728 324.72 208.314 324.72 207.714V204.15L326.34 202.386C326.34 202.53 326.334 202.692 326.322 202.872C326.31 203.052 326.274 203.244 326.214 203.448C326.25 203.388 326.286 203.322 326.322 203.25C326.358 203.166 326.412 203.076 326.484 202.98C326.688 202.704 327.012 202.422 327.456 202.134C327.912 201.834 328.458 201.684 329.094 201.684C329.55 201.684 329.97 201.78 330.354 201.972C330.75 202.152 331.068 202.458 331.308 202.89C331.548 203.31 331.668 203.886 331.668 204.618V207.714ZM343.343 204.636C343.655 203.868 343.727 203.346 343.559 203.07C343.403 202.782 343.061 202.59 342.533 202.494C342.485 202.362 342.449 202.236 342.425 202.116C342.413 201.984 342.407 201.852 342.407 201.72C342.683 201.732 342.965 201.744 343.253 201.756C343.541 201.756 343.853 201.756 344.189 201.756C344.525 201.756 344.843 201.756 345.143 201.756C345.443 201.744 345.725 201.732 345.989 201.72C345.989 201.84 345.983 201.966 345.971 202.098C345.971 202.23 345.941 202.362 345.881 202.494C345.665 202.542 345.479 202.626 345.323 202.746C345.179 202.866 345.041 203.052 344.909 203.304C344.777 203.556 344.615 203.91 344.423 204.366L341.777 210.666C341.441 211.482 341.135 212.142 340.859 212.646C340.595 213.15 340.343 213.534 340.103 213.798C339.875 214.062 339.641 214.242 339.401 214.338C339.173 214.434 338.921 214.482 338.645 214.482C338.285 214.482 337.997 214.434 337.781 214.338C337.577 214.242 337.415 214.152 337.295 214.068C337.247 213.888 337.229 213.66 337.241 213.384C337.253 213.12 337.277 212.91 337.313 212.754C337.517 212.79 337.715 212.814 337.907 212.826C338.099 212.85 338.285 212.862 338.465 212.862C338.813 212.862 339.143 212.778 339.455 212.61C339.779 212.442 340.055 212.172 340.283 211.8C340.451 211.548 340.703 211.05 341.039 210.306C341.375 209.574 341.729 208.728 342.101 207.768L343.343 204.636ZM341.237 210.378C340.949 209.742 340.643 209.076 340.319 208.38C340.007 207.672 339.707 206.994 339.419 206.346C339.131 205.698 338.879 205.152 338.663 204.708C338.387 204.108 338.153 203.658 337.961 203.358C337.781 203.058 337.607 202.848 337.439 202.728C337.283 202.608 337.103 202.53 336.899 202.494C336.863 202.386 336.833 202.266 336.809 202.134C336.797 202.002 336.791 201.864 336.791 201.72C337.139 201.732 337.487 201.744 337.835 201.756C338.183 201.756 338.513 201.756 338.825 201.756C339.137 201.756 339.521 201.756 339.977 201.756C340.433 201.744 340.847 201.732 341.219 201.72C341.219 201.876 341.207 202.02 341.183 202.152C341.171 202.272 341.141 202.386 341.093 202.494C340.445 202.602 340.073 202.794 339.977 203.07C339.881 203.334 339.995 203.802 340.319 204.474C340.487 204.822 340.679 205.242 340.895 205.734C341.111 206.214 341.321 206.7 341.525 207.192C341.729 207.672 341.903 208.098 342.047 208.47L341.237 210.378ZM350.871 210.162C350.055 210.162 349.341 209.988 348.729 209.64C348.117 209.28 347.643 208.782 347.307 208.146C346.971 207.498 346.803 206.742 346.803 205.878C346.803 205.062 346.977 204.33 347.325 203.682C347.673 203.034 348.153 202.524 348.765 202.152C349.377 201.78 350.079 201.594 350.871 201.594C351.723 201.594 352.449 201.774 353.049 202.134C353.661 202.494 354.129 202.998 354.453 203.646C354.777 204.282 354.939 205.026 354.939 205.878C354.939 206.694 354.765 207.426 354.417 208.074C354.081 208.722 353.607 209.232 352.995 209.604C352.395 209.976 351.687 210.162 350.871 210.162ZM351.015 209.298C351.735 209.298 352.269 209.004 352.617 208.416C352.965 207.816 353.139 207.042 353.139 206.094C353.139 205.35 353.025 204.708 352.797 204.168C352.581 203.616 352.287 203.196 351.915 202.908C351.543 202.608 351.135 202.458 350.691 202.458C349.995 202.458 349.473 202.74 349.125 203.304C348.789 203.868 348.621 204.6 348.621 205.5C348.621 206.304 348.717 206.994 348.909 207.57C349.113 208.134 349.395 208.566 349.755 208.866C350.115 209.154 350.535 209.298 351.015 209.298ZM359.713 210.072C358.909 210.072 358.279 209.838 357.823 209.37C357.367 208.902 357.139 208.068 357.139 206.868V204.15C357.139 203.73 357.079 203.418 356.959 203.214C356.839 202.998 356.503 202.884 355.951 202.872C355.951 202.74 355.957 202.626 355.969 202.53C355.993 202.422 356.029 202.314 356.077 202.206C356.449 202.182 356.851 202.11 357.283 201.99C357.727 201.87 358.087 201.738 358.363 201.594C358.471 201.63 358.561 201.708 358.633 201.828C358.717 201.936 358.759 202.122 358.759 202.386V206.472C358.759 207.276 358.867 207.894 359.083 208.326C359.311 208.758 359.701 208.974 360.253 208.974C360.853 208.974 361.351 208.722 361.747 208.218C362.155 207.714 362.359 206.94 362.359 205.896V204.06C362.359 203.64 362.281 203.328 362.125 203.124C361.981 202.908 361.609 202.794 361.009 202.782C361.009 202.65 361.015 202.536 361.027 202.44C361.039 202.332 361.075 202.224 361.135 202.116C361.603 202.092 362.059 202.032 362.503 201.936C362.959 201.828 363.319 201.714 363.583 201.594C363.691 201.63 363.781 201.708 363.853 201.828C363.937 201.936 363.979 202.122 363.979 202.386V207.606L362.575 208.272C362.515 208.428 362.431 208.584 362.323 208.74C362.215 208.884 362.095 209.022 361.963 209.154C361.651 209.466 361.321 209.7 360.973 209.856C360.625 210 360.205 210.072 359.713 210.072ZM362.935 210.162C362.815 210.102 362.707 210.018 362.611 209.91C362.527 209.79 362.485 209.526 362.485 209.118C362.485 208.986 362.491 208.8 362.503 208.56C362.527 208.32 362.581 207.984 362.665 207.552H363.979C363.979 207.828 364.003 208.062 364.051 208.254C364.099 208.434 364.201 208.566 364.357 208.65C364.525 208.734 364.771 208.776 365.095 208.776C365.095 208.896 365.089 209.034 365.077 209.19C365.065 209.334 365.035 209.472 364.987 209.604C364.687 209.616 364.339 209.676 363.943 209.784C363.547 209.88 363.211 210.006 362.935 210.162ZM367.415 197.13C367.619 197.214 367.769 197.364 367.865 197.58C367.973 197.796 368.027 198.078 368.027 198.426C368.027 199.086 367.913 199.662 367.685 200.154C367.457 200.646 367.127 201.138 366.695 201.63C366.575 201.63 366.443 201.612 366.299 201.576C366.155 201.528 366.047 201.468 365.975 201.396C366.287 200.976 366.479 200.658 366.551 200.442C366.635 200.214 366.677 199.95 366.677 199.65C366.677 199.398 366.605 199.194 366.461 199.038C366.329 198.882 366.119 198.786 365.831 198.75C365.831 198.63 365.843 198.462 365.867 198.246C365.891 198.018 365.927 197.826 365.975 197.67C366.251 197.61 366.509 197.538 366.749 197.454C367.001 197.358 367.223 197.25 367.415 197.13ZM369.758 210.054C369.758 209.934 369.764 209.808 369.776 209.676C369.788 209.532 369.812 209.4 369.848 209.28C370.328 209.28 370.652 209.172 370.82 208.956C371 208.728 371.09 208.314 371.09 207.714V199.65C371.09 199.362 371.06 199.128 371 198.948C370.952 198.756 370.832 198.612 370.64 198.516C370.448 198.42 370.148 198.372 369.74 198.372C369.74 198.24 369.752 198.12 369.776 198.012C369.8 197.904 369.842 197.802 369.902 197.706C370.082 197.706 370.334 197.676 370.658 197.616C370.994 197.556 371.318 197.478 371.63 197.382C371.942 197.286 372.17 197.19 372.314 197.094C372.422 197.13 372.512 197.202 372.584 197.31C372.668 197.418 372.71 197.586 372.71 197.814V207.714C372.71 208.314 372.788 208.728 372.944 208.956C373.112 209.172 373.388 209.28 373.772 209.28C373.808 209.4 373.832 209.538 373.844 209.694C373.856 209.85 373.862 209.97 373.862 210.054C373.658 210.042 373.442 210.03 373.214 210.018C372.986 210.018 372.752 210.012 372.512 210C372.284 210 372.056 210 371.828 210C371.6 210 371.36 210 371.108 210C370.868 210.012 370.634 210.018 370.406 210.018C370.178 210.03 369.962 210.042 369.758 210.054ZM375.137 210.054C375.137 209.934 375.143 209.808 375.155 209.676C375.167 209.532 375.191 209.4 375.227 209.28C375.707 209.28 376.031 209.172 376.199 208.956C376.379 208.728 376.469 208.314 376.469 207.714V199.65C376.469 199.362 376.439 199.128 376.379 198.948C376.331 198.756 376.211 198.612 376.019 198.516C375.827 198.42 375.527 198.372 375.119 198.372C375.119 198.24 375.131 198.12 375.155 198.012C375.179 197.904 375.221 197.802 375.281 197.706C375.461 197.706 375.713 197.676 376.037 197.616C376.373 197.556 376.697 197.478 377.009 197.382C377.321 197.286 377.549 197.19 377.693 197.094C377.801 197.13 377.891 197.202 377.963 197.31C378.047 197.418 378.089 197.586 378.089 197.814V207.714C378.089 208.314 378.167 208.728 378.323 208.956C378.491 209.172 378.767 209.28 379.151 209.28C379.187 209.4 379.211 209.538 379.223 209.694C379.235 209.85 379.241 209.97 379.241 210.054C379.037 210.042 378.821 210.03 378.593 210.018C378.365 210.018 378.131 210.012 377.891 210C377.663 210 377.435 210 377.207 210C376.979 210 376.739 210 376.487 210C376.247 210.012 376.013 210.018 375.785 210.018C375.557 210.03 375.341 210.042 375.137 210.054ZM387.342 214.482C386.61 214.482 386.01 214.386 385.542 214.194C385.086 214.014 384.75 213.744 384.534 213.384C384.318 213.024 384.21 212.58 384.21 212.052C384.21 211.596 384.33 211.2 384.57 210.864C384.822 210.528 385.17 210.264 385.614 210.072L386.514 210.144C386.226 210.36 386.028 210.588 385.92 210.828C385.812 211.068 385.758 211.35 385.758 211.674C385.758 212.286 385.908 212.748 386.208 213.06C386.52 213.372 387.042 213.528 387.774 213.528C388.566 213.528 389.184 213.33 389.628 212.934C390.084 212.538 390.312 212.082 390.312 211.566C390.312 211.254 390.234 211.008 390.078 210.828C389.934 210.648 389.646 210.516 389.214 210.432C388.794 210.348 388.17 210.306 387.342 210.306C386.802 210.306 386.358 210.276 386.01 210.216C385.674 210.168 385.404 210.084 385.2 209.964C385.008 209.832 384.87 209.67 384.786 209.478C384.714 209.286 384.678 209.052 384.678 208.776C384.678 208.38 384.792 207.996 385.02 207.624C385.26 207.24 385.566 206.898 385.938 206.598L386.604 207.066C386.364 207.27 386.19 207.462 386.082 207.642C385.986 207.822 385.938 207.978 385.938 208.11C385.938 208.326 385.992 208.488 386.1 208.596C386.22 208.704 386.466 208.776 386.838 208.812C387.21 208.848 387.78 208.866 388.548 208.866C389.352 208.866 389.988 208.932 390.456 209.064C390.936 209.196 391.278 209.406 391.482 209.694C391.698 209.982 391.806 210.372 391.806 210.864C391.806 211.272 391.692 211.686 391.464 212.106C391.248 212.538 390.942 212.928 390.546 213.276C390.15 213.636 389.676 213.924 389.124 214.14C388.584 214.368 387.99 214.482 387.342 214.482ZM387.774 207.498C387.21 207.498 386.676 207.39 386.172 207.174C385.668 206.958 385.26 206.634 384.948 206.202C384.648 205.77 384.498 205.23 384.498 204.582C384.498 204.03 384.618 203.532 384.858 203.088C385.098 202.632 385.458 202.272 385.938 202.008C386.43 201.732 387.03 201.594 387.738 201.594C388.338 201.594 388.842 201.696 389.25 201.9C389.67 202.092 390.012 202.344 390.276 202.656C390.54 202.956 390.732 203.274 390.852 203.61C390.972 203.934 391.032 204.222 391.032 204.474C391.032 205.026 390.906 205.536 390.654 206.004C390.414 206.46 390.048 206.826 389.556 207.102C389.076 207.366 388.482 207.498 387.774 207.498ZM387.99 206.67C388.386 206.67 388.71 206.508 388.962 206.184C389.214 205.848 389.34 205.368 389.34 204.744C389.34 204.108 389.184 203.562 388.872 203.106C388.56 202.638 388.122 202.404 387.558 202.404C387.078 202.404 386.724 202.608 386.496 203.016C386.268 203.412 386.154 203.856 386.154 204.348C386.154 205.092 386.316 205.668 386.64 206.076C386.964 206.472 387.414 206.67 387.99 206.67ZM391.95 202.872C391.758 202.824 391.524 202.776 391.248 202.728C390.984 202.68 390.72 202.638 390.456 202.602C390.204 202.566 389.988 202.542 389.808 202.53L388.548 201.756H391.824C391.872 201.912 391.902 202.092 391.914 202.296C391.938 202.488 391.95 202.68 391.95 202.872ZM397.453 210.162C396.637 210.162 395.923 209.988 395.311 209.64C394.699 209.28 394.225 208.782 393.889 208.146C393.553 207.498 393.385 206.742 393.385 205.878C393.385 205.062 393.559 204.33 393.907 203.682C394.255 203.034 394.735 202.524 395.347 202.152C395.959 201.78 396.661 201.594 397.453 201.594C398.305 201.594 399.031 201.774 399.631 202.134C400.243 202.494 400.711 202.998 401.035 203.646C401.359 204.282 401.521 205.026 401.521 205.878C401.521 206.694 401.347 207.426 400.999 208.074C400.663 208.722 400.189 209.232 399.577 209.604C398.977 209.976 398.269 210.162 397.453 210.162ZM397.597 209.298C398.317 209.298 398.851 209.004 399.199 208.416C399.547 207.816 399.721 207.042 399.721 206.094C399.721 205.35 399.607 204.708 399.379 204.168C399.163 203.616 398.869 203.196 398.497 202.908C398.125 202.608 397.717 202.458 397.273 202.458C396.577 202.458 396.055 202.74 395.707 203.304C395.371 203.868 395.203 204.6 395.203 205.5C395.203 206.304 395.299 206.994 395.491 207.57C395.695 208.134 395.977 208.566 396.337 208.866C396.697 209.154 397.117 209.298 397.597 209.298ZM413.265 208.596C412.941 209.112 412.539 209.502 412.059 209.766C411.579 210.03 410.997 210.162 410.313 210.162C409.701 210.162 409.107 210.006 408.531 209.694C407.967 209.37 407.499 208.896 407.127 208.272C406.755 207.636 406.569 206.85 406.569 205.914C406.569 205.194 406.713 204.504 407.001 203.844C407.289 203.184 407.709 202.644 408.261 202.224C408.825 201.804 409.509 201.594 410.313 201.594C410.865 201.594 411.369 201.66 411.825 201.792C412.293 201.924 412.695 202.128 413.031 202.404C412.983 202.752 412.947 203.094 412.923 203.43C412.911 203.766 412.905 204.108 412.905 204.456C412.809 204.504 412.677 204.54 412.509 204.564C412.353 204.588 412.209 204.6 412.077 204.6C412.005 203.904 411.801 203.37 411.465 202.998C411.129 202.626 410.697 202.44 410.169 202.44C409.581 202.44 409.113 202.716 408.765 203.268C408.417 203.82 408.243 204.612 408.243 205.644C408.243 206.244 408.339 206.814 408.531 207.354C408.735 207.882 409.029 208.314 409.413 208.65C409.797 208.974 410.265 209.136 410.817 209.136C411.201 209.136 411.561 209.046 411.897 208.866C412.245 208.686 412.551 208.428 412.815 208.092C412.911 208.14 413.001 208.212 413.085 208.308C413.169 208.392 413.229 208.488 413.265 208.596ZM417.517 207.354C417.517 207.87 417.571 208.266 417.679 208.542C417.787 208.806 417.961 208.992 418.201 209.1C418.441 209.196 418.747 209.256 419.119 209.28C419.155 209.376 419.179 209.49 419.191 209.622C419.203 209.742 419.209 209.886 419.209 210.054C419.029 210.042 418.813 210.03 418.561 210.018C418.321 210.018 418.063 210.012 417.787 210C417.511 210 417.229 210 416.941 210C416.521 210 416.077 210 415.609 210C415.153 210.012 414.805 210.03 414.565 210.054C414.565 209.886 414.571 209.742 414.583 209.622C414.595 209.49 414.619 209.376 414.655 209.28C414.979 209.256 415.231 209.202 415.411 209.118C415.591 209.022 415.717 208.866 415.789 208.65C415.861 208.422 415.897 208.11 415.897 207.714V205.914H417.517V207.354ZM417.517 204.726V206.148H415.897V204.15L417.517 202.386C417.517 202.794 417.481 203.166 417.409 203.502C417.337 203.826 417.271 204.15 417.211 204.474L417.517 204.726ZM417.121 204.582C417.253 204.246 417.355 203.97 417.427 203.754C417.499 203.538 417.577 203.358 417.661 203.214C417.925 202.794 418.237 202.446 418.597 202.17C418.957 201.894 419.371 201.756 419.839 201.756C420.295 201.756 420.709 201.9 421.081 202.188C421.057 202.38 421.033 202.602 421.009 202.854C420.985 203.106 420.967 203.358 420.955 203.61C420.955 203.862 420.955 204.096 420.955 204.312C420.847 204.348 420.697 204.384 420.505 204.42C420.325 204.456 420.133 204.474 419.929 204.474C419.905 203.898 419.809 203.52 419.641 203.34C419.485 203.16 419.287 203.07 419.047 203.07C418.843 203.07 418.621 203.19 418.381 203.43C418.141 203.658 417.937 203.964 417.769 204.348C417.601 204.732 417.517 205.158 417.517 205.626L417.121 204.582ZM415.897 206.148V204.15C415.897 203.862 415.867 203.628 415.807 203.448C415.747 203.268 415.621 203.13 415.429 203.034C415.237 202.938 414.943 202.884 414.547 202.872C414.547 202.74 414.559 202.62 414.583 202.512C414.607 202.404 414.649 202.302 414.709 202.206C415.081 202.182 415.507 202.11 415.987 201.99C416.467 201.87 416.845 201.738 417.121 201.594C417.229 201.63 417.319 201.708 417.391 201.828C417.475 201.936 417.517 202.122 417.517 202.386L415.897 206.148ZM427.614 210.162C427.482 210.102 427.374 209.994 427.29 209.838C427.218 209.682 427.182 209.436 427.182 209.1C427.182 208.992 427.188 208.866 427.2 208.722C427.212 208.566 427.236 208.428 427.272 208.308H427.308C427.272 208.5 427.188 208.71 427.056 208.938C426.936 209.154 426.774 209.346 426.57 209.514C426.366 209.694 426.108 209.844 425.796 209.964C425.484 210.072 425.106 210.126 424.662 210.126C423.906 210.126 423.33 209.958 422.934 209.622C422.538 209.274 422.34 208.806 422.34 208.218C422.34 207.75 422.448 207.354 422.664 207.03C422.892 206.694 423.18 206.418 423.528 206.202C423.888 205.974 424.272 205.794 424.68 205.662C425.1 205.53 425.508 205.428 425.904 205.356C426.3 205.284 426.648 205.224 426.948 205.176C426.948 204.684 426.936 204.3 426.912 204.024C426.9 203.748 426.864 203.532 426.804 203.376C426.756 203.208 426.678 203.064 426.57 202.944C426.426 202.764 426.258 202.632 426.066 202.548C425.886 202.452 425.682 202.404 425.454 202.404C425.058 202.404 424.746 202.53 424.518 202.782C424.29 203.022 424.128 203.304 424.032 203.628C423.936 203.952 423.882 204.24 423.87 204.492C423.738 204.492 423.57 204.486 423.366 204.474C423.174 204.45 423.03 204.414 422.934 204.366C422.958 204.066 422.964 203.73 422.952 203.358C422.94 202.986 422.904 202.668 422.844 202.404C423.336 202.152 423.852 201.954 424.392 201.81C424.944 201.666 425.448 201.594 425.904 201.594C426.348 201.594 426.726 201.66 427.038 201.792C427.362 201.912 427.62 202.074 427.812 202.278C428.124 202.578 428.328 202.974 428.424 203.466C428.52 203.946 428.568 204.588 428.568 205.392V207.372C428.568 207.708 428.592 207.978 428.64 208.182C428.7 208.374 428.808 208.518 428.964 208.614C429.12 208.698 429.36 208.752 429.684 208.776C429.684 208.896 429.678 209.034 429.666 209.19C429.654 209.334 429.624 209.472 429.576 209.604C429.276 209.616 428.94 209.676 428.568 209.784C428.208 209.88 427.89 210.006 427.614 210.162ZM425.166 209.136C425.43 209.136 425.7 209.052 425.976 208.884C426.252 208.704 426.48 208.428 426.66 208.056C426.852 207.684 426.948 207.198 426.948 206.598V205.914C426.648 205.95 426.33 206.004 425.994 206.076C425.658 206.136 425.346 206.232 425.058 206.364C424.77 206.496 424.536 206.682 424.356 206.922C424.176 207.15 424.086 207.462 424.086 207.858C424.086 208.302 424.194 208.626 424.41 208.83C424.626 209.034 424.878 209.136 425.166 209.136ZM431.611 210.036C431.527 209.952 431.455 209.85 431.395 209.73C431.347 209.598 431.323 209.46 431.323 209.316C431.575 208.968 431.875 208.548 432.223 208.056C432.583 207.552 432.961 207.024 433.357 206.472C433.753 205.908 434.137 205.362 434.509 204.834C434.893 204.294 435.235 203.808 435.535 203.376C435.835 202.932 436.063 202.584 436.219 202.332L436.579 202.548H434.419C433.987 202.548 433.645 202.596 433.393 202.692C433.141 202.788 432.943 202.974 432.799 203.25C432.667 203.526 432.541 203.928 432.421 204.456C432.277 204.456 432.115 204.444 431.935 204.42C431.767 204.396 431.617 204.36 431.485 204.312C431.521 203.916 431.551 203.496 431.575 203.052C431.599 202.608 431.611 202.158 431.611 201.702C431.863 201.714 432.175 201.726 432.547 201.738C432.919 201.738 433.315 201.744 433.735 201.756C434.155 201.756 434.545 201.756 434.905 201.756C435.265 201.756 435.643 201.756 436.039 201.756C436.447 201.744 436.831 201.738 437.191 201.738C437.563 201.726 437.863 201.714 438.091 201.702C438.175 201.798 438.235 201.918 438.271 202.062C438.307 202.206 438.325 202.344 438.325 202.476C438.013 202.92 437.635 203.454 437.191 204.078C436.747 204.702 436.285 205.35 435.805 206.022C435.325 206.682 434.863 207.312 434.419 207.912C433.987 208.512 433.615 209.01 433.303 209.406L433.159 209.19H435.751C436.183 209.19 436.519 209.142 436.759 209.046C436.999 208.95 437.173 208.764 437.281 208.488C437.401 208.2 437.479 207.768 437.515 207.192C437.659 207.192 437.809 207.198 437.965 207.21C438.121 207.222 438.289 207.252 438.469 207.3C438.469 207.492 438.475 207.738 438.487 208.038C438.499 208.326 438.511 208.62 438.523 208.92C438.547 209.22 438.577 209.478 438.613 209.694C438.505 209.922 438.313 210.036 438.037 210.036C437.737 210.024 437.437 210.018 437.137 210.018C436.849 210.018 436.519 210.012 436.147 210C435.787 210 435.343 210 434.815 210C434.023 210 433.369 210 432.853 210C432.349 210.012 431.935 210.024 431.611 210.036ZM446.245 204.636C446.557 203.868 446.629 203.346 446.461 203.07C446.305 202.782 445.963 202.59 445.435 202.494C445.387 202.362 445.351 202.236 445.327 202.116C445.315 201.984 445.309 201.852 445.309 201.72C445.585 201.732 445.867 201.744 446.155 201.756C446.443 201.756 446.755 201.756 447.091 201.756C447.427 201.756 447.745 201.756 448.045 201.756C448.345 201.744 448.627 201.732 448.891 201.72C448.891 201.84 448.885 201.966 448.873 202.098C448.873 202.23 448.843 202.362 448.783 202.494C448.567 202.542 448.381 202.626 448.225 202.746C448.081 202.866 447.943 203.052 447.811 203.304C447.679 203.556 447.517 203.91 447.325 204.366L444.679 210.666C444.343 211.482 444.037 212.142 443.761 212.646C443.497 213.15 443.245 213.534 443.005 213.798C442.777 214.062 442.543 214.242 442.303 214.338C442.075 214.434 441.823 214.482 441.547 214.482C441.187 214.482 440.899 214.434 440.683 214.338C440.479 214.242 440.317 214.152 440.197 214.068C440.149 213.888 440.131 213.66 440.143 213.384C440.155 213.12 440.179 212.91 440.215 212.754C440.419 212.79 440.617 212.814 440.809 212.826C441.001 212.85 441.187 212.862 441.367 212.862C441.715 212.862 442.045 212.778 442.357 212.61C442.681 212.442 442.957 212.172 443.185 211.8C443.353 211.548 443.605 211.05 443.941 210.306C444.277 209.574 444.631 208.728 445.003 207.768L446.245 204.636ZM444.139 210.378C443.851 209.742 443.545 209.076 443.221 208.38C442.909 207.672 442.609 206.994 442.321 206.346C442.033 205.698 441.781 205.152 441.565 204.708C441.289 204.108 441.055 203.658 440.863 203.358C440.683 203.058 440.509 202.848 440.341 202.728C440.185 202.608 440.005 202.53 439.801 202.494C439.765 202.386 439.735 202.266 439.711 202.134C439.699 202.002 439.693 201.864 439.693 201.72C440.041 201.732 440.389 201.744 440.737 201.756C441.085 201.756 441.415 201.756 441.727 201.756C442.039 201.756 442.423 201.756 442.879 201.756C443.335 201.744 443.749 201.732 444.121 201.72C444.121 201.876 444.109 202.02 444.085 202.152C444.073 202.272 444.043 202.386 443.995 202.494C443.347 202.602 442.975 202.794 442.879 203.07C442.783 203.334 442.897 203.802 443.221 204.474C443.389 204.822 443.581 205.242 443.797 205.734C444.013 206.214 444.223 206.7 444.427 207.192C444.631 207.672 444.805 208.098 444.949 208.47L444.139 210.378ZM455.545 210.162C455.341 209.586 455.137 209.022 454.933 208.47C454.741 207.906 454.537 207.354 454.321 206.814C454.117 206.262 453.907 205.716 453.691 205.176C453.487 204.636 453.277 204.096 453.061 203.556C452.929 203.22 452.791 202.98 452.647 202.836C452.515 202.692 452.317 202.578 452.053 202.494C452.005 202.374 451.975 202.242 451.963 202.098C451.951 201.954 451.945 201.828 451.945 201.72C452.185 201.732 452.437 201.744 452.701 201.756C452.977 201.756 453.313 201.756 453.709 201.756C454.105 201.756 454.459 201.75 454.771 201.738C455.083 201.726 455.389 201.714 455.689 201.702C455.689 201.822 455.683 201.96 455.671 202.116C455.659 202.272 455.635 202.398 455.599 202.494C455.263 202.53 455.023 202.59 454.879 202.674C454.747 202.758 454.681 202.872 454.681 203.016C454.693 203.16 454.741 203.346 454.825 203.574C455.101 204.27 455.389 205.032 455.689 205.86C455.989 206.688 456.259 207.456 456.499 208.164L456.265 208.182L458.749 201.756C458.845 201.732 458.959 201.714 459.091 201.702C459.223 201.69 459.349 201.684 459.469 201.684C459.865 202.596 460.297 203.628 460.765 204.78C461.245 205.932 461.707 207.078 462.151 208.218H461.899L463.033 204.816C463.225 204.228 463.309 203.778 463.285 203.466C463.273 203.142 463.183 202.908 463.015 202.764C462.847 202.62 462.613 202.53 462.313 202.494C462.265 202.362 462.223 202.23 462.187 202.098C462.163 201.954 462.151 201.822 462.151 201.702C462.379 201.714 462.637 201.726 462.925 201.738C463.213 201.75 463.489 201.756 463.753 201.756C464.077 201.756 464.371 201.75 464.635 201.738C464.899 201.726 465.133 201.714 465.337 201.702C465.337 201.858 465.325 201.996 465.301 202.116C465.289 202.236 465.253 202.362 465.193 202.494C465.013 202.542 464.857 202.632 464.725 202.764C464.605 202.884 464.479 203.1 464.347 203.412C464.227 203.724 464.065 204.174 463.861 204.762L462.043 210C461.971 210.036 461.893 210.066 461.809 210.09C461.725 210.114 461.635 210.132 461.539 210.144C461.443 210.156 461.335 210.162 461.215 210.162C460.939 209.442 460.639 208.704 460.315 207.948C460.003 207.18 459.691 206.424 459.379 205.68C459.067 204.936 458.761 204.234 458.461 203.574L459.019 203.268L456.337 210C456.277 210.036 456.211 210.066 456.139 210.09C456.067 210.114 455.983 210.132 455.887 210.144C455.791 210.156 455.677 210.162 455.545 210.162ZM470.226 210.162C469.41 210.162 468.696 209.988 468.084 209.64C467.472 209.28 466.998 208.782 466.662 208.146C466.326 207.498 466.158 206.742 466.158 205.878C466.158 205.062 466.332 204.33 466.68 203.682C467.028 203.034 467.508 202.524 468.12 202.152C468.732 201.78 469.434 201.594 470.226 201.594C471.078 201.594 471.804 201.774 472.404 202.134C473.016 202.494 473.484 202.998 473.808 203.646C474.132 204.282 474.294 205.026 474.294 205.878C474.294 206.694 474.12 207.426 473.772 208.074C473.436 208.722 472.962 209.232 472.35 209.604C471.75 209.976 471.042 210.162 470.226 210.162ZM470.37 209.298C471.09 209.298 471.624 209.004 471.972 208.416C472.32 207.816 472.494 207.042 472.494 206.094C472.494 205.35 472.38 204.708 472.152 204.168C471.936 203.616 471.642 203.196 471.27 202.908C470.898 202.608 470.49 202.458 470.046 202.458C469.35 202.458 468.828 202.74 468.48 203.304C468.144 203.868 467.976 204.6 467.976 205.5C467.976 206.304 468.072 206.994 468.264 207.57C468.468 208.134 468.75 208.566 469.11 208.866C469.47 209.154 469.89 209.298 470.37 209.298ZM477.017 206.148V204.15C477.017 203.862 476.987 203.628 476.927 203.448C476.867 203.268 476.741 203.13 476.549 203.034C476.357 202.938 476.063 202.884 475.667 202.872C475.667 202.74 475.679 202.62 475.703 202.512C475.727 202.404 475.769 202.302 475.829 202.206C476.201 202.182 476.627 202.11 477.107 201.99C477.587 201.87 477.965 201.738 478.241 201.594C478.349 201.63 478.439 201.708 478.511 201.828C478.595 201.936 478.637 202.122 478.637 202.386L477.017 206.148ZM483.965 207.714C483.965 208.338 484.049 208.758 484.217 208.974C484.397 209.178 484.667 209.28 485.027 209.28C485.063 209.388 485.087 209.502 485.099 209.622C485.111 209.742 485.117 209.886 485.117 210.054C484.853 210.03 484.553 210.012 484.217 210C483.881 210 483.527 210 483.155 210C482.915 210 482.663 210 482.399 210C482.135 210.012 481.883 210.018 481.643 210.018C481.415 210.03 481.205 210.042 481.013 210.054C481.013 209.886 481.019 209.742 481.031 209.622C481.043 209.49 481.067 209.376 481.103 209.28C481.535 209.28 481.847 209.172 482.039 208.956C482.243 208.728 482.345 208.314 482.345 207.714V204.978C482.345 204.126 482.189 203.55 481.877 203.25C481.565 202.938 481.163 202.782 480.671 202.782C480.359 202.782 480.047 202.884 479.735 203.088C479.423 203.28 479.159 203.598 478.943 204.042C478.739 204.474 478.637 205.056 478.637 205.788V207.714C478.637 208.314 478.727 208.728 478.907 208.956C479.087 209.172 479.411 209.28 479.879 209.28C479.915 209.388 479.939 209.502 479.951 209.622C479.963 209.742 479.969 209.886 479.969 210.054C479.801 210.042 479.597 210.03 479.357 210.018C479.117 210.018 478.865 210.012 478.601 210C478.337 210 478.079 210 477.827 210C477.587 210 477.335 210 477.071 210C476.807 210.012 476.555 210.018 476.315 210.018C476.075 210.03 475.865 210.042 475.685 210.054C475.685 209.886 475.691 209.742 475.703 209.622C475.715 209.49 475.739 209.376 475.775 209.28C476.243 209.28 476.567 209.172 476.747 208.956C476.927 208.728 477.017 208.314 477.017 207.714V204.15L478.637 202.386C478.637 202.53 478.631 202.692 478.619 202.872C478.607 203.052 478.571 203.244 478.511 203.448C478.547 203.388 478.583 203.322 478.619 203.25C478.655 203.166 478.709 203.076 478.781 202.98C478.985 202.704 479.309 202.422 479.753 202.134C480.209 201.834 480.755 201.684 481.391 201.684C481.847 201.684 482.267 201.78 482.651 201.972C483.047 202.152 483.365 202.458 483.605 202.89C483.845 203.31 483.965 203.886 483.965 204.618V207.714ZM490.961 201.594C491.309 201.594 491.609 201.624 491.861 201.684C492.125 201.744 492.407 201.822 492.707 201.918V203.304C492.467 203.052 492.203 202.842 491.915 202.674C491.639 202.506 491.291 202.422 490.871 202.422C490.619 202.422 490.343 202.476 490.043 202.584C489.755 202.68 489.473 202.854 489.197 203.106C488.921 203.358 488.693 203.712 488.513 204.168C488.345 204.624 488.261 205.212 488.261 205.932C488.261 206.7 488.375 207.312 488.603 207.768C488.831 208.212 489.101 208.536 489.413 208.74C489.725 208.932 490.013 209.028 490.277 209.028C490.637 209.028 490.979 208.92 491.303 208.704C491.639 208.476 491.915 208.11 492.131 207.606C492.347 207.102 492.455 206.43 492.455 205.59L492.977 207.498C492.821 207.882 492.683 208.176 492.563 208.38C492.455 208.584 492.371 208.734 492.311 208.83C492.203 209.01 492.029 209.202 491.789 209.406C491.561 209.61 491.279 209.79 490.943 209.946C490.619 210.09 490.253 210.162 489.845 210.162C489.149 210.162 488.549 210.024 488.045 209.748C487.541 209.46 487.151 209.022 486.875 208.434C486.611 207.846 486.479 207.09 486.479 206.166C486.479 205.326 486.665 204.564 487.037 203.88C487.409 203.184 487.931 202.632 488.603 202.224C489.275 201.804 490.061 201.594 490.961 201.594ZM494.075 207.552C494.075 207.828 494.099 208.062 494.147 208.254C494.195 208.434 494.297 208.566 494.453 208.65C494.621 208.734 494.867 208.776 495.191 208.776C495.191 208.896 495.185 209.034 495.173 209.19C495.161 209.334 495.131 209.472 495.083 209.604C494.783 209.616 494.435 209.676 494.039 209.784C493.643 209.88 493.307 210.006 493.031 210.162C492.911 210.102 492.803 210.018 492.707 209.91C492.623 209.79 492.581 209.526 492.581 209.118C492.581 208.878 492.599 208.668 492.635 208.488C492.683 208.296 492.749 207.984 492.833 207.552H494.075ZM494.075 199.65V207.714H492.455V199.65H494.075ZM493.679 197.094C493.787 197.13 493.877 197.202 493.949 197.31C494.033 197.418 494.075 197.586 494.075 197.814V200.316H492.455V199.65C492.455 199.362 492.425 199.128 492.365 198.948C492.317 198.756 492.197 198.612 492.005 198.516C491.813 198.42 491.513 198.372 491.105 198.372C491.105 198.24 491.117 198.12 491.141 198.012C491.165 197.904 491.207 197.802 491.267 197.706C491.447 197.706 491.699 197.676 492.023 197.616C492.347 197.556 492.665 197.478 492.977 197.382C493.301 197.286 493.535 197.19 493.679 197.094ZM500.455 210.162C499.603 210.162 498.895 209.97 498.331 209.586C497.767 209.202 497.341 208.686 497.053 208.038C496.777 207.378 496.639 206.658 496.639 205.878C496.639 205.11 496.789 204.402 497.089 203.754C497.389 203.106 497.815 202.584 498.367 202.188C498.931 201.792 499.597 201.594 500.365 201.594C501.145 201.594 501.769 201.762 502.237 202.098C502.717 202.434 503.071 202.884 503.299 203.448C503.539 204.012 503.683 204.636 503.731 205.32C503.683 205.56 503.593 205.764 503.461 205.932C503.257 205.932 502.951 205.932 502.543 205.932C502.135 205.932 501.673 205.938 501.157 205.95C500.641 205.95 500.113 205.962 499.573 205.986C499.033 205.998 498.523 206.016 498.043 206.04V205.122H501.859C501.859 204.33 501.715 203.688 501.427 203.196C501.139 202.704 500.731 202.458 500.203 202.458C499.915 202.458 499.633 202.548 499.357 202.728C499.081 202.896 498.853 203.202 498.673 203.646C498.493 204.078 498.403 204.696 498.403 205.5C498.403 206.088 498.475 206.664 498.619 207.228C498.775 207.78 499.039 208.242 499.411 208.614C499.795 208.974 500.335 209.154 501.031 209.154C501.427 209.154 501.817 209.064 502.201 208.884C502.585 208.704 502.927 208.446 503.227 208.11C503.323 208.158 503.413 208.242 503.497 208.362C503.593 208.47 503.647 208.572 503.659 208.668C503.251 209.208 502.777 209.592 502.237 209.82C501.709 210.048 501.115 210.162 500.455 210.162ZM508.062 207.354C508.062 207.87 508.116 208.266 508.224 208.542C508.332 208.806 508.506 208.992 508.746 209.1C508.986 209.196 509.292 209.256 509.664 209.28C509.7 209.376 509.724 209.49 509.736 209.622C509.748 209.742 509.754 209.886 509.754 210.054C509.574 210.042 509.358 210.03 509.106 210.018C508.866 210.018 508.608 210.012 508.332 210C508.056 210 507.774 210 507.486 210C507.066 210 506.622 210 506.154 210C505.698 210.012 505.35 210.03 505.11 210.054C505.11 209.886 505.116 209.742 505.128 209.622C505.14 209.49 505.164 209.376 505.2 209.28C505.524 209.256 505.776 209.202 505.956 209.118C506.136 209.022 506.262 208.866 506.334 208.65C506.406 208.422 506.442 208.11 506.442 207.714V205.914H508.062V207.354ZM508.062 204.726V206.148H506.442V204.15L508.062 202.386C508.062 202.794 508.026 203.166 507.954 203.502C507.882 203.826 507.816 204.15 507.756 204.474L508.062 204.726ZM507.666 204.582C507.798 204.246 507.9 203.97 507.972 203.754C508.044 203.538 508.122 203.358 508.206 203.214C508.47 202.794 508.782 202.446 509.142 202.17C509.502 201.894 509.916 201.756 510.384 201.756C510.84 201.756 511.254 201.9 511.626 202.188C511.602 202.38 511.578 202.602 511.554 202.854C511.53 203.106 511.512 203.358 511.5 203.61C511.5 203.862 511.5 204.096 511.5 204.312C511.392 204.348 511.242 204.384 511.05 204.42C510.87 204.456 510.678 204.474 510.474 204.474C510.45 203.898 510.354 203.52 510.186 203.34C510.03 203.16 509.832 203.07 509.592 203.07C509.388 203.07 509.166 203.19 508.926 203.43C508.686 203.658 508.482 203.964 508.314 204.348C508.146 204.732 508.062 205.158 508.062 205.626L507.666 204.582ZM506.442 206.148V204.15C506.442 203.862 506.412 203.628 506.352 203.448C506.292 203.268 506.166 203.13 505.974 203.034C505.782 202.938 505.488 202.884 505.092 202.872C505.092 202.74 505.104 202.62 505.128 202.512C505.152 202.404 505.194 202.302 505.254 202.206C505.626 202.182 506.052 202.11 506.532 201.99C507.012 201.87 507.39 201.738 507.666 201.594C507.774 201.63 507.864 201.708 507.936 201.828C508.02 201.936 508.062 202.122 508.062 202.386L506.442 206.148ZM512.651 210.054C512.651 209.934 512.657 209.808 512.669 209.676C512.681 209.532 512.705 209.4 512.741 209.28C513.221 209.28 513.545 209.172 513.713 208.956C513.893 208.728 513.983 208.314 513.983 207.714V204.15C513.983 203.862 513.953 203.628 513.893 203.448C513.845 203.256 513.725 203.112 513.533 203.016C513.341 202.92 513.041 202.872 512.633 202.872C512.633 202.74 512.645 202.62 512.669 202.512C512.693 202.404 512.735 202.302 512.795 202.206C512.975 202.206 513.227 202.176 513.551 202.116C513.887 202.056 514.211 201.978 514.523 201.882C514.835 201.786 515.063 201.69 515.207 201.594C515.315 201.63 515.405 201.702 515.477 201.81C515.561 201.918 515.603 202.086 515.603 202.314V207.714C515.603 208.314 515.681 208.728 515.837 208.956C516.005 209.172 516.281 209.28 516.665 209.28C516.701 209.4 516.725 209.538 516.737 209.694C516.749 209.85 516.755 209.97 516.755 210.054C516.551 210.042 516.335 210.03 516.107 210.018C515.879 210.018 515.645 210.012 515.405 210C515.177 210 514.949 210 514.721 210C514.493 210 514.253 210 514.001 210C513.761 210.012 513.527 210.018 513.299 210.018C513.071 210.03 512.855 210.042 512.651 210.054ZM514.649 199.56C514.349 199.56 514.097 199.458 513.893 199.254C513.689 199.05 513.587 198.804 513.587 198.516C513.587 198.192 513.695 197.928 513.911 197.724C514.127 197.52 514.373 197.418 514.649 197.418C514.973 197.418 515.231 197.52 515.423 197.724C515.627 197.928 515.729 198.192 515.729 198.516C515.729 198.792 515.621 199.038 515.405 199.254C515.201 199.458 514.949 199.56 514.649 199.56ZM519.397 206.148V204.15C519.397 203.862 519.367 203.628 519.307 203.448C519.247 203.268 519.121 203.13 518.929 203.034C518.737 202.938 518.443 202.884 518.047 202.872C518.047 202.74 518.059 202.62 518.083 202.512C518.107 202.404 518.149 202.302 518.209 202.206C518.581 202.182 519.007 202.11 519.487 201.99C519.967 201.87 520.345 201.738 520.621 201.594C520.729 201.63 520.819 201.708 520.891 201.828C520.975 201.936 521.017 202.122 521.017 202.386L519.397 206.148ZM526.345 207.714C526.345 208.338 526.429 208.758 526.597 208.974C526.777 209.178 527.047 209.28 527.407 209.28C527.443 209.388 527.467 209.502 527.479 209.622C527.491 209.742 527.497 209.886 527.497 210.054C527.233 210.03 526.933 210.012 526.597 210C526.261 210 525.907 210 525.535 210C525.295 210 525.043 210 524.779 210C524.515 210.012 524.263 210.018 524.023 210.018C523.795 210.03 523.585 210.042 523.393 210.054C523.393 209.886 523.399 209.742 523.411 209.622C523.423 209.49 523.447 209.376 523.483 209.28C523.915 209.28 524.227 209.172 524.419 208.956C524.623 208.728 524.725 208.314 524.725 207.714V204.978C524.725 204.126 524.569 203.55 524.257 203.25C523.945 202.938 523.543 202.782 523.051 202.782C522.739 202.782 522.427 202.884 522.115 203.088C521.803 203.28 521.539 203.598 521.323 204.042C521.119 204.474 521.017 205.056 521.017 205.788V207.714C521.017 208.314 521.107 208.728 521.287 208.956C521.467 209.172 521.791 209.28 522.259 209.28C522.295 209.388 522.319 209.502 522.331 209.622C522.343 209.742 522.349 209.886 522.349 210.054C522.181 210.042 521.977 210.03 521.737 210.018C521.497 210.018 521.245 210.012 520.981 210C520.717 210 520.459 210 520.207 210C519.967 210 519.715 210 519.451 210C519.187 210.012 518.935 210.018 518.695 210.018C518.455 210.03 518.245 210.042 518.065 210.054C518.065 209.886 518.071 209.742 518.083 209.622C518.095 209.49 518.119 209.376 518.155 209.28C518.623 209.28 518.947 209.172 519.127 208.956C519.307 208.728 519.397 208.314 519.397 207.714V204.15L521.017 202.386C521.017 202.53 521.011 202.692 520.999 202.872C520.987 203.052 520.951 203.244 520.891 203.448C520.927 203.388 520.963 203.322 520.999 203.25C521.035 203.166 521.089 203.076 521.161 202.98C521.365 202.704 521.689 202.422 522.133 202.134C522.589 201.834 523.135 201.684 523.771 201.684C524.227 201.684 524.647 201.78 525.031 201.972C525.427 202.152 525.745 202.458 525.985 202.89C526.225 203.31 526.345 203.886 526.345 204.618V207.714ZM532.01 214.482C531.278 214.482 530.678 214.386 530.21 214.194C529.754 214.014 529.418 213.744 529.202 213.384C528.986 213.024 528.878 212.58 528.878 212.052C528.878 211.596 528.998 211.2 529.238 210.864C529.49 210.528 529.838 210.264 530.282 210.072L531.182 210.144C530.894 210.36 530.696 210.588 530.588 210.828C530.48 211.068 530.426 211.35 530.426 211.674C530.426 212.286 530.576 212.748 530.876 213.06C531.188 213.372 531.71 213.528 532.442 213.528C533.234 213.528 533.852 213.33 534.296 212.934C534.752 212.538 534.98 212.082 534.98 211.566C534.98 211.254 534.902 211.008 534.746 210.828C534.602 210.648 534.314 210.516 533.882 210.432C533.462 210.348 532.838 210.306 532.01 210.306C531.47 210.306 531.026 210.276 530.678 210.216C530.342 210.168 530.072 210.084 529.868 209.964C529.676 209.832 529.538 209.67 529.454 209.478C529.382 209.286 529.346 209.052 529.346 208.776C529.346 208.38 529.46 207.996 529.688 207.624C529.928 207.24 530.234 206.898 530.606 206.598L531.272 207.066C531.032 207.27 530.858 207.462 530.75 207.642C530.654 207.822 530.606 207.978 530.606 208.11C530.606 208.326 530.66 208.488 530.768 208.596C530.888 208.704 531.134 208.776 531.506 208.812C531.878 208.848 532.448 208.866 533.216 208.866C534.02 208.866 534.656 208.932 535.124 209.064C535.604 209.196 535.946 209.406 536.15 209.694C536.366 209.982 536.474 210.372 536.474 210.864C536.474 211.272 536.36 211.686 536.132 212.106C535.916 212.538 535.61 212.928 535.214 213.276C534.818 213.636 534.344 213.924 533.792 214.14C533.252 214.368 532.658 214.482 532.01 214.482ZM532.442 207.498C531.878 207.498 531.344 207.39 530.84 207.174C530.336 206.958 529.928 206.634 529.616 206.202C529.316 205.77 529.166 205.23 529.166 204.582C529.166 204.03 529.286 203.532 529.526 203.088C529.766 202.632 530.126 202.272 530.606 202.008C531.098 201.732 531.698 201.594 532.406 201.594C533.006 201.594 533.51 201.696 533.918 201.9C534.338 202.092 534.68 202.344 534.944 202.656C535.208 202.956 535.4 203.274 535.52 203.61C535.64 203.934 535.7 204.222 535.7 204.474C535.7 205.026 535.574 205.536 535.322 206.004C535.082 206.46 534.716 206.826 534.224 207.102C533.744 207.366 533.15 207.498 532.442 207.498ZM532.658 206.67C533.054 206.67 533.378 206.508 533.63 206.184C533.882 205.848 534.008 205.368 534.008 204.744C534.008 204.108 533.852 203.562 533.54 203.106C533.228 202.638 532.79 202.404 532.226 202.404C531.746 202.404 531.392 202.608 531.164 203.016C530.936 203.412 530.822 203.856 530.822 204.348C530.822 205.092 530.984 205.668 531.308 206.076C531.632 206.472 532.082 206.67 532.658 206.67ZM536.618 202.872C536.426 202.824 536.192 202.776 535.916 202.728C535.652 202.68 535.388 202.638 535.124 202.602C534.872 202.566 534.656 202.542 534.476 202.53L533.216 201.756H536.492C536.54 201.912 536.57 202.092 536.582 202.296C536.606 202.488 536.618 202.68 536.618 202.872ZM544.262 210.162C544.058 209.586 543.854 209.022 543.65 208.47C543.458 207.906 543.254 207.354 543.038 206.814C542.834 206.262 542.624 205.716 542.408 205.176C542.204 204.636 541.994 204.096 541.778 203.556C541.646 203.22 541.508 202.98 541.364 202.836C541.232 202.692 541.034 202.578 540.77 202.494C540.722 202.374 540.692 202.242 540.68 202.098C540.668 201.954 540.662 201.828 540.662 201.72C540.902 201.732 541.154 201.744 541.418 201.756C541.694 201.756 542.03 201.756 542.426 201.756C542.822 201.756 543.176 201.75 543.488 201.738C543.8 201.726 544.106 201.714 544.406 201.702C544.406 201.822 544.4 201.96 544.388 202.116C544.376 202.272 544.352 202.398 544.316 202.494C543.98 202.53 543.74 202.59 543.596 202.674C543.464 202.758 543.398 202.872 543.398 203.016C543.41 203.16 543.458 203.346 543.542 203.574C543.818 204.27 544.106 205.032 544.406 205.86C544.706 206.688 544.976 207.456 545.216 208.164L544.982 208.182L547.466 201.756C547.562 201.732 547.676 201.714 547.808 201.702C547.94 201.69 548.066 201.684 548.186 201.684C548.582 202.596 549.014 203.628 549.482 204.78C549.962 205.932 550.424 207.078 550.868 208.218H550.616L551.75 204.816C551.942 204.228 552.026 203.778 552.002 203.466C551.99 203.142 551.9 202.908 551.732 202.764C551.564 202.62 551.33 202.53 551.03 202.494C550.982 202.362 550.94 202.23 550.904 202.098C550.88 201.954 550.868 201.822 550.868 201.702C551.096 201.714 551.354 201.726 551.642 201.738C551.93 201.75 552.206 201.756 552.47 201.756C552.794 201.756 553.088 201.75 553.352 201.738C553.616 201.726 553.85 201.714 554.054 201.702C554.054 201.858 554.042 201.996 554.018 202.116C554.006 202.236 553.97 202.362 553.91 202.494C553.73 202.542 553.574 202.632 553.442 202.764C553.322 202.884 553.196 203.1 553.064 203.412C552.944 203.724 552.782 204.174 552.578 204.762L550.76 210C550.688 210.036 550.61 210.066 550.526 210.09C550.442 210.114 550.352 210.132 550.256 210.144C550.16 210.156 550.052 210.162 549.932 210.162C549.656 209.442 549.356 208.704 549.032 207.948C548.72 207.18 548.408 206.424 548.096 205.68C547.784 204.936 547.478 204.234 547.178 203.574L547.736 203.268L545.054 210C544.994 210.036 544.928 210.066 544.856 210.09C544.784 210.114 544.7 210.132 544.604 210.144C544.508 210.156 544.394 210.162 544.262 210.162ZM563.259 207.714C563.259 208.338 563.343 208.758 563.511 208.974C563.691 209.178 563.961 209.28 564.321 209.28C564.357 209.388 564.381 209.502 564.393 209.622C564.405 209.742 564.411 209.886 564.411 210.054C564.147 210.03 563.847 210.012 563.511 210C563.175 210 562.821 210 562.449 210C562.209 210 561.957 210 561.693 210C561.429 210.012 561.177 210.018 560.937 210.018C560.709 210.03 560.499 210.042 560.307 210.054C560.307 209.886 560.313 209.742 560.325 209.622C560.337 209.49 560.361 209.376 560.397 209.28C560.829 209.28 561.141 209.172 561.333 208.956C561.537 208.728 561.639 208.314 561.639 207.714V204.978C561.639 204.126 561.483 203.55 561.171 203.25C560.859 202.938 560.457 202.782 559.965 202.782C559.653 202.782 559.341 202.884 559.029 203.088C558.717 203.28 558.453 203.598 558.237 204.042C558.033 204.474 557.931 205.056 557.931 205.788V207.714C557.931 208.314 558.021 208.728 558.201 208.956C558.381 209.172 558.705 209.28 559.173 209.28C559.209 209.388 559.233 209.502 559.245 209.622C559.257 209.742 559.263 209.886 559.263 210.054C559.095 210.042 558.891 210.03 558.651 210.018C558.411 210.018 558.159 210.012 557.895 210C557.631 210 557.373 210 557.121 210C556.881 210 556.629 210 556.365 210C556.101 210.012 555.849 210.018 555.609 210.018C555.369 210.03 555.159 210.042 554.979 210.054C554.979 209.886 554.985 209.742 554.997 209.622C555.009 209.49 555.033 209.376 555.069 209.28C555.537 209.28 555.861 209.172 556.041 208.956C556.221 208.728 556.311 208.314 556.311 207.714V204.15L557.931 202.386C557.931 202.53 557.925 202.692 557.913 202.872C557.901 203.052 557.865 203.244 557.805 203.448C557.841 203.388 557.877 203.322 557.913 203.25C557.949 203.166 558.003 203.076 558.075 202.98C558.279 202.704 558.603 202.422 559.047 202.134C559.503 201.834 560.049 201.684 560.685 201.684C561.141 201.684 561.561 201.78 561.945 201.972C562.341 202.152 562.659 202.458 562.899 202.89C563.139 203.31 563.259 203.886 563.259 204.618V207.714ZM556.311 199.65C556.311 199.362 556.281 199.128 556.221 198.948C556.173 198.756 556.053 198.612 555.861 198.516C555.669 198.42 555.369 198.372 554.961 198.372C554.961 198.24 554.973 198.12 554.997 198.012C555.021 197.904 555.063 197.802 555.123 197.706C555.303 197.706 555.555 197.676 555.879 197.616C556.215 197.556 556.539 197.478 556.851 197.382C557.163 197.286 557.391 197.19 557.535 197.094C557.643 197.13 557.733 197.202 557.805 197.31C557.889 197.418 557.931 197.586 557.931 197.814V200.316H556.311V199.65ZM556.311 199.65H557.931V202.386L556.311 204.42V199.65ZM571.155 204.636C571.467 203.868 571.539 203.346 571.371 203.07C571.215 202.782 570.873 202.59 570.345 202.494C570.297 202.362 570.261 202.236 570.237 202.116C570.225 201.984 570.219 201.852 570.219 201.72C570.495 201.732 570.777 201.744 571.065 201.756C571.353 201.756 571.665 201.756 572.001 201.756C572.337 201.756 572.655 201.756 572.955 201.756C573.255 201.744 573.537 201.732 573.801 201.72C573.801 201.84 573.795 201.966 573.783 202.098C573.783 202.23 573.753 202.362 573.693 202.494C573.477 202.542 573.291 202.626 573.135 202.746C572.991 202.866 572.853 203.052 572.721 203.304C572.589 203.556 572.427 203.91 572.235 204.366L569.589 210.666C569.253 211.482 568.947 212.142 568.671 212.646C568.407 213.15 568.155 213.534 567.915 213.798C567.687 214.062 567.453 214.242 567.213 214.338C566.985 214.434 566.733 214.482 566.457 214.482C566.097 214.482 565.809 214.434 565.593 214.338C565.389 214.242 565.227 214.152 565.107 214.068C565.059 213.888 565.041 213.66 565.053 213.384C565.065 213.12 565.089 212.91 565.125 212.754C565.329 212.79 565.527 212.814 565.719 212.826C565.911 212.85 566.097 212.862 566.277 212.862C566.625 212.862 566.955 212.778 567.267 212.61C567.591 212.442 567.867 212.172 568.095 211.8C568.263 211.548 568.515 211.05 568.851 210.306C569.187 209.574 569.541 208.728 569.913 207.768L571.155 204.636ZM569.049 210.378C568.761 209.742 568.455 209.076 568.131 208.38C567.819 207.672 567.519 206.994 567.231 206.346C566.943 205.698 566.691 205.152 566.475 204.708C566.199 204.108 565.965 203.658 565.773 203.358C565.593 203.058 565.419 202.848 565.251 202.728C565.095 202.608 564.915 202.53 564.711 202.494C564.675 202.386 564.645 202.266 564.621 202.134C564.609 202.002 564.603 201.864 564.603 201.72C564.951 201.732 565.299 201.744 565.647 201.756C565.995 201.756 566.325 201.756 566.637 201.756C566.949 201.756 567.333 201.756 567.789 201.756C568.245 201.744 568.659 201.732 569.031 201.72C569.031 201.876 569.019 202.02 568.995 202.152C568.983 202.272 568.953 202.386 568.905 202.494C568.257 202.602 567.885 202.794 567.789 203.07C567.693 203.334 567.807 203.802 568.131 204.474C568.299 204.822 568.491 205.242 568.707 205.734C568.923 206.214 569.133 206.7 569.337 207.192C569.541 207.672 569.715 208.098 569.859 208.47L569.049 210.378ZM577.796 210.054C577.796 209.934 577.802 209.808 577.814 209.676C577.826 209.532 577.85 209.4 577.886 209.28C578.366 209.28 578.69 209.172 578.858 208.956C579.038 208.728 579.128 208.314 579.128 207.714V204.15C579.128 203.862 579.098 203.628 579.038 203.448C578.99 203.256 578.87 203.112 578.678 203.016C578.486 202.92 578.186 202.872 577.778 202.872C577.778 202.74 577.79 202.62 577.814 202.512C577.838 202.404 577.88 202.302 577.94 202.206C578.12 202.206 578.372 202.176 578.696 202.116C579.032 202.056 579.356 201.978 579.668 201.882C579.98 201.786 580.208 201.69 580.352 201.594C580.46 201.63 580.55 201.702 580.622 201.81C580.706 201.918 580.748 202.086 580.748 202.314V207.714C580.748 208.314 580.826 208.728 580.982 208.956C581.15 209.172 581.426 209.28 581.81 209.28C581.846 209.4 581.87 209.538 581.882 209.694C581.894 209.85 581.9 209.97 581.9 210.054C581.696 210.042 581.48 210.03 581.252 210.018C581.024 210.018 580.79 210.012 580.55 210C580.322 210 580.094 210 579.866 210C579.638 210 579.398 210 579.146 210C578.906 210.012 578.672 210.018 578.444 210.018C578.216 210.03 578 210.042 577.796 210.054ZM579.794 199.56C579.494 199.56 579.242 199.458 579.038 199.254C578.834 199.05 578.732 198.804 578.732 198.516C578.732 198.192 578.84 197.928 579.056 197.724C579.272 197.52 579.518 197.418 579.794 197.418C580.118 197.418 580.376 197.52 580.568 197.724C580.772 197.928 580.874 198.192 580.874 198.516C580.874 198.792 580.766 199.038 580.55 199.254C580.346 199.458 580.094 199.56 579.794 199.56ZM586.288 210.162C585.58 210.162 585.052 209.982 584.704 209.622C584.368 209.25 584.2 208.656 584.2 207.84V202.962C584.02 202.902 583.834 202.854 583.642 202.818C583.45 202.77 583.204 202.74 582.904 202.728C582.904 202.572 582.916 202.44 582.94 202.332C582.964 202.212 583.006 202.08 583.066 201.936H584.2V199.56C584.44 199.5 584.674 199.404 584.902 199.272C585.142 199.14 585.352 198.996 585.532 198.84C585.652 198.888 585.73 198.96 585.766 199.056C585.802 199.152 585.82 199.392 585.82 199.776V201.936H588.16C588.16 202.056 588.148 202.188 588.124 202.332C588.1 202.464 588.058 202.596 587.998 202.728C587.566 202.74 587.17 202.77 586.81 202.818C586.45 202.854 586.12 202.902 585.82 202.962V207.462C585.82 207.858 585.862 208.188 585.946 208.452C586.03 208.704 586.15 208.89 586.306 209.01C586.462 209.13 586.648 209.19 586.864 209.19C587.116 209.19 587.332 209.154 587.512 209.082C587.704 209.01 587.884 208.902 588.052 208.758C588.208 208.938 588.298 209.136 588.322 209.352C588.13 209.58 587.836 209.772 587.44 209.928C587.056 210.084 586.672 210.162 586.288 210.162ZM591.518 197.13C591.722 197.214 591.872 197.364 591.968 197.58C592.076 197.796 592.13 198.078 592.13 198.426C592.13 199.086 592.016 199.662 591.788 200.154C591.56 200.646 591.23 201.138 590.798 201.63C590.678 201.63 590.546 201.612 590.402 201.576C590.258 201.528 590.15 201.468 590.078 201.396C590.39 200.976 590.582 200.658 590.654 200.442C590.738 200.214 590.78 199.95 590.78 199.65C590.78 199.398 590.708 199.194 590.564 199.038C590.432 198.882 590.222 198.786 589.934 198.75C589.934 198.63 589.946 198.462 589.97 198.246C589.994 198.018 590.03 197.826 590.078 197.67C590.354 197.61 590.612 197.538 590.852 197.454C591.104 197.358 591.326 197.25 591.518 197.13ZM599.604 202.224C599.592 202.512 599.58 202.818 599.568 203.142C599.568 203.466 599.592 203.784 599.64 204.096C599.52 204.168 599.382 204.222 599.226 204.258C599.07 204.294 598.908 204.312 598.74 204.312C598.716 203.976 598.614 203.658 598.434 203.358C598.266 203.058 598.038 202.812 597.75 202.62C597.462 202.428 597.12 202.332 596.724 202.332C596.352 202.332 596.052 202.422 595.824 202.602C595.608 202.782 595.5 203.022 595.5 203.322C595.5 203.526 595.542 203.706 595.626 203.862C595.722 204.018 595.92 204.186 596.22 204.366C596.532 204.534 597.006 204.744 597.642 204.996C598.29 205.236 598.8 205.476 599.172 205.716C599.544 205.956 599.808 206.226 599.964 206.526C600.12 206.826 600.198 207.192 600.198 207.624C600.198 208.128 600.054 208.572 599.766 208.956C599.478 209.34 599.082 209.64 598.578 209.856C598.086 210.06 597.528 210.162 596.904 210.162C596.184 210.162 595.608 210.108 595.176 210C594.756 209.88 594.342 209.712 593.934 209.496C593.958 209.304 593.97 209.07 593.97 208.794C593.982 208.518 593.988 208.242 593.988 207.966C593.988 207.69 593.976 207.456 593.952 207.264C594.048 207.192 594.18 207.144 594.348 207.12C594.528 207.084 594.708 207.066 594.888 207.066C594.984 207.822 595.218 208.386 595.59 208.758C595.962 209.13 596.46 209.316 597.084 209.316C597.576 209.316 597.954 209.208 598.218 208.992C598.494 208.776 598.632 208.5 598.632 208.164C598.632 207.948 598.578 207.762 598.47 207.606C598.374 207.45 598.188 207.294 597.912 207.138C597.636 206.982 597.228 206.796 596.688 206.58C596.04 206.316 595.518 206.07 595.122 205.842C594.738 205.614 594.456 205.344 594.276 205.032C594.108 204.72 594.024 204.324 594.024 203.844C594.024 203.46 594.12 203.13 594.312 202.854C594.504 202.566 594.75 202.332 595.05 202.152C595.362 201.96 595.692 201.822 596.04 201.738C596.388 201.642 596.712 201.594 597.012 201.594C597.552 201.594 598.026 201.648 598.434 201.756C598.842 201.864 599.232 202.02 599.604 202.224ZM610.907 202.224C610.895 202.512 610.883 202.818 610.871 203.142C610.871 203.466 610.895 203.784 610.943 204.096C610.823 204.168 610.685 204.222 610.529 204.258C610.373 204.294 610.211 204.312 610.043 204.312C610.019 203.976 609.917 203.658 609.737 203.358C609.569 203.058 609.341 202.812 609.053 202.62C608.765 202.428 608.423 202.332 608.027 202.332C607.655 202.332 607.355 202.422 607.127 202.602C606.911 202.782 606.803 203.022 606.803 203.322C606.803 203.526 606.845 203.706 606.929 203.862C607.025 204.018 607.223 204.186 607.523 204.366C607.835 204.534 608.309 204.744 608.945 204.996C609.593 205.236 610.103 205.476 610.475 205.716C610.847 205.956 611.111 206.226 611.267 206.526C611.423 206.826 611.501 207.192 611.501 207.624C611.501 208.128 611.357 208.572 611.069 208.956C610.781 209.34 610.385 209.64 609.881 209.856C609.389 210.06 608.831 210.162 608.207 210.162C607.487 210.162 606.911 210.108 606.479 210C606.059 209.88 605.645 209.712 605.237 209.496C605.261 209.304 605.273 209.07 605.273 208.794C605.285 208.518 605.291 208.242 605.291 207.966C605.291 207.69 605.279 207.456 605.255 207.264C605.351 207.192 605.483 207.144 605.651 207.12C605.831 207.084 606.011 207.066 606.191 207.066C606.287 207.822 606.521 208.386 606.893 208.758C607.265 209.13 607.763 209.316 608.387 209.316C608.879 209.316 609.257 209.208 609.521 208.992C609.797 208.776 609.935 208.5 609.935 208.164C609.935 207.948 609.881 207.762 609.773 207.606C609.677 207.45 609.491 207.294 609.215 207.138C608.939 206.982 608.531 206.796 607.991 206.58C607.343 206.316 606.821 206.07 606.425 205.842C606.041 205.614 605.759 205.344 605.579 205.032C605.411 204.72 605.327 204.324 605.327 203.844C605.327 203.46 605.423 203.13 605.615 202.854C605.807 202.566 606.053 202.332 606.353 202.152C606.665 201.96 606.995 201.822 607.343 201.738C607.691 201.642 608.015 201.594 608.315 201.594C608.855 201.594 609.329 201.648 609.737 201.756C610.145 201.864 610.535 202.02 610.907 202.224ZM617.004 210.162C616.188 210.162 615.474 209.988 614.862 209.64C614.25 209.28 613.776 208.782 613.44 208.146C613.104 207.498 612.936 206.742 612.936 205.878C612.936 205.062 613.11 204.33 613.458 203.682C613.806 203.034 614.286 202.524 614.898 202.152C615.51 201.78 616.212 201.594 617.004 201.594C617.856 201.594 618.582 201.774 619.182 202.134C619.794 202.494 620.262 202.998 620.586 203.646C620.91 204.282 621.072 205.026 621.072 205.878C621.072 206.694 620.898 207.426 620.55 208.074C620.214 208.722 619.74 209.232 619.128 209.604C618.528 209.976 617.82 210.162 617.004 210.162ZM617.148 209.298C617.868 209.298 618.402 209.004 618.75 208.416C619.098 207.816 619.272 207.042 619.272 206.094C619.272 205.35 619.158 204.708 618.93 204.168C618.714 203.616 618.42 203.196 618.048 202.908C617.676 202.608 617.268 202.458 616.824 202.458C616.128 202.458 615.606 202.74 615.258 203.304C614.922 203.868 614.754 204.6 614.754 205.5C614.754 206.304 614.85 206.994 615.042 207.57C615.246 208.134 615.528 208.566 615.888 208.866C616.248 209.154 616.668 209.298 617.148 209.298ZM632.815 208.596C632.491 209.112 632.089 209.502 631.609 209.766C631.129 210.03 630.547 210.162 629.863 210.162C629.251 210.162 628.657 210.006 628.081 209.694C627.517 209.37 627.049 208.896 626.677 208.272C626.305 207.636 626.119 206.85 626.119 205.914C626.119 205.194 626.263 204.504 626.551 203.844C626.839 203.184 627.259 202.644 627.811 202.224C628.375 201.804 629.059 201.594 629.863 201.594C630.415 201.594 630.919 201.66 631.375 201.792C631.843 201.924 632.245 202.128 632.581 202.404C632.533 202.752 632.497 203.094 632.473 203.43C632.461 203.766 632.455 204.108 632.455 204.456C632.359 204.504 632.227 204.54 632.059 204.564C631.903 204.588 631.759 204.6 631.627 204.6C631.555 203.904 631.351 203.37 631.015 202.998C630.679 202.626 630.247 202.44 629.719 202.44C629.131 202.44 628.663 202.716 628.315 203.268C627.967 203.82 627.793 204.612 627.793 205.644C627.793 206.244 627.889 206.814 628.081 207.354C628.285 207.882 628.579 208.314 628.963 208.65C629.347 208.974 629.815 209.136 630.367 209.136C630.751 209.136 631.111 209.046 631.447 208.866C631.795 208.686 632.101 208.428 632.365 208.092C632.461 208.14 632.551 208.212 632.635 208.308C632.719 208.392 632.779 208.488 632.815 208.596ZM633.641 210.054C633.641 209.934 633.647 209.808 633.659 209.676C633.671 209.532 633.695 209.4 633.731 209.28C634.211 209.28 634.535 209.172 634.703 208.956C634.883 208.728 634.973 208.314 634.973 207.714V199.65C634.973 199.362 634.943 199.128 634.883 198.948C634.835 198.756 634.715 198.612 634.523 198.516C634.331 198.42 634.031 198.372 633.623 198.372C633.623 198.24 633.635 198.12 633.659 198.012C633.683 197.904 633.725 197.802 633.785 197.706C633.965 197.706 634.217 197.676 634.541 197.616C634.877 197.556 635.201 197.478 635.513 197.382C635.825 197.286 636.053 197.19 636.197 197.094C636.305 197.13 636.395 197.202 636.467 197.31C636.551 197.418 636.593 197.586 636.593 197.814V207.714C636.593 208.314 636.671 208.728 636.827 208.956C636.995 209.172 637.271 209.28 637.655 209.28C637.691 209.4 637.715 209.538 637.727 209.694C637.739 209.85 637.745 209.97 637.745 210.054C637.541 210.042 637.325 210.03 637.097 210.018C636.869 210.018 636.635 210.012 636.395 210C636.167 210 635.939 210 635.711 210C635.483 210 635.243 210 634.991 210C634.751 210.012 634.517 210.018 634.289 210.018C634.061 210.03 633.845 210.042 633.641 210.054ZM642.908 210.162C642.056 210.162 641.348 209.97 640.784 209.586C640.22 209.202 639.794 208.686 639.506 208.038C639.23 207.378 639.092 206.658 639.092 205.878C639.092 205.11 639.242 204.402 639.542 203.754C639.842 203.106 640.268 202.584 640.82 202.188C641.384 201.792 642.05 201.594 642.818 201.594C643.598 201.594 644.222 201.762 644.69 202.098C645.17 202.434 645.524 202.884 645.752 203.448C645.992 204.012 646.136 204.636 646.184 205.32C646.136 205.56 646.046 205.764 645.914 205.932C645.71 205.932 645.404 205.932 644.996 205.932C644.588 205.932 644.126 205.938 643.61 205.95C643.094 205.95 642.566 205.962 642.026 205.986C641.486 205.998 640.976 206.016 640.496 206.04V205.122H644.312C644.312 204.33 644.168 203.688 643.88 203.196C643.592 202.704 643.184 202.458 642.656 202.458C642.368 202.458 642.086 202.548 641.81 202.728C641.534 202.896 641.306 203.202 641.126 203.646C640.946 204.078 640.856 204.696 640.856 205.5C640.856 206.088 640.928 206.664 641.072 207.228C641.228 207.78 641.492 208.242 641.864 208.614C642.248 208.974 642.788 209.154 643.484 209.154C643.88 209.154 644.27 209.064 644.654 208.884C645.038 208.704 645.38 208.446 645.68 208.11C645.776 208.158 645.866 208.242 645.95 208.362C646.046 208.47 646.1 208.572 646.112 208.668C645.704 209.208 645.23 209.592 644.69 209.82C644.162 210.048 643.568 210.162 642.908 210.162ZM653.071 210.162C652.939 210.102 652.831 209.994 652.747 209.838C652.675 209.682 652.639 209.436 652.639 209.1C652.639 208.992 652.645 208.866 652.657 208.722C652.669 208.566 652.693 208.428 652.729 208.308H652.765C652.729 208.5 652.645 208.71 652.513 208.938C652.393 209.154 652.231 209.346 652.027 209.514C651.823 209.694 651.565 209.844 651.253 209.964C650.941 210.072 650.563 210.126 650.119 210.126C649.363 210.126 648.787 209.958 648.391 209.622C647.995 209.274 647.797 208.806 647.797 208.218C647.797 207.75 647.905 207.354 648.121 207.03C648.349 206.694 648.637 206.418 648.985 206.202C649.345 205.974 649.729 205.794 650.137 205.662C650.557 205.53 650.965 205.428 651.361 205.356C651.757 205.284 652.105 205.224 652.405 205.176C652.405 204.684 652.393 204.3 652.369 204.024C652.357 203.748 652.321 203.532 652.261 203.376C652.213 203.208 652.135 203.064 652.027 202.944C651.883 202.764 651.715 202.632 651.523 202.548C651.343 202.452 651.139 202.404 650.911 202.404C650.515 202.404 650.203 202.53 649.975 202.782C649.747 203.022 649.585 203.304 649.489 203.628C649.393 203.952 649.339 204.24 649.327 204.492C649.195 204.492 649.027 204.486 648.823 204.474C648.631 204.45 648.487 204.414 648.391 204.366C648.415 204.066 648.421 203.73 648.409 203.358C648.397 202.986 648.361 202.668 648.301 202.404C648.793 202.152 649.309 201.954 649.849 201.81C650.401 201.666 650.905 201.594 651.361 201.594C651.805 201.594 652.183 201.66 652.495 201.792C652.819 201.912 653.077 202.074 653.269 202.278C653.581 202.578 653.785 202.974 653.881 203.466C653.977 203.946 654.025 204.588 654.025 205.392V207.372C654.025 207.708 654.049 207.978 654.097 208.182C654.157 208.374 654.265 208.518 654.421 208.614C654.577 208.698 654.817 208.752 655.141 208.776C655.141 208.896 655.135 209.034 655.123 209.19C655.111 209.334 655.081 209.472 655.033 209.604C654.733 209.616 654.397 209.676 654.025 209.784C653.665 209.88 653.347 210.006 653.071 210.162ZM650.623 209.136C650.887 209.136 651.157 209.052 651.433 208.884C651.709 208.704 651.937 208.428 652.117 208.056C652.309 207.684 652.405 207.198 652.405 206.598V205.914C652.105 205.95 651.787 206.004 651.451 206.076C651.115 206.136 650.803 206.232 650.515 206.364C650.227 206.496 649.993 206.682 649.813 206.922C649.633 207.15 649.543 207.462 649.543 207.858C649.543 208.302 649.651 208.626 649.867 208.83C650.083 209.034 650.335 209.136 650.623 209.136ZM657.86 206.148V204.15C657.86 203.862 657.83 203.628 657.77 203.448C657.71 203.268 657.584 203.13 657.392 203.034C657.2 202.938 656.906 202.884 656.51 202.872C656.51 202.74 656.522 202.62 656.546 202.512C656.57 202.404 656.612 202.302 656.672 202.206C657.044 202.182 657.47 202.11 657.95 201.99C658.43 201.87 658.808 201.738 659.084 201.594C659.192 201.63 659.282 201.708 659.354 201.828C659.438 201.936 659.48 202.122 659.48 202.386L657.86 206.148ZM664.808 207.714C664.808 208.338 664.892 208.758 665.06 208.974C665.24 209.178 665.51 209.28 665.87 209.28C665.906 209.388 665.93 209.502 665.942 209.622C665.954 209.742 665.96 209.886 665.96 210.054C665.696 210.03 665.396 210.012 665.06 210C664.724 210 664.37 210 663.998 210C663.758 210 663.506 210 663.242 210C662.978 210.012 662.726 210.018 662.486 210.018C662.258 210.03 662.048 210.042 661.856 210.054C661.856 209.886 661.862 209.742 661.874 209.622C661.886 209.49 661.91 209.376 661.946 209.28C662.378 209.28 662.69 209.172 662.882 208.956C663.086 208.728 663.188 208.314 663.188 207.714V204.978C663.188 204.126 663.032 203.55 662.72 203.25C662.408 202.938 662.006 202.782 661.514 202.782C661.202 202.782 660.89 202.884 660.578 203.088C660.266 203.28 660.002 203.598 659.786 204.042C659.582 204.474 659.48 205.056 659.48 205.788V207.714C659.48 208.314 659.57 208.728 659.75 208.956C659.93 209.172 660.254 209.28 660.722 209.28C660.758 209.388 660.782 209.502 660.794 209.622C660.806 209.742 660.812 209.886 660.812 210.054C660.644 210.042 660.44 210.03 660.2 210.018C659.96 210.018 659.708 210.012 659.444 210C659.18 210 658.922 210 658.67 210C658.43 210 658.178 210 657.914 210C657.65 210.012 657.398 210.018 657.158 210.018C656.918 210.03 656.708 210.042 656.528 210.054C656.528 209.886 656.534 209.742 656.546 209.622C656.558 209.49 656.582 209.376 656.618 209.28C657.086 209.28 657.41 209.172 657.59 208.956C657.77 208.728 657.86 208.314 657.86 207.714V204.15L659.48 202.386C659.48 202.53 659.474 202.692 659.462 202.872C659.45 203.052 659.414 203.244 659.354 203.448C659.39 203.388 659.426 203.322 659.462 203.25C659.498 203.166 659.552 203.076 659.624 202.98C659.828 202.704 660.152 202.422 660.596 202.134C661.052 201.834 661.598 201.684 662.234 201.684C662.69 201.684 663.11 201.78 663.494 201.972C663.89 202.152 664.208 202.458 664.448 202.89C664.688 203.31 664.808 203.886 664.808 204.618V207.714ZM668.691 210.18C668.307 210.18 668.007 210.072 667.791 209.856C667.575 209.64 667.467 209.364 667.467 209.028C667.467 208.692 667.587 208.404 667.827 208.164C668.079 207.924 668.397 207.804 668.781 207.804C669.153 207.804 669.441 207.93 669.645 208.182C669.861 208.422 669.969 208.668 669.969 208.92C669.969 209.352 669.837 209.67 669.573 209.874C669.321 210.078 669.027 210.18 668.691 210.18Z" fill="white" fill-opacity="0.81"/>
<path d="M188.021 115.14H195.119C194.939 118.998 194.154 122.328 192.766 125.131C191.403 127.908 189.41 130.043 186.787 131.534C184.189 133.026 180.936 133.771 177.027 133.771C174.224 133.771 171.691 133.219 169.428 132.113C167.165 131.007 165.224 129.425 163.604 127.368C162.009 125.285 160.788 122.791 159.939 119.885C159.09 116.979 158.666 113.713 158.666 110.087V99.7104C158.666 96.1102 159.09 92.8571 159.939 89.9512C160.813 87.0452 162.061 84.5636 163.681 82.5063C165.326 80.4233 167.319 78.8289 169.66 77.7231C172.026 76.6174 174.7 76.0645 177.683 76.0645C181.335 76.0645 184.421 76.7974 186.941 78.2632C189.487 79.7033 191.441 81.8249 192.804 84.6279C194.193 87.4053 194.964 90.8127 195.119 94.8501H188.021C187.841 91.8927 187.378 89.4883 186.632 87.6367C185.887 85.7594 184.781 84.3836 183.315 83.5093C181.875 82.6092 179.998 82.1592 177.683 82.1592C175.626 82.1592 173.839 82.5706 172.321 83.3936C170.83 84.2165 169.595 85.3994 168.618 86.9424C167.667 88.4596 166.947 90.2983 166.458 92.4585C165.995 94.5929 165.764 96.9845 165.764 99.6333V110.087C165.764 112.556 165.957 114.857 166.342 116.992C166.754 119.126 167.397 121.003 168.271 122.624C169.171 124.218 170.341 125.465 171.781 126.365C173.221 127.265 174.97 127.715 177.027 127.715C179.625 127.715 181.682 127.291 183.199 126.442C184.716 125.594 185.835 124.244 186.555 122.392C187.301 120.541 187.79 118.123 188.021 115.14ZM233.847 126.944V133H210.548V126.944H233.847ZM211.821 76.8359V133H204.724V76.8359H211.821ZM272.499 126.944V133H248.12V126.944H272.499ZM249.393 76.8359V133H242.295V76.8359H249.393ZM269.22 100.983V107.04H248.12V100.983H269.22ZM272.113 76.8359V82.9307H248.12V76.8359H272.113ZM299.771 81.812L284.418 133H277.166L295.257 76.8359H299.809L299.771 81.812ZM312.191 133L296.839 81.812L296.762 76.8359H301.352L319.443 133H312.191ZM312.191 112.208V118.303H285.112V112.208H312.191ZM363.881 76.8359V133H356.745L334.256 89.6812V133H327.158V76.8359H334.256L356.86 120.271V76.8359H363.881ZM412.484 81.812L397.132 133H389.88L407.971 76.8359H412.523L412.484 81.812ZM424.905 133L409.553 81.812L409.476 76.8359H414.066L432.157 133H424.905ZM424.905 112.208V118.303H397.826V112.208H424.905ZM476.595 76.8359V133H469.458L446.97 89.6812V133H439.872V76.8359H446.97L469.574 120.271V76.8359H476.595ZM501.591 133H492.024L492.102 126.944H501.591C504.96 126.944 507.698 126.301 509.807 125.015C511.916 123.704 513.472 121.775 514.475 119.229C515.478 116.657 515.979 113.481 515.979 109.701V100.096C515.979 97.1131 515.696 94.5415 515.13 92.3813C514.565 90.2212 513.716 88.4468 512.584 87.0581C511.453 85.6694 510.026 84.6408 508.303 83.9722C506.58 83.2778 504.561 82.9307 502.247 82.9307H491.832V76.8359H502.247C505.41 76.8359 508.264 77.3374 510.81 78.3403C513.356 79.3175 515.542 80.7962 517.368 82.7764C519.194 84.7308 520.582 87.161 521.534 90.0669C522.511 92.9728 523 96.3416 523 100.173V109.701C523 113.533 522.511 116.902 521.534 119.808C520.582 122.714 519.181 125.144 517.329 127.098C515.478 129.053 513.227 130.531 510.579 131.534C507.956 132.511 504.96 133 501.591 133ZM495.959 76.8359V133H488.861V76.8359H495.959ZM576.695 118.805C576.695 117.493 576.541 116.336 576.232 115.333C575.923 114.304 575.383 113.379 574.612 112.556C573.84 111.733 572.76 110.948 571.372 110.203C569.983 109.457 568.221 108.698 566.087 107.927C563.772 107.104 561.677 106.191 559.799 105.188C557.922 104.159 556.315 102.989 554.978 101.678C553.666 100.366 552.65 98.8618 551.93 97.1646C551.21 95.4673 550.85 93.5257 550.85 91.3398C550.85 89.154 551.223 87.1353 551.969 85.2837C552.74 83.4321 553.82 81.8249 555.209 80.4619C556.623 79.0732 558.321 77.9932 560.301 77.2217C562.281 76.4502 564.493 76.0645 566.936 76.0645C570.587 76.0645 573.66 76.8745 576.155 78.4946C578.675 80.089 580.578 82.1849 581.864 84.7822C583.15 87.3538 583.792 90.1055 583.792 93.0371H576.695C576.695 90.9284 576.348 89.064 575.653 87.4438C574.985 85.798 573.93 84.5122 572.49 83.5864C571.076 82.6349 569.224 82.1592 566.936 82.1592C564.878 82.1592 563.181 82.5578 561.844 83.355C560.532 84.1522 559.555 85.2323 558.912 86.5952C558.295 87.9582 557.986 89.514 557.986 91.2627C557.986 92.4456 558.192 93.5257 558.604 94.5029C559.015 95.4544 559.645 96.3416 560.494 97.1646C561.368 97.9875 562.448 98.7461 563.734 99.4404C565.045 100.135 566.588 100.803 568.363 101.446C571.114 102.346 573.467 103.349 575.422 104.455C577.376 105.561 578.971 106.808 580.205 108.197C581.439 109.56 582.34 111.116 582.905 112.864C583.497 114.587 583.792 116.542 583.792 118.728C583.792 121.016 583.407 123.086 582.635 124.938C581.889 126.79 580.797 128.371 579.356 129.683C577.916 130.994 576.181 132.01 574.149 132.73C572.117 133.424 569.829 133.771 567.283 133.771C565.071 133.771 562.898 133.411 560.764 132.691C558.655 131.971 556.739 130.891 555.016 129.451C553.293 128.011 551.917 126.237 550.889 124.128C549.86 121.993 549.346 119.525 549.346 116.722H556.443C556.443 118.65 556.726 120.309 557.292 121.698C557.858 123.061 558.642 124.192 559.645 125.092C560.648 125.992 561.792 126.661 563.078 127.098C564.39 127.51 565.791 127.715 567.283 127.715C569.34 127.715 571.063 127.355 572.452 126.635C573.866 125.915 574.92 124.887 575.615 123.549C576.335 122.212 576.695 120.631 576.695 118.805ZM600.495 76.8359V133H593.397V76.8359H600.495ZM615.076 76.8359H621.942L636.639 122.624L651.297 76.8359H658.164L639.301 133H633.9L615.076 76.8359ZM612.839 76.8359H618.856L619.898 111.09V133H612.839V76.8359ZM654.345 76.8359H660.362V133H653.303V111.09L654.345 76.8359ZM690.45 110.974H678.184V104.918H690.45C692.765 104.918 694.629 104.455 696.043 103.529C697.484 102.604 698.525 101.318 699.168 99.6719C699.837 98.026 700.171 96.1488 700.171 94.04C700.171 92.1113 699.837 90.2983 699.168 88.6011C698.525 86.9038 697.484 85.5409 696.043 84.5122C694.629 83.4578 692.765 82.9307 690.45 82.9307H679.649V133H672.552V76.8359H690.45C694.076 76.8359 697.136 77.5688 699.631 79.0347C702.125 80.5005 704.015 82.5321 705.301 85.1294C706.613 87.701 707.269 90.6455 707.269 93.9629C707.269 97.5632 706.613 100.636 705.301 103.182C704.015 105.728 702.125 107.67 699.631 109.007C697.136 110.318 694.076 110.974 690.45 110.974ZM745.496 126.944V133H722.197V126.944H745.496ZM723.47 76.8359V133H716.372V76.8359H723.47ZM784.147 126.944V133H759.768V126.944H784.147ZM761.041 76.8359V133H753.943V76.8359H761.041ZM780.868 100.983V107.04H759.768V100.983H780.868ZM783.761 76.8359V82.9307H759.768V76.8359H783.761Z" fill="white"/>
</svg>
