<svg width="1440" height="490" viewBox="0 0 1440 490" fill="none" xmlns="http://www.w3.org/2000/svg">
<path d="M690 245H750V247H690V245Z" fill="white"/>
<path d="M468.823 110.242L477.697 71.5469H482.687L480.059 86.5908L470.423 127H465.434L468.823 110.242ZM460.063 71.5469L466.995 109.48L469.052 127H464.139L453.094 71.5469H460.063ZM493.998 109.442L500.777 71.5469H507.747L496.74 127H491.827L493.998 109.442ZM483.486 71.5469L492.094 110.242L495.407 127H490.418L481.201 86.5908L478.573 71.5469H483.486ZM545.604 121.021V127H521.534V121.021H545.604ZM522.791 71.5469V127H515.783V71.5469H522.791ZM542.367 95.3887V101.368H521.534V95.3887H542.367ZM545.224 71.5469V77.5645H521.534V71.5469H545.224ZM579.463 71.5469V127H572.455V71.5469H579.463ZM607.342 71.5469L588.261 97.4072L577.102 110.852L575.845 103.006L584.033 92.2656L598.963 71.5469H607.342ZM600.372 127L584.033 99.959L588.185 94.1318L608.713 127H600.372ZM644.856 121.021V127H620.786V121.021H644.856ZM622.043 71.5469V127H615.035V71.5469H622.043ZM641.619 95.3887V101.368H620.786V95.3887H641.619ZM644.476 71.5469V77.5645H620.786V71.5469H644.476ZM683.628 121.021V127H659.558V121.021H683.628ZM660.814 71.5469V127H653.807V71.5469H660.814ZM680.391 95.3887V101.368H659.558V95.3887H680.391ZM683.247 71.5469V77.5645H659.558V71.5469H683.247ZM710.25 105.253H698.139V99.2734H710.25C712.535 99.2734 714.376 98.8164 715.772 97.9023C717.194 96.9883 718.223 95.7188 718.857 94.0938C719.518 92.4688 719.848 90.6152 719.848 88.5332C719.848 86.6289 719.518 84.8389 718.857 83.1631C718.223 81.4873 717.194 80.1416 715.772 79.126C714.376 78.085 712.535 77.5645 710.25 77.5645H699.586V127H692.578V71.5469H710.25C713.83 71.5469 716.852 72.2705 719.314 73.7178C721.777 75.165 723.644 77.1709 724.913 79.7354C726.208 82.2744 726.855 85.1816 726.855 88.457C726.855 92.0117 726.208 95.0459 724.913 97.5596C723.644 100.073 721.777 101.99 719.314 103.311C716.852 104.605 713.83 105.253 710.25 105.253ZM770.045 71.5469V127H763.113V71.5469H770.045ZM784.632 71.5469V77.5645H748.564V71.5469H784.632ZM822.908 95.3887V101.368H798.876V95.3887H822.908ZM799.828 71.5469V127H792.82V71.5469H799.828ZM829.116 71.5469V127H822.108V71.5469H829.116ZM848.502 71.5469V127H841.494V71.5469H848.502ZM896.947 71.5469V127H889.901L867.697 84.2295V127H860.689V71.5469H867.697L890.016 114.432V71.5469H896.947ZM943.793 99.3877V120.068C943.184 120.881 942.257 121.896 941.013 123.115C939.794 124.334 938.08 125.413 935.871 126.353C933.662 127.292 930.768 127.762 927.188 127.762C924.318 127.762 921.69 127.279 919.304 126.314C916.942 125.35 914.898 123.902 913.172 121.973C911.471 120.018 910.15 117.593 909.211 114.698C908.271 111.778 907.802 108.363 907.802 104.453V94.0557C907.802 90.1709 908.195 86.7686 908.982 83.8486C909.77 80.9287 910.938 78.5039 912.486 76.5742C914.061 74.6445 916.003 73.1973 918.313 72.2324C920.649 71.2676 923.366 70.7852 926.464 70.7852C930.044 70.7852 933.091 71.458 935.604 72.8037C938.118 74.1494 940.061 76.0918 941.432 78.6309C942.828 81.1699 943.615 84.2168 943.793 87.7715H936.785C936.607 85.4863 936.125 83.5312 935.338 81.9062C934.551 80.2559 933.434 78.999 931.986 78.1357C930.539 77.2471 928.698 76.8027 926.464 76.8027C924.331 76.8027 922.528 77.1582 921.056 77.8691C919.583 78.5801 918.377 79.6465 917.438 81.0684C916.523 82.4902 915.851 84.2803 915.419 86.4385C915.013 88.5967 914.81 91.1104 914.81 93.9795V104.453C914.81 107.398 915.102 109.963 915.686 112.146C916.27 114.33 917.095 116.133 918.161 117.555C919.253 118.977 920.561 120.043 922.084 120.754C923.607 121.439 925.321 121.782 927.226 121.782C929.384 121.782 931.085 121.554 932.329 121.097C933.573 120.64 934.525 120.119 935.186 119.535C935.871 118.951 936.417 118.481 936.823 118.126V105.329H926.654V99.3877H943.793ZM979.403 112.984C979.403 111.689 979.251 110.547 978.946 109.557C978.642 108.541 978.108 107.627 977.347 106.814C976.585 106.002 975.519 105.228 974.147 104.491C972.776 103.755 971.037 103.006 968.93 102.244C966.645 101.432 964.575 100.53 962.722 99.54C960.868 98.5244 959.281 97.3691 957.961 96.0742C956.666 94.7793 955.663 93.2939 954.952 91.6182C954.241 89.9424 953.886 88.0254 953.886 85.8672C953.886 83.709 954.254 81.7158 954.99 79.8877C955.752 78.0596 956.818 76.4727 958.189 75.127C959.586 73.7559 961.262 72.6895 963.217 71.9277C965.172 71.166 967.355 70.7852 969.768 70.7852C973.373 70.7852 976.407 71.585 978.87 73.1846C981.358 74.7588 983.237 76.8281 984.507 79.3926C985.776 81.9316 986.411 84.6484 986.411 87.543H979.403C979.403 85.4609 979.061 83.6201 978.375 82.0205C977.715 80.3955 976.674 79.126 975.252 78.2119C973.855 77.2725 972.027 76.8027 969.768 76.8027C967.736 76.8027 966.061 77.1963 964.74 77.9834C963.445 78.7705 962.48 79.8369 961.846 81.1826C961.236 82.5283 960.932 84.0645 960.932 85.791C960.932 86.959 961.135 88.0254 961.541 88.9902C961.947 89.9297 962.569 90.8057 963.407 91.6182C964.271 92.4307 965.337 93.1797 966.606 93.8652C967.901 94.5508 969.425 95.2109 971.177 95.8457C973.894 96.7344 976.217 97.7246 978.146 98.8164C980.076 99.9082 981.65 101.14 982.869 102.511C984.088 103.856 984.977 105.393 985.535 107.119C986.119 108.82 986.411 110.75 986.411 112.908C986.411 115.168 986.03 117.212 985.269 119.04C984.532 120.868 983.453 122.43 982.031 123.725C980.609 125.02 978.896 126.022 976.89 126.733C974.884 127.419 972.624 127.762 970.11 127.762C967.927 127.762 965.781 127.406 963.674 126.695C961.592 125.984 959.7 124.918 957.999 123.496C956.298 122.074 954.939 120.322 953.924 118.24C952.908 116.133 952.4 113.695 952.4 110.928H959.408C959.408 112.832 959.688 114.47 960.246 115.841C960.805 117.187 961.579 118.304 962.569 119.192C963.56 120.081 964.689 120.741 965.959 121.173C967.254 121.579 968.638 121.782 970.11 121.782C972.142 121.782 973.843 121.427 975.214 120.716C976.61 120.005 977.651 118.989 978.337 117.669C979.048 116.349 979.403 114.787 979.403 112.984Z" fill="white"/>
<path d="M524.022 280.162C523.278 280.162 522.624 280.06 522.06 279.856C521.508 279.64 520.944 279.358 520.368 279.01C520.44 278.554 520.482 278.098 520.494 277.642C520.518 277.186 520.53 276.79 520.53 276.454C520.662 276.418 520.818 276.394 520.998 276.382C521.178 276.358 521.346 276.346 521.502 276.346C521.538 276.958 521.646 277.486 521.826 277.93C522.018 278.362 522.312 278.698 522.708 278.938C523.116 279.178 523.638 279.298 524.274 279.298C525.102 279.298 525.69 279.118 526.038 278.758C526.398 278.386 526.578 277.942 526.578 277.426C526.578 276.898 526.434 276.466 526.146 276.13C525.858 275.782 525.486 275.488 525.03 275.248C524.574 275.008 524.088 274.774 523.572 274.546C523.068 274.318 522.588 274.054 522.132 273.754C521.676 273.454 521.304 273.082 521.016 272.638C520.728 272.182 520.584 271.606 520.584 270.91C520.584 270.238 520.728 269.662 521.016 269.182C521.316 268.69 521.736 268.318 522.276 268.066C522.816 267.802 523.458 267.67 524.202 267.67C524.622 267.67 525.018 267.706 525.39 267.778C525.774 267.85 526.122 267.946 526.434 268.066C526.746 268.186 527.004 268.318 527.208 268.462C527.208 268.81 527.214 269.212 527.226 269.668C527.238 270.124 527.268 270.514 527.316 270.838C527.184 270.886 527.022 270.928 526.83 270.964C526.65 270.988 526.476 271 526.308 271C526.188 270.304 526.032 269.776 525.84 269.416C525.648 269.056 525.414 268.81 525.138 268.678C524.862 268.534 524.544 268.462 524.184 268.462C523.548 268.462 523.05 268.618 522.69 268.93C522.33 269.242 522.15 269.68 522.15 270.244C522.15 270.772 522.294 271.21 522.582 271.558C522.87 271.906 523.242 272.206 523.698 272.458C524.154 272.71 524.634 272.956 525.138 273.196C525.642 273.424 526.122 273.688 526.578 273.988C527.034 274.276 527.406 274.636 527.694 275.068C527.982 275.5 528.126 276.046 528.126 276.706C528.126 277.306 527.982 277.87 527.694 278.398C527.406 278.926 526.962 279.352 526.362 279.676C525.762 280 524.982 280.162 524.022 280.162ZM533.863 280.162C533.047 280.162 532.333 279.988 531.721 279.64C531.109 279.28 530.635 278.782 530.299 278.146C529.963 277.498 529.795 276.742 529.795 275.878C529.795 275.062 529.969 274.33 530.317 273.682C530.665 273.034 531.145 272.524 531.757 272.152C532.369 271.78 533.071 271.594 533.863 271.594C534.715 271.594 535.441 271.774 536.041 272.134C536.653 272.494 537.121 272.998 537.445 273.646C537.769 274.282 537.931 275.026 537.931 275.878C537.931 276.694 537.757 277.426 537.409 278.074C537.073 278.722 536.599 279.232 535.987 279.604C535.387 279.976 534.679 280.162 533.863 280.162ZM534.007 279.298C534.727 279.298 535.261 279.004 535.609 278.416C535.957 277.816 536.131 277.042 536.131 276.094C536.131 275.35 536.017 274.708 535.789 274.168C535.573 273.616 535.279 273.196 534.907 272.908C534.535 272.608 534.127 272.458 533.683 272.458C532.987 272.458 532.465 272.74 532.117 273.304C531.781 273.868 531.613 274.6 531.613 275.5C531.613 276.304 531.709 276.994 531.901 277.57C532.105 278.134 532.387 278.566 532.747 278.866C533.107 279.154 533.527 279.298 534.007 279.298ZM549.675 278.596C549.351 279.112 548.949 279.502 548.469 279.766C547.989 280.03 547.407 280.162 546.723 280.162C546.111 280.162 545.517 280.006 544.941 279.694C544.377 279.37 543.909 278.896 543.537 278.272C543.165 277.636 542.979 276.85 542.979 275.914C542.979 275.194 543.123 274.504 543.411 273.844C543.699 273.184 544.119 272.644 544.671 272.224C545.235 271.804 545.919 271.594 546.723 271.594C547.275 271.594 547.779 271.66 548.235 271.792C548.703 271.924 549.105 272.128 549.441 272.404C549.393 272.752 549.357 273.094 549.333 273.43C549.321 273.766 549.315 274.108 549.315 274.456C549.219 274.504 549.087 274.54 548.919 274.564C548.763 274.588 548.619 274.6 548.487 274.6C548.415 273.904 548.211 273.37 547.875 272.998C547.539 272.626 547.107 272.44 546.579 272.44C545.991 272.44 545.523 272.716 545.175 273.268C544.827 273.82 544.653 274.612 544.653 275.644C544.653 276.244 544.749 276.814 544.941 277.354C545.145 277.882 545.439 278.314 545.823 278.65C546.207 278.974 546.675 279.136 547.227 279.136C547.611 279.136 547.971 279.046 548.307 278.866C548.655 278.686 548.961 278.428 549.225 278.092C549.321 278.14 549.411 278.212 549.495 278.308C549.579 278.392 549.639 278.488 549.675 278.596ZM550.501 280.054C550.501 279.934 550.507 279.808 550.519 279.676C550.531 279.532 550.555 279.4 550.591 279.28C551.071 279.28 551.395 279.172 551.563 278.956C551.743 278.728 551.833 278.314 551.833 277.714V269.65C551.833 269.362 551.803 269.128 551.743 268.948C551.695 268.756 551.575 268.612 551.383 268.516C551.191 268.42 550.891 268.372 550.483 268.372C550.483 268.24 550.495 268.12 550.519 268.012C550.543 267.904 550.585 267.802 550.645 267.706C550.825 267.706 551.077 267.676 551.401 267.616C551.737 267.556 552.061 267.478 552.373 267.382C552.685 267.286 552.913 267.19 553.057 267.094C553.165 267.13 553.255 267.202 553.327 267.31C553.411 267.418 553.453 267.586 553.453 267.814V277.714C553.453 278.314 553.531 278.728 553.687 278.956C553.855 279.172 554.131 279.28 554.515 279.28C554.551 279.4 554.575 279.538 554.587 279.694C554.599 279.85 554.605 279.97 554.605 280.054C554.401 280.042 554.185 280.03 553.957 280.018C553.729 280.018 553.495 280.012 553.255 280C553.027 280 552.799 280 552.571 280C552.343 280 552.103 280 551.851 280C551.611 280.012 551.377 280.018 551.149 280.018C550.921 280.03 550.705 280.042 550.501 280.054ZM559.767 280.162C558.915 280.162 558.207 279.97 557.643 279.586C557.079 279.202 556.653 278.686 556.365 278.038C556.089 277.378 555.951 276.658 555.951 275.878C555.951 275.11 556.101 274.402 556.401 273.754C556.701 273.106 557.127 272.584 557.679 272.188C558.243 271.792 558.909 271.594 559.677 271.594C560.457 271.594 561.081 271.762 561.549 272.098C562.029 272.434 562.383 272.884 562.611 273.448C562.851 274.012 562.995 274.636 563.043 275.32C562.995 275.56 562.905 275.764 562.773 275.932C562.569 275.932 562.263 275.932 561.855 275.932C561.447 275.932 560.985 275.938 560.469 275.95C559.953 275.95 559.425 275.962 558.885 275.986C558.345 275.998 557.835 276.016 557.355 276.04V275.122H561.171C561.171 274.33 561.027 273.688 560.739 273.196C560.451 272.704 560.043 272.458 559.515 272.458C559.227 272.458 558.945 272.548 558.669 272.728C558.393 272.896 558.165 273.202 557.985 273.646C557.805 274.078 557.715 274.696 557.715 275.5C557.715 276.088 557.787 276.664 557.931 277.228C558.087 277.78 558.351 278.242 558.723 278.614C559.107 278.974 559.647 279.154 560.343 279.154C560.739 279.154 561.129 279.064 561.513 278.884C561.897 278.704 562.239 278.446 562.539 278.11C562.635 278.158 562.725 278.242 562.809 278.362C562.905 278.47 562.959 278.572 562.971 278.668C562.563 279.208 562.089 279.592 561.549 279.82C561.021 280.048 560.427 280.162 559.767 280.162ZM569.931 280.162C569.799 280.102 569.691 279.994 569.607 279.838C569.535 279.682 569.499 279.436 569.499 279.1C569.499 278.992 569.505 278.866 569.517 278.722C569.529 278.566 569.553 278.428 569.589 278.308H569.625C569.589 278.5 569.505 278.71 569.373 278.938C569.253 279.154 569.091 279.346 568.887 279.514C568.683 279.694 568.425 279.844 568.113 279.964C567.801 280.072 567.423 280.126 566.979 280.126C566.223 280.126 565.647 279.958 565.251 279.622C564.855 279.274 564.657 278.806 564.657 278.218C564.657 277.75 564.765 277.354 564.981 277.03C565.209 276.694 565.497 276.418 565.845 276.202C566.205 275.974 566.589 275.794 566.997 275.662C567.417 275.53 567.825 275.428 568.221 275.356C568.617 275.284 568.965 275.224 569.265 275.176C569.265 274.684 569.253 274.3 569.229 274.024C569.217 273.748 569.181 273.532 569.121 273.376C569.073 273.208 568.995 273.064 568.887 272.944C568.743 272.764 568.575 272.632 568.383 272.548C568.203 272.452 567.999 272.404 567.771 272.404C567.375 272.404 567.063 272.53 566.835 272.782C566.607 273.022 566.445 273.304 566.349 273.628C566.253 273.952 566.199 274.24 566.187 274.492C566.055 274.492 565.887 274.486 565.683 274.474C565.491 274.45 565.347 274.414 565.251 274.366C565.275 274.066 565.281 273.73 565.269 273.358C565.257 272.986 565.221 272.668 565.161 272.404C565.653 272.152 566.169 271.954 566.709 271.81C567.261 271.666 567.765 271.594 568.221 271.594C568.665 271.594 569.043 271.66 569.355 271.792C569.679 271.912 569.937 272.074 570.129 272.278C570.441 272.578 570.645 272.974 570.741 273.466C570.837 273.946 570.885 274.588 570.885 275.392V277.372C570.885 277.708 570.909 277.978 570.957 278.182C571.017 278.374 571.125 278.518 571.281 278.614C571.437 278.698 571.677 278.752 572.001 278.776C572.001 278.896 571.995 279.034 571.983 279.19C571.971 279.334 571.941 279.472 571.893 279.604C571.593 279.616 571.257 279.676 570.885 279.784C570.525 279.88 570.207 280.006 569.931 280.162ZM567.483 279.136C567.747 279.136 568.017 279.052 568.293 278.884C568.569 278.704 568.797 278.428 568.977 278.056C569.169 277.684 569.265 277.198 569.265 276.598V275.914C568.965 275.95 568.647 276.004 568.311 276.076C567.975 276.136 567.663 276.232 567.375 276.364C567.087 276.496 566.853 276.682 566.673 276.922C566.493 277.15 566.403 277.462 566.403 277.858C566.403 278.302 566.511 278.626 566.727 278.83C566.943 279.034 567.195 279.136 567.483 279.136ZM574.72 276.148V274.15C574.72 273.862 574.69 273.628 574.63 273.448C574.57 273.268 574.444 273.13 574.252 273.034C574.06 272.938 573.766 272.884 573.37 272.872C573.37 272.74 573.382 272.62 573.406 272.512C573.43 272.404 573.472 272.302 573.532 272.206C573.904 272.182 574.33 272.11 574.81 271.99C575.29 271.87 575.668 271.738 575.944 271.594C576.052 271.63 576.142 271.708 576.214 271.828C576.298 271.936 576.34 272.122 576.34 272.386L574.72 276.148ZM581.668 277.714C581.668 278.338 581.752 278.758 581.92 278.974C582.1 279.178 582.37 279.28 582.73 279.28C582.766 279.388 582.79 279.502 582.802 279.622C582.814 279.742 582.82 279.886 582.82 280.054C582.556 280.03 582.256 280.012 581.92 280C581.584 280 581.23 280 580.858 280C580.618 280 580.366 280 580.102 280C579.838 280.012 579.586 280.018 579.346 280.018C579.118 280.03 578.908 280.042 578.716 280.054C578.716 279.886 578.722 279.742 578.734 279.622C578.746 279.49 578.77 279.376 578.806 279.28C579.238 279.28 579.55 279.172 579.742 278.956C579.946 278.728 580.048 278.314 580.048 277.714V274.978C580.048 274.126 579.892 273.55 579.58 273.25C579.268 272.938 578.866 272.782 578.374 272.782C578.062 272.782 577.75 272.884 577.438 273.088C577.126 273.28 576.862 273.598 576.646 274.042C576.442 274.474 576.34 275.056 576.34 275.788V277.714C576.34 278.314 576.43 278.728 576.61 278.956C576.79 279.172 577.114 279.28 577.582 279.28C577.618 279.388 577.642 279.502 577.654 279.622C577.666 279.742 577.672 279.886 577.672 280.054C577.504 280.042 577.3 280.03 577.06 280.018C576.82 280.018 576.568 280.012 576.304 280C576.04 280 575.782 280 575.53 280C575.29 280 575.038 280 574.774 280C574.51 280.012 574.258 280.018 574.018 280.018C573.778 280.03 573.568 280.042 573.388 280.054C573.388 279.886 573.394 279.742 573.406 279.622C573.418 279.49 573.442 279.376 573.478 279.28C573.946 279.28 574.27 279.172 574.45 278.956C574.63 278.728 574.72 278.314 574.72 277.714V274.15L576.34 272.386C576.34 272.53 576.334 272.692 576.322 272.872C576.31 273.052 576.274 273.244 576.214 273.448C576.25 273.388 576.286 273.322 576.322 273.25C576.358 273.166 576.412 273.076 576.484 272.98C576.688 272.704 577.012 272.422 577.456 272.134C577.912 271.834 578.458 271.684 579.094 271.684C579.55 271.684 579.97 271.78 580.354 271.972C580.75 272.152 581.068 272.458 581.308 272.89C581.548 273.31 581.668 273.886 581.668 274.618V277.714ZM593.343 274.636C593.655 273.868 593.727 273.346 593.559 273.07C593.403 272.782 593.061 272.59 592.533 272.494C592.485 272.362 592.449 272.236 592.425 272.116C592.413 271.984 592.407 271.852 592.407 271.72C592.683 271.732 592.965 271.744 593.253 271.756C593.541 271.756 593.853 271.756 594.189 271.756C594.525 271.756 594.843 271.756 595.143 271.756C595.443 271.744 595.725 271.732 595.989 271.72C595.989 271.84 595.983 271.966 595.971 272.098C595.971 272.23 595.941 272.362 595.881 272.494C595.665 272.542 595.479 272.626 595.323 272.746C595.179 272.866 595.041 273.052 594.909 273.304C594.777 273.556 594.615 273.91 594.423 274.366L591.777 280.666C591.441 281.482 591.135 282.142 590.859 282.646C590.595 283.15 590.343 283.534 590.103 283.798C589.875 284.062 589.641 284.242 589.401 284.338C589.173 284.434 588.921 284.482 588.645 284.482C588.285 284.482 587.997 284.434 587.781 284.338C587.577 284.242 587.415 284.152 587.295 284.068C587.247 283.888 587.229 283.66 587.241 283.384C587.253 283.12 587.277 282.91 587.313 282.754C587.517 282.79 587.715 282.814 587.907 282.826C588.099 282.85 588.285 282.862 588.465 282.862C588.813 282.862 589.143 282.778 589.455 282.61C589.779 282.442 590.055 282.172 590.283 281.8C590.451 281.548 590.703 281.05 591.039 280.306C591.375 279.574 591.729 278.728 592.101 277.768L593.343 274.636ZM591.237 280.378C590.949 279.742 590.643 279.076 590.319 278.38C590.007 277.672 589.707 276.994 589.419 276.346C589.131 275.698 588.879 275.152 588.663 274.708C588.387 274.108 588.153 273.658 587.961 273.358C587.781 273.058 587.607 272.848 587.439 272.728C587.283 272.608 587.103 272.53 586.899 272.494C586.863 272.386 586.833 272.266 586.809 272.134C586.797 272.002 586.791 271.864 586.791 271.72C587.139 271.732 587.487 271.744 587.835 271.756C588.183 271.756 588.513 271.756 588.825 271.756C589.137 271.756 589.521 271.756 589.977 271.756C590.433 271.744 590.847 271.732 591.219 271.72C591.219 271.876 591.207 272.02 591.183 272.152C591.171 272.272 591.141 272.386 591.093 272.494C590.445 272.602 590.073 272.794 589.977 273.07C589.881 273.334 589.995 273.802 590.319 274.474C590.487 274.822 590.679 275.242 590.895 275.734C591.111 276.214 591.321 276.7 591.525 277.192C591.729 277.672 591.903 278.098 592.047 278.47L591.237 280.378ZM600.871 280.162C600.055 280.162 599.341 279.988 598.729 279.64C598.117 279.28 597.643 278.782 597.307 278.146C596.971 277.498 596.803 276.742 596.803 275.878C596.803 275.062 596.977 274.33 597.325 273.682C597.673 273.034 598.153 272.524 598.765 272.152C599.377 271.78 600.079 271.594 600.871 271.594C601.723 271.594 602.449 271.774 603.049 272.134C603.661 272.494 604.129 272.998 604.453 273.646C604.777 274.282 604.939 275.026 604.939 275.878C604.939 276.694 604.765 277.426 604.417 278.074C604.081 278.722 603.607 279.232 602.995 279.604C602.395 279.976 601.687 280.162 600.871 280.162ZM601.015 279.298C601.735 279.298 602.269 279.004 602.617 278.416C602.965 277.816 603.139 277.042 603.139 276.094C603.139 275.35 603.025 274.708 602.797 274.168C602.581 273.616 602.287 273.196 601.915 272.908C601.543 272.608 601.135 272.458 600.691 272.458C599.995 272.458 599.473 272.74 599.125 273.304C598.789 273.868 598.621 274.6 598.621 275.5C598.621 276.304 598.717 276.994 598.909 277.57C599.113 278.134 599.395 278.566 599.755 278.866C600.115 279.154 600.535 279.298 601.015 279.298ZM609.713 280.072C608.909 280.072 608.279 279.838 607.823 279.37C607.367 278.902 607.139 278.068 607.139 276.868V274.15C607.139 273.73 607.079 273.418 606.959 273.214C606.839 272.998 606.503 272.884 605.951 272.872C605.951 272.74 605.957 272.626 605.969 272.53C605.993 272.422 606.029 272.314 606.077 272.206C606.449 272.182 606.851 272.11 607.283 271.99C607.727 271.87 608.087 271.738 608.363 271.594C608.471 271.63 608.561 271.708 608.633 271.828C608.717 271.936 608.759 272.122 608.759 272.386V276.472C608.759 277.276 608.867 277.894 609.083 278.326C609.311 278.758 609.701 278.974 610.253 278.974C610.853 278.974 611.351 278.722 611.747 278.218C612.155 277.714 612.359 276.94 612.359 275.896V274.06C612.359 273.64 612.281 273.328 612.125 273.124C611.981 272.908 611.609 272.794 611.009 272.782C611.009 272.65 611.015 272.536 611.027 272.44C611.039 272.332 611.075 272.224 611.135 272.116C611.603 272.092 612.059 272.032 612.503 271.936C612.959 271.828 613.319 271.714 613.583 271.594C613.691 271.63 613.781 271.708 613.853 271.828C613.937 271.936 613.979 272.122 613.979 272.386V277.606L612.575 278.272C612.515 278.428 612.431 278.584 612.323 278.74C612.215 278.884 612.095 279.022 611.963 279.154C611.651 279.466 611.321 279.7 610.973 279.856C610.625 280 610.205 280.072 609.713 280.072ZM612.935 280.162C612.815 280.102 612.707 280.018 612.611 279.91C612.527 279.79 612.485 279.526 612.485 279.118C612.485 278.986 612.491 278.8 612.503 278.56C612.527 278.32 612.581 277.984 612.665 277.552H613.979C613.979 277.828 614.003 278.062 614.051 278.254C614.099 278.434 614.201 278.566 614.357 278.65C614.525 278.734 614.771 278.776 615.095 278.776C615.095 278.896 615.089 279.034 615.077 279.19C615.065 279.334 615.035 279.472 614.987 279.604C614.687 279.616 614.339 279.676 613.943 279.784C613.547 279.88 613.211 280.006 612.935 280.162ZM617.415 267.13C617.619 267.214 617.769 267.364 617.865 267.58C617.973 267.796 618.027 268.078 618.027 268.426C618.027 269.086 617.913 269.662 617.685 270.154C617.457 270.646 617.127 271.138 616.695 271.63C616.575 271.63 616.443 271.612 616.299 271.576C616.155 271.528 616.047 271.468 615.975 271.396C616.287 270.976 616.479 270.658 616.551 270.442C616.635 270.214 616.677 269.95 616.677 269.65C616.677 269.398 616.605 269.194 616.461 269.038C616.329 268.882 616.119 268.786 615.831 268.75C615.831 268.63 615.843 268.462 615.867 268.246C615.891 268.018 615.927 267.826 615.975 267.67C616.251 267.61 616.509 267.538 616.749 267.454C617.001 267.358 617.223 267.25 617.415 267.13ZM619.758 280.054C619.758 279.934 619.764 279.808 619.776 279.676C619.788 279.532 619.812 279.4 619.848 279.28C620.328 279.28 620.652 279.172 620.82 278.956C621 278.728 621.09 278.314 621.09 277.714V269.65C621.09 269.362 621.06 269.128 621 268.948C620.952 268.756 620.832 268.612 620.64 268.516C620.448 268.42 620.148 268.372 619.74 268.372C619.74 268.24 619.752 268.12 619.776 268.012C619.8 267.904 619.842 267.802 619.902 267.706C620.082 267.706 620.334 267.676 620.658 267.616C620.994 267.556 621.318 267.478 621.63 267.382C621.942 267.286 622.17 267.19 622.314 267.094C622.422 267.13 622.512 267.202 622.584 267.31C622.668 267.418 622.71 267.586 622.71 267.814V277.714C622.71 278.314 622.788 278.728 622.944 278.956C623.112 279.172 623.388 279.28 623.772 279.28C623.808 279.4 623.832 279.538 623.844 279.694C623.856 279.85 623.862 279.97 623.862 280.054C623.658 280.042 623.442 280.03 623.214 280.018C622.986 280.018 622.752 280.012 622.512 280C622.284 280 622.056 280 621.828 280C621.6 280 621.36 280 621.108 280C620.868 280.012 620.634 280.018 620.406 280.018C620.178 280.03 619.962 280.042 619.758 280.054ZM625.137 280.054C625.137 279.934 625.143 279.808 625.155 279.676C625.167 279.532 625.191 279.4 625.227 279.28C625.707 279.28 626.031 279.172 626.199 278.956C626.379 278.728 626.469 278.314 626.469 277.714V269.65C626.469 269.362 626.439 269.128 626.379 268.948C626.331 268.756 626.211 268.612 626.019 268.516C625.827 268.42 625.527 268.372 625.119 268.372C625.119 268.24 625.131 268.12 625.155 268.012C625.179 267.904 625.221 267.802 625.281 267.706C625.461 267.706 625.713 267.676 626.037 267.616C626.373 267.556 626.697 267.478 627.009 267.382C627.321 267.286 627.549 267.19 627.693 267.094C627.801 267.13 627.891 267.202 627.963 267.31C628.047 267.418 628.089 267.586 628.089 267.814V277.714C628.089 278.314 628.167 278.728 628.323 278.956C628.491 279.172 628.767 279.28 629.151 279.28C629.187 279.4 629.211 279.538 629.223 279.694C629.235 279.85 629.241 279.97 629.241 280.054C629.037 280.042 628.821 280.03 628.593 280.018C628.365 280.018 628.131 280.012 627.891 280C627.663 280 627.435 280 627.207 280C626.979 280 626.739 280 626.487 280C626.247 280.012 626.013 280.018 625.785 280.018C625.557 280.03 625.341 280.042 625.137 280.054ZM637.342 284.482C636.61 284.482 636.01 284.386 635.542 284.194C635.086 284.014 634.75 283.744 634.534 283.384C634.318 283.024 634.21 282.58 634.21 282.052C634.21 281.596 634.33 281.2 634.57 280.864C634.822 280.528 635.17 280.264 635.614 280.072L636.514 280.144C636.226 280.36 636.028 280.588 635.92 280.828C635.812 281.068 635.758 281.35 635.758 281.674C635.758 282.286 635.908 282.748 636.208 283.06C636.52 283.372 637.042 283.528 637.774 283.528C638.566 283.528 639.184 283.33 639.628 282.934C640.084 282.538 640.312 282.082 640.312 281.566C640.312 281.254 640.234 281.008 640.078 280.828C639.934 280.648 639.646 280.516 639.214 280.432C638.794 280.348 638.17 280.306 637.342 280.306C636.802 280.306 636.358 280.276 636.01 280.216C635.674 280.168 635.404 280.084 635.2 279.964C635.008 279.832 634.87 279.67 634.786 279.478C634.714 279.286 634.678 279.052 634.678 278.776C634.678 278.38 634.792 277.996 635.02 277.624C635.26 277.24 635.566 276.898 635.938 276.598L636.604 277.066C636.364 277.27 636.19 277.462 636.082 277.642C635.986 277.822 635.938 277.978 635.938 278.11C635.938 278.326 635.992 278.488 636.1 278.596C636.22 278.704 636.466 278.776 636.838 278.812C637.21 278.848 637.78 278.866 638.548 278.866C639.352 278.866 639.988 278.932 640.456 279.064C640.936 279.196 641.278 279.406 641.482 279.694C641.698 279.982 641.806 280.372 641.806 280.864C641.806 281.272 641.692 281.686 641.464 282.106C641.248 282.538 640.942 282.928 640.546 283.276C640.15 283.636 639.676 283.924 639.124 284.14C638.584 284.368 637.99 284.482 637.342 284.482ZM637.774 277.498C637.21 277.498 636.676 277.39 636.172 277.174C635.668 276.958 635.26 276.634 634.948 276.202C634.648 275.77 634.498 275.23 634.498 274.582C634.498 274.03 634.618 273.532 634.858 273.088C635.098 272.632 635.458 272.272 635.938 272.008C636.43 271.732 637.03 271.594 637.738 271.594C638.338 271.594 638.842 271.696 639.25 271.9C639.67 272.092 640.012 272.344 640.276 272.656C640.54 272.956 640.732 273.274 640.852 273.61C640.972 273.934 641.032 274.222 641.032 274.474C641.032 275.026 640.906 275.536 640.654 276.004C640.414 276.46 640.048 276.826 639.556 277.102C639.076 277.366 638.482 277.498 637.774 277.498ZM637.99 276.67C638.386 276.67 638.71 276.508 638.962 276.184C639.214 275.848 639.34 275.368 639.34 274.744C639.34 274.108 639.184 273.562 638.872 273.106C638.56 272.638 638.122 272.404 637.558 272.404C637.078 272.404 636.724 272.608 636.496 273.016C636.268 273.412 636.154 273.856 636.154 274.348C636.154 275.092 636.316 275.668 636.64 276.076C636.964 276.472 637.414 276.67 637.99 276.67ZM641.95 272.872C641.758 272.824 641.524 272.776 641.248 272.728C640.984 272.68 640.72 272.638 640.456 272.602C640.204 272.566 639.988 272.542 639.808 272.53L638.548 271.756H641.824C641.872 271.912 641.902 272.092 641.914 272.296C641.938 272.488 641.95 272.68 641.95 272.872ZM647.453 280.162C646.637 280.162 645.923 279.988 645.311 279.64C644.699 279.28 644.225 278.782 643.889 278.146C643.553 277.498 643.385 276.742 643.385 275.878C643.385 275.062 643.559 274.33 643.907 273.682C644.255 273.034 644.735 272.524 645.347 272.152C645.959 271.78 646.661 271.594 647.453 271.594C648.305 271.594 649.031 271.774 649.631 272.134C650.243 272.494 650.711 272.998 651.035 273.646C651.359 274.282 651.521 275.026 651.521 275.878C651.521 276.694 651.347 277.426 650.999 278.074C650.663 278.722 650.189 279.232 649.577 279.604C648.977 279.976 648.269 280.162 647.453 280.162ZM647.597 279.298C648.317 279.298 648.851 279.004 649.199 278.416C649.547 277.816 649.721 277.042 649.721 276.094C649.721 275.35 649.607 274.708 649.379 274.168C649.163 273.616 648.869 273.196 648.497 272.908C648.125 272.608 647.717 272.458 647.273 272.458C646.577 272.458 646.055 272.74 645.707 273.304C645.371 273.868 645.203 274.6 645.203 275.5C645.203 276.304 645.299 276.994 645.491 277.57C645.695 278.134 645.977 278.566 646.337 278.866C646.697 279.154 647.117 279.298 647.597 279.298ZM663.265 278.596C662.941 279.112 662.539 279.502 662.059 279.766C661.579 280.03 660.997 280.162 660.313 280.162C659.701 280.162 659.107 280.006 658.531 279.694C657.967 279.37 657.499 278.896 657.127 278.272C656.755 277.636 656.569 276.85 656.569 275.914C656.569 275.194 656.713 274.504 657.001 273.844C657.289 273.184 657.709 272.644 658.261 272.224C658.825 271.804 659.509 271.594 660.313 271.594C660.865 271.594 661.369 271.66 661.825 271.792C662.293 271.924 662.695 272.128 663.031 272.404C662.983 272.752 662.947 273.094 662.923 273.43C662.911 273.766 662.905 274.108 662.905 274.456C662.809 274.504 662.677 274.54 662.509 274.564C662.353 274.588 662.209 274.6 662.077 274.6C662.005 273.904 661.801 273.37 661.465 272.998C661.129 272.626 660.697 272.44 660.169 272.44C659.581 272.44 659.113 272.716 658.765 273.268C658.417 273.82 658.243 274.612 658.243 275.644C658.243 276.244 658.339 276.814 658.531 277.354C658.735 277.882 659.029 278.314 659.413 278.65C659.797 278.974 660.265 279.136 660.817 279.136C661.201 279.136 661.561 279.046 661.897 278.866C662.245 278.686 662.551 278.428 662.815 278.092C662.911 278.14 663.001 278.212 663.085 278.308C663.169 278.392 663.229 278.488 663.265 278.596ZM667.517 277.354C667.517 277.87 667.571 278.266 667.679 278.542C667.787 278.806 667.961 278.992 668.201 279.1C668.441 279.196 668.747 279.256 669.119 279.28C669.155 279.376 669.179 279.49 669.191 279.622C669.203 279.742 669.209 279.886 669.209 280.054C669.029 280.042 668.813 280.03 668.561 280.018C668.321 280.018 668.063 280.012 667.787 280C667.511 280 667.229 280 666.941 280C666.521 280 666.077 280 665.609 280C665.153 280.012 664.805 280.03 664.565 280.054C664.565 279.886 664.571 279.742 664.583 279.622C664.595 279.49 664.619 279.376 664.655 279.28C664.979 279.256 665.231 279.202 665.411 279.118C665.591 279.022 665.717 278.866 665.789 278.65C665.861 278.422 665.897 278.11 665.897 277.714V275.914H667.517V277.354ZM667.517 274.726V276.148H665.897V274.15L667.517 272.386C667.517 272.794 667.481 273.166 667.409 273.502C667.337 273.826 667.271 274.15 667.211 274.474L667.517 274.726ZM667.121 274.582C667.253 274.246 667.355 273.97 667.427 273.754C667.499 273.538 667.577 273.358 667.661 273.214C667.925 272.794 668.237 272.446 668.597 272.17C668.957 271.894 669.371 271.756 669.839 271.756C670.295 271.756 670.709 271.9 671.081 272.188C671.057 272.38 671.033 272.602 671.009 272.854C670.985 273.106 670.967 273.358 670.955 273.61C670.955 273.862 670.955 274.096 670.955 274.312C670.847 274.348 670.697 274.384 670.505 274.42C670.325 274.456 670.133 274.474 669.929 274.474C669.905 273.898 669.809 273.52 669.641 273.34C669.485 273.16 669.287 273.07 669.047 273.07C668.843 273.07 668.621 273.19 668.381 273.43C668.141 273.658 667.937 273.964 667.769 274.348C667.601 274.732 667.517 275.158 667.517 275.626L667.121 274.582ZM665.897 276.148V274.15C665.897 273.862 665.867 273.628 665.807 273.448C665.747 273.268 665.621 273.13 665.429 273.034C665.237 272.938 664.943 272.884 664.547 272.872C664.547 272.74 664.559 272.62 664.583 272.512C664.607 272.404 664.649 272.302 664.709 272.206C665.081 272.182 665.507 272.11 665.987 271.99C666.467 271.87 666.845 271.738 667.121 271.594C667.229 271.63 667.319 271.708 667.391 271.828C667.475 271.936 667.517 272.122 667.517 272.386L665.897 276.148ZM677.614 280.162C677.482 280.102 677.374 279.994 677.29 279.838C677.218 279.682 677.182 279.436 677.182 279.1C677.182 278.992 677.188 278.866 677.2 278.722C677.212 278.566 677.236 278.428 677.272 278.308H677.308C677.272 278.5 677.188 278.71 677.056 278.938C676.936 279.154 676.774 279.346 676.57 279.514C676.366 279.694 676.108 279.844 675.796 279.964C675.484 280.072 675.106 280.126 674.662 280.126C673.906 280.126 673.33 279.958 672.934 279.622C672.538 279.274 672.34 278.806 672.34 278.218C672.34 277.75 672.448 277.354 672.664 277.03C672.892 276.694 673.18 276.418 673.528 276.202C673.888 275.974 674.272 275.794 674.68 275.662C675.1 275.53 675.508 275.428 675.904 275.356C676.3 275.284 676.648 275.224 676.948 275.176C676.948 274.684 676.936 274.3 676.912 274.024C676.9 273.748 676.864 273.532 676.804 273.376C676.756 273.208 676.678 273.064 676.57 272.944C676.426 272.764 676.258 272.632 676.066 272.548C675.886 272.452 675.682 272.404 675.454 272.404C675.058 272.404 674.746 272.53 674.518 272.782C674.29 273.022 674.128 273.304 674.032 273.628C673.936 273.952 673.882 274.24 673.87 274.492C673.738 274.492 673.57 274.486 673.366 274.474C673.174 274.45 673.03 274.414 672.934 274.366C672.958 274.066 672.964 273.73 672.952 273.358C672.94 272.986 672.904 272.668 672.844 272.404C673.336 272.152 673.852 271.954 674.392 271.81C674.944 271.666 675.448 271.594 675.904 271.594C676.348 271.594 676.726 271.66 677.038 271.792C677.362 271.912 677.62 272.074 677.812 272.278C678.124 272.578 678.328 272.974 678.424 273.466C678.52 273.946 678.568 274.588 678.568 275.392V277.372C678.568 277.708 678.592 277.978 678.64 278.182C678.7 278.374 678.808 278.518 678.964 278.614C679.12 278.698 679.36 278.752 679.684 278.776C679.684 278.896 679.678 279.034 679.666 279.19C679.654 279.334 679.624 279.472 679.576 279.604C679.276 279.616 678.94 279.676 678.568 279.784C678.208 279.88 677.89 280.006 677.614 280.162ZM675.166 279.136C675.43 279.136 675.7 279.052 675.976 278.884C676.252 278.704 676.48 278.428 676.66 278.056C676.852 277.684 676.948 277.198 676.948 276.598V275.914C676.648 275.95 676.33 276.004 675.994 276.076C675.658 276.136 675.346 276.232 675.058 276.364C674.77 276.496 674.536 276.682 674.356 276.922C674.176 277.15 674.086 277.462 674.086 277.858C674.086 278.302 674.194 278.626 674.41 278.83C674.626 279.034 674.878 279.136 675.166 279.136ZM681.611 280.036C681.527 279.952 681.455 279.85 681.395 279.73C681.347 279.598 681.323 279.46 681.323 279.316C681.575 278.968 681.875 278.548 682.223 278.056C682.583 277.552 682.961 277.024 683.357 276.472C683.753 275.908 684.137 275.362 684.509 274.834C684.893 274.294 685.235 273.808 685.535 273.376C685.835 272.932 686.063 272.584 686.219 272.332L686.579 272.548H684.419C683.987 272.548 683.645 272.596 683.393 272.692C683.141 272.788 682.943 272.974 682.799 273.25C682.667 273.526 682.541 273.928 682.421 274.456C682.277 274.456 682.115 274.444 681.935 274.42C681.767 274.396 681.617 274.36 681.485 274.312C681.521 273.916 681.551 273.496 681.575 273.052C681.599 272.608 681.611 272.158 681.611 271.702C681.863 271.714 682.175 271.726 682.547 271.738C682.919 271.738 683.315 271.744 683.735 271.756C684.155 271.756 684.545 271.756 684.905 271.756C685.265 271.756 685.643 271.756 686.039 271.756C686.447 271.744 686.831 271.738 687.191 271.738C687.563 271.726 687.863 271.714 688.091 271.702C688.175 271.798 688.235 271.918 688.271 272.062C688.307 272.206 688.325 272.344 688.325 272.476C688.013 272.92 687.635 273.454 687.191 274.078C686.747 274.702 686.285 275.35 685.805 276.022C685.325 276.682 684.863 277.312 684.419 277.912C683.987 278.512 683.615 279.01 683.303 279.406L683.159 279.19H685.751C686.183 279.19 686.519 279.142 686.759 279.046C686.999 278.95 687.173 278.764 687.281 278.488C687.401 278.2 687.479 277.768 687.515 277.192C687.659 277.192 687.809 277.198 687.965 277.21C688.121 277.222 688.289 277.252 688.469 277.3C688.469 277.492 688.475 277.738 688.487 278.038C688.499 278.326 688.511 278.62 688.523 278.92C688.547 279.22 688.577 279.478 688.613 279.694C688.505 279.922 688.313 280.036 688.037 280.036C687.737 280.024 687.437 280.018 687.137 280.018C686.849 280.018 686.519 280.012 686.147 280C685.787 280 685.343 280 684.815 280C684.023 280 683.369 280 682.853 280C682.349 280.012 681.935 280.024 681.611 280.036ZM696.245 274.636C696.557 273.868 696.629 273.346 696.461 273.07C696.305 272.782 695.963 272.59 695.435 272.494C695.387 272.362 695.351 272.236 695.327 272.116C695.315 271.984 695.309 271.852 695.309 271.72C695.585 271.732 695.867 271.744 696.155 271.756C696.443 271.756 696.755 271.756 697.091 271.756C697.427 271.756 697.745 271.756 698.045 271.756C698.345 271.744 698.627 271.732 698.891 271.72C698.891 271.84 698.885 271.966 698.873 272.098C698.873 272.23 698.843 272.362 698.783 272.494C698.567 272.542 698.381 272.626 698.225 272.746C698.081 272.866 697.943 273.052 697.811 273.304C697.679 273.556 697.517 273.91 697.325 274.366L694.679 280.666C694.343 281.482 694.037 282.142 693.761 282.646C693.497 283.15 693.245 283.534 693.005 283.798C692.777 284.062 692.543 284.242 692.303 284.338C692.075 284.434 691.823 284.482 691.547 284.482C691.187 284.482 690.899 284.434 690.683 284.338C690.479 284.242 690.317 284.152 690.197 284.068C690.149 283.888 690.131 283.66 690.143 283.384C690.155 283.12 690.179 282.91 690.215 282.754C690.419 282.79 690.617 282.814 690.809 282.826C691.001 282.85 691.187 282.862 691.367 282.862C691.715 282.862 692.045 282.778 692.357 282.61C692.681 282.442 692.957 282.172 693.185 281.8C693.353 281.548 693.605 281.05 693.941 280.306C694.277 279.574 694.631 278.728 695.003 277.768L696.245 274.636ZM694.139 280.378C693.851 279.742 693.545 279.076 693.221 278.38C692.909 277.672 692.609 276.994 692.321 276.346C692.033 275.698 691.781 275.152 691.565 274.708C691.289 274.108 691.055 273.658 690.863 273.358C690.683 273.058 690.509 272.848 690.341 272.728C690.185 272.608 690.005 272.53 689.801 272.494C689.765 272.386 689.735 272.266 689.711 272.134C689.699 272.002 689.693 271.864 689.693 271.72C690.041 271.732 690.389 271.744 690.737 271.756C691.085 271.756 691.415 271.756 691.727 271.756C692.039 271.756 692.423 271.756 692.879 271.756C693.335 271.744 693.749 271.732 694.121 271.72C694.121 271.876 694.109 272.02 694.085 272.152C694.073 272.272 694.043 272.386 693.995 272.494C693.347 272.602 692.975 272.794 692.879 273.07C692.783 273.334 692.897 273.802 693.221 274.474C693.389 274.822 693.581 275.242 693.797 275.734C694.013 276.214 694.223 276.7 694.427 277.192C694.631 277.672 694.805 278.098 694.949 278.47L694.139 280.378ZM705.545 280.162C705.341 279.586 705.137 279.022 704.933 278.47C704.741 277.906 704.537 277.354 704.321 276.814C704.117 276.262 703.907 275.716 703.691 275.176C703.487 274.636 703.277 274.096 703.061 273.556C702.929 273.22 702.791 272.98 702.647 272.836C702.515 272.692 702.317 272.578 702.053 272.494C702.005 272.374 701.975 272.242 701.963 272.098C701.951 271.954 701.945 271.828 701.945 271.72C702.185 271.732 702.437 271.744 702.701 271.756C702.977 271.756 703.313 271.756 703.709 271.756C704.105 271.756 704.459 271.75 704.771 271.738C705.083 271.726 705.389 271.714 705.689 271.702C705.689 271.822 705.683 271.96 705.671 272.116C705.659 272.272 705.635 272.398 705.599 272.494C705.263 272.53 705.023 272.59 704.879 272.674C704.747 272.758 704.681 272.872 704.681 273.016C704.693 273.16 704.741 273.346 704.825 273.574C705.101 274.27 705.389 275.032 705.689 275.86C705.989 276.688 706.259 277.456 706.499 278.164L706.265 278.182L708.749 271.756C708.845 271.732 708.959 271.714 709.091 271.702C709.223 271.69 709.349 271.684 709.469 271.684C709.865 272.596 710.297 273.628 710.765 274.78C711.245 275.932 711.707 277.078 712.151 278.218H711.899L713.033 274.816C713.225 274.228 713.309 273.778 713.285 273.466C713.273 273.142 713.183 272.908 713.015 272.764C712.847 272.62 712.613 272.53 712.313 272.494C712.265 272.362 712.223 272.23 712.187 272.098C712.163 271.954 712.151 271.822 712.151 271.702C712.379 271.714 712.637 271.726 712.925 271.738C713.213 271.75 713.489 271.756 713.753 271.756C714.077 271.756 714.371 271.75 714.635 271.738C714.899 271.726 715.133 271.714 715.337 271.702C715.337 271.858 715.325 271.996 715.301 272.116C715.289 272.236 715.253 272.362 715.193 272.494C715.013 272.542 714.857 272.632 714.725 272.764C714.605 272.884 714.479 273.1 714.347 273.412C714.227 273.724 714.065 274.174 713.861 274.762L712.043 280C711.971 280.036 711.893 280.066 711.809 280.09C711.725 280.114 711.635 280.132 711.539 280.144C711.443 280.156 711.335 280.162 711.215 280.162C710.939 279.442 710.639 278.704 710.315 277.948C710.003 277.18 709.691 276.424 709.379 275.68C709.067 274.936 708.761 274.234 708.461 273.574L709.019 273.268L706.337 280C706.277 280.036 706.211 280.066 706.139 280.09C706.067 280.114 705.983 280.132 705.887 280.144C705.791 280.156 705.677 280.162 705.545 280.162ZM720.226 280.162C719.41 280.162 718.696 279.988 718.084 279.64C717.472 279.28 716.998 278.782 716.662 278.146C716.326 277.498 716.158 276.742 716.158 275.878C716.158 275.062 716.332 274.33 716.68 273.682C717.028 273.034 717.508 272.524 718.12 272.152C718.732 271.78 719.434 271.594 720.226 271.594C721.078 271.594 721.804 271.774 722.404 272.134C723.016 272.494 723.484 272.998 723.808 273.646C724.132 274.282 724.294 275.026 724.294 275.878C724.294 276.694 724.12 277.426 723.772 278.074C723.436 278.722 722.962 279.232 722.35 279.604C721.75 279.976 721.042 280.162 720.226 280.162ZM720.37 279.298C721.09 279.298 721.624 279.004 721.972 278.416C722.32 277.816 722.494 277.042 722.494 276.094C722.494 275.35 722.38 274.708 722.152 274.168C721.936 273.616 721.642 273.196 721.27 272.908C720.898 272.608 720.49 272.458 720.046 272.458C719.35 272.458 718.828 272.74 718.48 273.304C718.144 273.868 717.976 274.6 717.976 275.5C717.976 276.304 718.072 276.994 718.264 277.57C718.468 278.134 718.75 278.566 719.11 278.866C719.47 279.154 719.89 279.298 720.37 279.298ZM727.017 276.148V274.15C727.017 273.862 726.987 273.628 726.927 273.448C726.867 273.268 726.741 273.13 726.549 273.034C726.357 272.938 726.063 272.884 725.667 272.872C725.667 272.74 725.679 272.62 725.703 272.512C725.727 272.404 725.769 272.302 725.829 272.206C726.201 272.182 726.627 272.11 727.107 271.99C727.587 271.87 727.965 271.738 728.241 271.594C728.349 271.63 728.439 271.708 728.511 271.828C728.595 271.936 728.637 272.122 728.637 272.386L727.017 276.148ZM733.965 277.714C733.965 278.338 734.049 278.758 734.217 278.974C734.397 279.178 734.667 279.28 735.027 279.28C735.063 279.388 735.087 279.502 735.099 279.622C735.111 279.742 735.117 279.886 735.117 280.054C734.853 280.03 734.553 280.012 734.217 280C733.881 280 733.527 280 733.155 280C732.915 280 732.663 280 732.399 280C732.135 280.012 731.883 280.018 731.643 280.018C731.415 280.03 731.205 280.042 731.013 280.054C731.013 279.886 731.019 279.742 731.031 279.622C731.043 279.49 731.067 279.376 731.103 279.28C731.535 279.28 731.847 279.172 732.039 278.956C732.243 278.728 732.345 278.314 732.345 277.714V274.978C732.345 274.126 732.189 273.55 731.877 273.25C731.565 272.938 731.163 272.782 730.671 272.782C730.359 272.782 730.047 272.884 729.735 273.088C729.423 273.28 729.159 273.598 728.943 274.042C728.739 274.474 728.637 275.056 728.637 275.788V277.714C728.637 278.314 728.727 278.728 728.907 278.956C729.087 279.172 729.411 279.28 729.879 279.28C729.915 279.388 729.939 279.502 729.951 279.622C729.963 279.742 729.969 279.886 729.969 280.054C729.801 280.042 729.597 280.03 729.357 280.018C729.117 280.018 728.865 280.012 728.601 280C728.337 280 728.079 280 727.827 280C727.587 280 727.335 280 727.071 280C726.807 280.012 726.555 280.018 726.315 280.018C726.075 280.03 725.865 280.042 725.685 280.054C725.685 279.886 725.691 279.742 725.703 279.622C725.715 279.49 725.739 279.376 725.775 279.28C726.243 279.28 726.567 279.172 726.747 278.956C726.927 278.728 727.017 278.314 727.017 277.714V274.15L728.637 272.386C728.637 272.53 728.631 272.692 728.619 272.872C728.607 273.052 728.571 273.244 728.511 273.448C728.547 273.388 728.583 273.322 728.619 273.25C728.655 273.166 728.709 273.076 728.781 272.98C728.985 272.704 729.309 272.422 729.753 272.134C730.209 271.834 730.755 271.684 731.391 271.684C731.847 271.684 732.267 271.78 732.651 271.972C733.047 272.152 733.365 272.458 733.605 272.89C733.845 273.31 733.965 273.886 733.965 274.618V277.714ZM740.961 271.594C741.309 271.594 741.609 271.624 741.861 271.684C742.125 271.744 742.407 271.822 742.707 271.918V273.304C742.467 273.052 742.203 272.842 741.915 272.674C741.639 272.506 741.291 272.422 740.871 272.422C740.619 272.422 740.343 272.476 740.043 272.584C739.755 272.68 739.473 272.854 739.197 273.106C738.921 273.358 738.693 273.712 738.513 274.168C738.345 274.624 738.261 275.212 738.261 275.932C738.261 276.7 738.375 277.312 738.603 277.768C738.831 278.212 739.101 278.536 739.413 278.74C739.725 278.932 740.013 279.028 740.277 279.028C740.637 279.028 740.979 278.92 741.303 278.704C741.639 278.476 741.915 278.11 742.131 277.606C742.347 277.102 742.455 276.43 742.455 275.59L742.977 277.498C742.821 277.882 742.683 278.176 742.563 278.38C742.455 278.584 742.371 278.734 742.311 278.83C742.203 279.01 742.029 279.202 741.789 279.406C741.561 279.61 741.279 279.79 740.943 279.946C740.619 280.09 740.253 280.162 739.845 280.162C739.149 280.162 738.549 280.024 738.045 279.748C737.541 279.46 737.151 279.022 736.875 278.434C736.611 277.846 736.479 277.09 736.479 276.166C736.479 275.326 736.665 274.564 737.037 273.88C737.409 273.184 737.931 272.632 738.603 272.224C739.275 271.804 740.061 271.594 740.961 271.594ZM744.075 277.552C744.075 277.828 744.099 278.062 744.147 278.254C744.195 278.434 744.297 278.566 744.453 278.65C744.621 278.734 744.867 278.776 745.191 278.776C745.191 278.896 745.185 279.034 745.173 279.19C745.161 279.334 745.131 279.472 745.083 279.604C744.783 279.616 744.435 279.676 744.039 279.784C743.643 279.88 743.307 280.006 743.031 280.162C742.911 280.102 742.803 280.018 742.707 279.91C742.623 279.79 742.581 279.526 742.581 279.118C742.581 278.878 742.599 278.668 742.635 278.488C742.683 278.296 742.749 277.984 742.833 277.552H744.075ZM744.075 269.65V277.714H742.455V269.65H744.075ZM743.679 267.094C743.787 267.13 743.877 267.202 743.949 267.31C744.033 267.418 744.075 267.586 744.075 267.814V270.316H742.455V269.65C742.455 269.362 742.425 269.128 742.365 268.948C742.317 268.756 742.197 268.612 742.005 268.516C741.813 268.42 741.513 268.372 741.105 268.372C741.105 268.24 741.117 268.12 741.141 268.012C741.165 267.904 741.207 267.802 741.267 267.706C741.447 267.706 741.699 267.676 742.023 267.616C742.347 267.556 742.665 267.478 742.977 267.382C743.301 267.286 743.535 267.19 743.679 267.094ZM750.455 280.162C749.603 280.162 748.895 279.97 748.331 279.586C747.767 279.202 747.341 278.686 747.053 278.038C746.777 277.378 746.639 276.658 746.639 275.878C746.639 275.11 746.789 274.402 747.089 273.754C747.389 273.106 747.815 272.584 748.367 272.188C748.931 271.792 749.597 271.594 750.365 271.594C751.145 271.594 751.769 271.762 752.237 272.098C752.717 272.434 753.071 272.884 753.299 273.448C753.539 274.012 753.683 274.636 753.731 275.32C753.683 275.56 753.593 275.764 753.461 275.932C753.257 275.932 752.951 275.932 752.543 275.932C752.135 275.932 751.673 275.938 751.157 275.95C750.641 275.95 750.113 275.962 749.573 275.986C749.033 275.998 748.523 276.016 748.043 276.04V275.122H751.859C751.859 274.33 751.715 273.688 751.427 273.196C751.139 272.704 750.731 272.458 750.203 272.458C749.915 272.458 749.633 272.548 749.357 272.728C749.081 272.896 748.853 273.202 748.673 273.646C748.493 274.078 748.403 274.696 748.403 275.5C748.403 276.088 748.475 276.664 748.619 277.228C748.775 277.78 749.039 278.242 749.411 278.614C749.795 278.974 750.335 279.154 751.031 279.154C751.427 279.154 751.817 279.064 752.201 278.884C752.585 278.704 752.927 278.446 753.227 278.11C753.323 278.158 753.413 278.242 753.497 278.362C753.593 278.47 753.647 278.572 753.659 278.668C753.251 279.208 752.777 279.592 752.237 279.82C751.709 280.048 751.115 280.162 750.455 280.162ZM758.062 277.354C758.062 277.87 758.116 278.266 758.224 278.542C758.332 278.806 758.506 278.992 758.746 279.1C758.986 279.196 759.292 279.256 759.664 279.28C759.7 279.376 759.724 279.49 759.736 279.622C759.748 279.742 759.754 279.886 759.754 280.054C759.574 280.042 759.358 280.03 759.106 280.018C758.866 280.018 758.608 280.012 758.332 280C758.056 280 757.774 280 757.486 280C757.066 280 756.622 280 756.154 280C755.698 280.012 755.35 280.03 755.11 280.054C755.11 279.886 755.116 279.742 755.128 279.622C755.14 279.49 755.164 279.376 755.2 279.28C755.524 279.256 755.776 279.202 755.956 279.118C756.136 279.022 756.262 278.866 756.334 278.65C756.406 278.422 756.442 278.11 756.442 277.714V275.914H758.062V277.354ZM758.062 274.726V276.148H756.442V274.15L758.062 272.386C758.062 272.794 758.026 273.166 757.954 273.502C757.882 273.826 757.816 274.15 757.756 274.474L758.062 274.726ZM757.666 274.582C757.798 274.246 757.9 273.97 757.972 273.754C758.044 273.538 758.122 273.358 758.206 273.214C758.47 272.794 758.782 272.446 759.142 272.17C759.502 271.894 759.916 271.756 760.384 271.756C760.84 271.756 761.254 271.9 761.626 272.188C761.602 272.38 761.578 272.602 761.554 272.854C761.53 273.106 761.512 273.358 761.5 273.61C761.5 273.862 761.5 274.096 761.5 274.312C761.392 274.348 761.242 274.384 761.05 274.42C760.87 274.456 760.678 274.474 760.474 274.474C760.45 273.898 760.354 273.52 760.186 273.34C760.03 273.16 759.832 273.07 759.592 273.07C759.388 273.07 759.166 273.19 758.926 273.43C758.686 273.658 758.482 273.964 758.314 274.348C758.146 274.732 758.062 275.158 758.062 275.626L757.666 274.582ZM756.442 276.148V274.15C756.442 273.862 756.412 273.628 756.352 273.448C756.292 273.268 756.166 273.13 755.974 273.034C755.782 272.938 755.488 272.884 755.092 272.872C755.092 272.74 755.104 272.62 755.128 272.512C755.152 272.404 755.194 272.302 755.254 272.206C755.626 272.182 756.052 272.11 756.532 271.99C757.012 271.87 757.39 271.738 757.666 271.594C757.774 271.63 757.864 271.708 757.936 271.828C758.02 271.936 758.062 272.122 758.062 272.386L756.442 276.148ZM762.651 280.054C762.651 279.934 762.657 279.808 762.669 279.676C762.681 279.532 762.705 279.4 762.741 279.28C763.221 279.28 763.545 279.172 763.713 278.956C763.893 278.728 763.983 278.314 763.983 277.714V274.15C763.983 273.862 763.953 273.628 763.893 273.448C763.845 273.256 763.725 273.112 763.533 273.016C763.341 272.92 763.041 272.872 762.633 272.872C762.633 272.74 762.645 272.62 762.669 272.512C762.693 272.404 762.735 272.302 762.795 272.206C762.975 272.206 763.227 272.176 763.551 272.116C763.887 272.056 764.211 271.978 764.523 271.882C764.835 271.786 765.063 271.69 765.207 271.594C765.315 271.63 765.405 271.702 765.477 271.81C765.561 271.918 765.603 272.086 765.603 272.314V277.714C765.603 278.314 765.681 278.728 765.837 278.956C766.005 279.172 766.281 279.28 766.665 279.28C766.701 279.4 766.725 279.538 766.737 279.694C766.749 279.85 766.755 279.97 766.755 280.054C766.551 280.042 766.335 280.03 766.107 280.018C765.879 280.018 765.645 280.012 765.405 280C765.177 280 764.949 280 764.721 280C764.493 280 764.253 280 764.001 280C763.761 280.012 763.527 280.018 763.299 280.018C763.071 280.03 762.855 280.042 762.651 280.054ZM764.649 269.56C764.349 269.56 764.097 269.458 763.893 269.254C763.689 269.05 763.587 268.804 763.587 268.516C763.587 268.192 763.695 267.928 763.911 267.724C764.127 267.52 764.373 267.418 764.649 267.418C764.973 267.418 765.231 267.52 765.423 267.724C765.627 267.928 765.729 268.192 765.729 268.516C765.729 268.792 765.621 269.038 765.405 269.254C765.201 269.458 764.949 269.56 764.649 269.56ZM769.397 276.148V274.15C769.397 273.862 769.367 273.628 769.307 273.448C769.247 273.268 769.121 273.13 768.929 273.034C768.737 272.938 768.443 272.884 768.047 272.872C768.047 272.74 768.059 272.62 768.083 272.512C768.107 272.404 768.149 272.302 768.209 272.206C768.581 272.182 769.007 272.11 769.487 271.99C769.967 271.87 770.345 271.738 770.621 271.594C770.729 271.63 770.819 271.708 770.891 271.828C770.975 271.936 771.017 272.122 771.017 272.386L769.397 276.148ZM776.345 277.714C776.345 278.338 776.429 278.758 776.597 278.974C776.777 279.178 777.047 279.28 777.407 279.28C777.443 279.388 777.467 279.502 777.479 279.622C777.491 279.742 777.497 279.886 777.497 280.054C777.233 280.03 776.933 280.012 776.597 280C776.261 280 775.907 280 775.535 280C775.295 280 775.043 280 774.779 280C774.515 280.012 774.263 280.018 774.023 280.018C773.795 280.03 773.585 280.042 773.393 280.054C773.393 279.886 773.399 279.742 773.411 279.622C773.423 279.49 773.447 279.376 773.483 279.28C773.915 279.28 774.227 279.172 774.419 278.956C774.623 278.728 774.725 278.314 774.725 277.714V274.978C774.725 274.126 774.569 273.55 774.257 273.25C773.945 272.938 773.543 272.782 773.051 272.782C772.739 272.782 772.427 272.884 772.115 273.088C771.803 273.28 771.539 273.598 771.323 274.042C771.119 274.474 771.017 275.056 771.017 275.788V277.714C771.017 278.314 771.107 278.728 771.287 278.956C771.467 279.172 771.791 279.28 772.259 279.28C772.295 279.388 772.319 279.502 772.331 279.622C772.343 279.742 772.349 279.886 772.349 280.054C772.181 280.042 771.977 280.03 771.737 280.018C771.497 280.018 771.245 280.012 770.981 280C770.717 280 770.459 280 770.207 280C769.967 280 769.715 280 769.451 280C769.187 280.012 768.935 280.018 768.695 280.018C768.455 280.03 768.245 280.042 768.065 280.054C768.065 279.886 768.071 279.742 768.083 279.622C768.095 279.49 768.119 279.376 768.155 279.28C768.623 279.28 768.947 279.172 769.127 278.956C769.307 278.728 769.397 278.314 769.397 277.714V274.15L771.017 272.386C771.017 272.53 771.011 272.692 770.999 272.872C770.987 273.052 770.951 273.244 770.891 273.448C770.927 273.388 770.963 273.322 770.999 273.25C771.035 273.166 771.089 273.076 771.161 272.98C771.365 272.704 771.689 272.422 772.133 272.134C772.589 271.834 773.135 271.684 773.771 271.684C774.227 271.684 774.647 271.78 775.031 271.972C775.427 272.152 775.745 272.458 775.985 272.89C776.225 273.31 776.345 273.886 776.345 274.618V277.714ZM782.01 284.482C781.278 284.482 780.678 284.386 780.21 284.194C779.754 284.014 779.418 283.744 779.202 283.384C778.986 283.024 778.878 282.58 778.878 282.052C778.878 281.596 778.998 281.2 779.238 280.864C779.49 280.528 779.838 280.264 780.282 280.072L781.182 280.144C780.894 280.36 780.696 280.588 780.588 280.828C780.48 281.068 780.426 281.35 780.426 281.674C780.426 282.286 780.576 282.748 780.876 283.06C781.188 283.372 781.71 283.528 782.442 283.528C783.234 283.528 783.852 283.33 784.296 282.934C784.752 282.538 784.98 282.082 784.98 281.566C784.98 281.254 784.902 281.008 784.746 280.828C784.602 280.648 784.314 280.516 783.882 280.432C783.462 280.348 782.838 280.306 782.01 280.306C781.47 280.306 781.026 280.276 780.678 280.216C780.342 280.168 780.072 280.084 779.868 279.964C779.676 279.832 779.538 279.67 779.454 279.478C779.382 279.286 779.346 279.052 779.346 278.776C779.346 278.38 779.46 277.996 779.688 277.624C779.928 277.24 780.234 276.898 780.606 276.598L781.272 277.066C781.032 277.27 780.858 277.462 780.75 277.642C780.654 277.822 780.606 277.978 780.606 278.11C780.606 278.326 780.66 278.488 780.768 278.596C780.888 278.704 781.134 278.776 781.506 278.812C781.878 278.848 782.448 278.866 783.216 278.866C784.02 278.866 784.656 278.932 785.124 279.064C785.604 279.196 785.946 279.406 786.15 279.694C786.366 279.982 786.474 280.372 786.474 280.864C786.474 281.272 786.36 281.686 786.132 282.106C785.916 282.538 785.61 282.928 785.214 283.276C784.818 283.636 784.344 283.924 783.792 284.14C783.252 284.368 782.658 284.482 782.01 284.482ZM782.442 277.498C781.878 277.498 781.344 277.39 780.84 277.174C780.336 276.958 779.928 276.634 779.616 276.202C779.316 275.77 779.166 275.23 779.166 274.582C779.166 274.03 779.286 273.532 779.526 273.088C779.766 272.632 780.126 272.272 780.606 272.008C781.098 271.732 781.698 271.594 782.406 271.594C783.006 271.594 783.51 271.696 783.918 271.9C784.338 272.092 784.68 272.344 784.944 272.656C785.208 272.956 785.4 273.274 785.52 273.61C785.64 273.934 785.7 274.222 785.7 274.474C785.7 275.026 785.574 275.536 785.322 276.004C785.082 276.46 784.716 276.826 784.224 277.102C783.744 277.366 783.15 277.498 782.442 277.498ZM782.658 276.67C783.054 276.67 783.378 276.508 783.63 276.184C783.882 275.848 784.008 275.368 784.008 274.744C784.008 274.108 783.852 273.562 783.54 273.106C783.228 272.638 782.79 272.404 782.226 272.404C781.746 272.404 781.392 272.608 781.164 273.016C780.936 273.412 780.822 273.856 780.822 274.348C780.822 275.092 780.984 275.668 781.308 276.076C781.632 276.472 782.082 276.67 782.658 276.67ZM786.618 272.872C786.426 272.824 786.192 272.776 785.916 272.728C785.652 272.68 785.388 272.638 785.124 272.602C784.872 272.566 784.656 272.542 784.476 272.53L783.216 271.756H786.492C786.54 271.912 786.57 272.092 786.582 272.296C786.606 272.488 786.618 272.68 786.618 272.872ZM794.262 280.162C794.058 279.586 793.854 279.022 793.65 278.47C793.458 277.906 793.254 277.354 793.038 276.814C792.834 276.262 792.624 275.716 792.408 275.176C792.204 274.636 791.994 274.096 791.778 273.556C791.646 273.22 791.508 272.98 791.364 272.836C791.232 272.692 791.034 272.578 790.77 272.494C790.722 272.374 790.692 272.242 790.68 272.098C790.668 271.954 790.662 271.828 790.662 271.72C790.902 271.732 791.154 271.744 791.418 271.756C791.694 271.756 792.03 271.756 792.426 271.756C792.822 271.756 793.176 271.75 793.488 271.738C793.8 271.726 794.106 271.714 794.406 271.702C794.406 271.822 794.4 271.96 794.388 272.116C794.376 272.272 794.352 272.398 794.316 272.494C793.98 272.53 793.74 272.59 793.596 272.674C793.464 272.758 793.398 272.872 793.398 273.016C793.41 273.16 793.458 273.346 793.542 273.574C793.818 274.27 794.106 275.032 794.406 275.86C794.706 276.688 794.976 277.456 795.216 278.164L794.982 278.182L797.466 271.756C797.562 271.732 797.676 271.714 797.808 271.702C797.94 271.69 798.066 271.684 798.186 271.684C798.582 272.596 799.014 273.628 799.482 274.78C799.962 275.932 800.424 277.078 800.868 278.218H800.616L801.75 274.816C801.942 274.228 802.026 273.778 802.002 273.466C801.99 273.142 801.9 272.908 801.732 272.764C801.564 272.62 801.33 272.53 801.03 272.494C800.982 272.362 800.94 272.23 800.904 272.098C800.88 271.954 800.868 271.822 800.868 271.702C801.096 271.714 801.354 271.726 801.642 271.738C801.93 271.75 802.206 271.756 802.47 271.756C802.794 271.756 803.088 271.75 803.352 271.738C803.616 271.726 803.85 271.714 804.054 271.702C804.054 271.858 804.042 271.996 804.018 272.116C804.006 272.236 803.97 272.362 803.91 272.494C803.73 272.542 803.574 272.632 803.442 272.764C803.322 272.884 803.196 273.1 803.064 273.412C802.944 273.724 802.782 274.174 802.578 274.762L800.76 280C800.688 280.036 800.61 280.066 800.526 280.09C800.442 280.114 800.352 280.132 800.256 280.144C800.16 280.156 800.052 280.162 799.932 280.162C799.656 279.442 799.356 278.704 799.032 277.948C798.72 277.18 798.408 276.424 798.096 275.68C797.784 274.936 797.478 274.234 797.178 273.574L797.736 273.268L795.054 280C794.994 280.036 794.928 280.066 794.856 280.09C794.784 280.114 794.7 280.132 794.604 280.144C794.508 280.156 794.394 280.162 794.262 280.162ZM813.259 277.714C813.259 278.338 813.343 278.758 813.511 278.974C813.691 279.178 813.961 279.28 814.321 279.28C814.357 279.388 814.381 279.502 814.393 279.622C814.405 279.742 814.411 279.886 814.411 280.054C814.147 280.03 813.847 280.012 813.511 280C813.175 280 812.821 280 812.449 280C812.209 280 811.957 280 811.693 280C811.429 280.012 811.177 280.018 810.937 280.018C810.709 280.03 810.499 280.042 810.307 280.054C810.307 279.886 810.313 279.742 810.325 279.622C810.337 279.49 810.361 279.376 810.397 279.28C810.829 279.28 811.141 279.172 811.333 278.956C811.537 278.728 811.639 278.314 811.639 277.714V274.978C811.639 274.126 811.483 273.55 811.171 273.25C810.859 272.938 810.457 272.782 809.965 272.782C809.653 272.782 809.341 272.884 809.029 273.088C808.717 273.28 808.453 273.598 808.237 274.042C808.033 274.474 807.931 275.056 807.931 275.788V277.714C807.931 278.314 808.021 278.728 808.201 278.956C808.381 279.172 808.705 279.28 809.173 279.28C809.209 279.388 809.233 279.502 809.245 279.622C809.257 279.742 809.263 279.886 809.263 280.054C809.095 280.042 808.891 280.03 808.651 280.018C808.411 280.018 808.159 280.012 807.895 280C807.631 280 807.373 280 807.121 280C806.881 280 806.629 280 806.365 280C806.101 280.012 805.849 280.018 805.609 280.018C805.369 280.03 805.159 280.042 804.979 280.054C804.979 279.886 804.985 279.742 804.997 279.622C805.009 279.49 805.033 279.376 805.069 279.28C805.537 279.28 805.861 279.172 806.041 278.956C806.221 278.728 806.311 278.314 806.311 277.714V274.15L807.931 272.386C807.931 272.53 807.925 272.692 807.913 272.872C807.901 273.052 807.865 273.244 807.805 273.448C807.841 273.388 807.877 273.322 807.913 273.25C807.949 273.166 808.003 273.076 808.075 272.98C808.279 272.704 808.603 272.422 809.047 272.134C809.503 271.834 810.049 271.684 810.685 271.684C811.141 271.684 811.561 271.78 811.945 271.972C812.341 272.152 812.659 272.458 812.899 272.89C813.139 273.31 813.259 273.886 813.259 274.618V277.714ZM806.311 269.65C806.311 269.362 806.281 269.128 806.221 268.948C806.173 268.756 806.053 268.612 805.861 268.516C805.669 268.42 805.369 268.372 804.961 268.372C804.961 268.24 804.973 268.12 804.997 268.012C805.021 267.904 805.063 267.802 805.123 267.706C805.303 267.706 805.555 267.676 805.879 267.616C806.215 267.556 806.539 267.478 806.851 267.382C807.163 267.286 807.391 267.19 807.535 267.094C807.643 267.13 807.733 267.202 807.805 267.31C807.889 267.418 807.931 267.586 807.931 267.814V270.316H806.311V269.65ZM806.311 269.65H807.931V272.386L806.311 274.42V269.65ZM821.155 274.636C821.467 273.868 821.539 273.346 821.371 273.07C821.215 272.782 820.873 272.59 820.345 272.494C820.297 272.362 820.261 272.236 820.237 272.116C820.225 271.984 820.219 271.852 820.219 271.72C820.495 271.732 820.777 271.744 821.065 271.756C821.353 271.756 821.665 271.756 822.001 271.756C822.337 271.756 822.655 271.756 822.955 271.756C823.255 271.744 823.537 271.732 823.801 271.72C823.801 271.84 823.795 271.966 823.783 272.098C823.783 272.23 823.753 272.362 823.693 272.494C823.477 272.542 823.291 272.626 823.135 272.746C822.991 272.866 822.853 273.052 822.721 273.304C822.589 273.556 822.427 273.91 822.235 274.366L819.589 280.666C819.253 281.482 818.947 282.142 818.671 282.646C818.407 283.15 818.155 283.534 817.915 283.798C817.687 284.062 817.453 284.242 817.213 284.338C816.985 284.434 816.733 284.482 816.457 284.482C816.097 284.482 815.809 284.434 815.593 284.338C815.389 284.242 815.227 284.152 815.107 284.068C815.059 283.888 815.041 283.66 815.053 283.384C815.065 283.12 815.089 282.91 815.125 282.754C815.329 282.79 815.527 282.814 815.719 282.826C815.911 282.85 816.097 282.862 816.277 282.862C816.625 282.862 816.955 282.778 817.267 282.61C817.591 282.442 817.867 282.172 818.095 281.8C818.263 281.548 818.515 281.05 818.851 280.306C819.187 279.574 819.541 278.728 819.913 277.768L821.155 274.636ZM819.049 280.378C818.761 279.742 818.455 279.076 818.131 278.38C817.819 277.672 817.519 276.994 817.231 276.346C816.943 275.698 816.691 275.152 816.475 274.708C816.199 274.108 815.965 273.658 815.773 273.358C815.593 273.058 815.419 272.848 815.251 272.728C815.095 272.608 814.915 272.53 814.711 272.494C814.675 272.386 814.645 272.266 814.621 272.134C814.609 272.002 814.603 271.864 814.603 271.72C814.951 271.732 815.299 271.744 815.647 271.756C815.995 271.756 816.325 271.756 816.637 271.756C816.949 271.756 817.333 271.756 817.789 271.756C818.245 271.744 818.659 271.732 819.031 271.72C819.031 271.876 819.019 272.02 818.995 272.152C818.983 272.272 818.953 272.386 818.905 272.494C818.257 272.602 817.885 272.794 817.789 273.07C817.693 273.334 817.807 273.802 818.131 274.474C818.299 274.822 818.491 275.242 818.707 275.734C818.923 276.214 819.133 276.7 819.337 277.192C819.541 277.672 819.715 278.098 819.859 278.47L819.049 280.378ZM827.796 280.054C827.796 279.934 827.802 279.808 827.814 279.676C827.826 279.532 827.85 279.4 827.886 279.28C828.366 279.28 828.69 279.172 828.858 278.956C829.038 278.728 829.128 278.314 829.128 277.714V274.15C829.128 273.862 829.098 273.628 829.038 273.448C828.99 273.256 828.87 273.112 828.678 273.016C828.486 272.92 828.186 272.872 827.778 272.872C827.778 272.74 827.79 272.62 827.814 272.512C827.838 272.404 827.88 272.302 827.94 272.206C828.12 272.206 828.372 272.176 828.696 272.116C829.032 272.056 829.356 271.978 829.668 271.882C829.98 271.786 830.208 271.69 830.352 271.594C830.46 271.63 830.55 271.702 830.622 271.81C830.706 271.918 830.748 272.086 830.748 272.314V277.714C830.748 278.314 830.826 278.728 830.982 278.956C831.15 279.172 831.426 279.28 831.81 279.28C831.846 279.4 831.87 279.538 831.882 279.694C831.894 279.85 831.9 279.97 831.9 280.054C831.696 280.042 831.48 280.03 831.252 280.018C831.024 280.018 830.79 280.012 830.55 280C830.322 280 830.094 280 829.866 280C829.638 280 829.398 280 829.146 280C828.906 280.012 828.672 280.018 828.444 280.018C828.216 280.03 828 280.042 827.796 280.054ZM829.794 269.56C829.494 269.56 829.242 269.458 829.038 269.254C828.834 269.05 828.732 268.804 828.732 268.516C828.732 268.192 828.84 267.928 829.056 267.724C829.272 267.52 829.518 267.418 829.794 267.418C830.118 267.418 830.376 267.52 830.568 267.724C830.772 267.928 830.874 268.192 830.874 268.516C830.874 268.792 830.766 269.038 830.55 269.254C830.346 269.458 830.094 269.56 829.794 269.56ZM836.288 280.162C835.58 280.162 835.052 279.982 834.704 279.622C834.368 279.25 834.2 278.656 834.2 277.84V272.962C834.02 272.902 833.834 272.854 833.642 272.818C833.45 272.77 833.204 272.74 832.904 272.728C832.904 272.572 832.916 272.44 832.94 272.332C832.964 272.212 833.006 272.08 833.066 271.936H834.2V269.56C834.44 269.5 834.674 269.404 834.902 269.272C835.142 269.14 835.352 268.996 835.532 268.84C835.652 268.888 835.73 268.96 835.766 269.056C835.802 269.152 835.82 269.392 835.82 269.776V271.936H838.16C838.16 272.056 838.148 272.188 838.124 272.332C838.1 272.464 838.058 272.596 837.998 272.728C837.566 272.74 837.17 272.77 836.81 272.818C836.45 272.854 836.12 272.902 835.82 272.962V277.462C835.82 277.858 835.862 278.188 835.946 278.452C836.03 278.704 836.15 278.89 836.306 279.01C836.462 279.13 836.648 279.19 836.864 279.19C837.116 279.19 837.332 279.154 837.512 279.082C837.704 279.01 837.884 278.902 838.052 278.758C838.208 278.938 838.298 279.136 838.322 279.352C838.13 279.58 837.836 279.772 837.44 279.928C837.056 280.084 836.672 280.162 836.288 280.162ZM841.518 267.13C841.722 267.214 841.872 267.364 841.968 267.58C842.076 267.796 842.13 268.078 842.13 268.426C842.13 269.086 842.016 269.662 841.788 270.154C841.56 270.646 841.23 271.138 840.798 271.63C840.678 271.63 840.546 271.612 840.402 271.576C840.258 271.528 840.15 271.468 840.078 271.396C840.39 270.976 840.582 270.658 840.654 270.442C840.738 270.214 840.78 269.95 840.78 269.65C840.78 269.398 840.708 269.194 840.564 269.038C840.432 268.882 840.222 268.786 839.934 268.75C839.934 268.63 839.946 268.462 839.97 268.246C839.994 268.018 840.03 267.826 840.078 267.67C840.354 267.61 840.612 267.538 840.852 267.454C841.104 267.358 841.326 267.25 841.518 267.13ZM849.604 272.224C849.592 272.512 849.58 272.818 849.568 273.142C849.568 273.466 849.592 273.784 849.64 274.096C849.52 274.168 849.382 274.222 849.226 274.258C849.07 274.294 848.908 274.312 848.74 274.312C848.716 273.976 848.614 273.658 848.434 273.358C848.266 273.058 848.038 272.812 847.75 272.62C847.462 272.428 847.12 272.332 846.724 272.332C846.352 272.332 846.052 272.422 845.824 272.602C845.608 272.782 845.5 273.022 845.5 273.322C845.5 273.526 845.542 273.706 845.626 273.862C845.722 274.018 845.92 274.186 846.22 274.366C846.532 274.534 847.006 274.744 847.642 274.996C848.29 275.236 848.8 275.476 849.172 275.716C849.544 275.956 849.808 276.226 849.964 276.526C850.12 276.826 850.198 277.192 850.198 277.624C850.198 278.128 850.054 278.572 849.766 278.956C849.478 279.34 849.082 279.64 848.578 279.856C848.086 280.06 847.528 280.162 846.904 280.162C846.184 280.162 845.608 280.108 845.176 280C844.756 279.88 844.342 279.712 843.934 279.496C843.958 279.304 843.97 279.07 843.97 278.794C843.982 278.518 843.988 278.242 843.988 277.966C843.988 277.69 843.976 277.456 843.952 277.264C844.048 277.192 844.18 277.144 844.348 277.12C844.528 277.084 844.708 277.066 844.888 277.066C844.984 277.822 845.218 278.386 845.59 278.758C845.962 279.13 846.46 279.316 847.084 279.316C847.576 279.316 847.954 279.208 848.218 278.992C848.494 278.776 848.632 278.5 848.632 278.164C848.632 277.948 848.578 277.762 848.47 277.606C848.374 277.45 848.188 277.294 847.912 277.138C847.636 276.982 847.228 276.796 846.688 276.58C846.04 276.316 845.518 276.07 845.122 275.842C844.738 275.614 844.456 275.344 844.276 275.032C844.108 274.72 844.024 274.324 844.024 273.844C844.024 273.46 844.12 273.13 844.312 272.854C844.504 272.566 844.75 272.332 845.05 272.152C845.362 271.96 845.692 271.822 846.04 271.738C846.388 271.642 846.712 271.594 847.012 271.594C847.552 271.594 848.026 271.648 848.434 271.756C848.842 271.864 849.232 272.02 849.604 272.224ZM860.907 272.224C860.895 272.512 860.883 272.818 860.871 273.142C860.871 273.466 860.895 273.784 860.943 274.096C860.823 274.168 860.685 274.222 860.529 274.258C860.373 274.294 860.211 274.312 860.043 274.312C860.019 273.976 859.917 273.658 859.737 273.358C859.569 273.058 859.341 272.812 859.053 272.62C858.765 272.428 858.423 272.332 858.027 272.332C857.655 272.332 857.355 272.422 857.127 272.602C856.911 272.782 856.803 273.022 856.803 273.322C856.803 273.526 856.845 273.706 856.929 273.862C857.025 274.018 857.223 274.186 857.523 274.366C857.835 274.534 858.309 274.744 858.945 274.996C859.593 275.236 860.103 275.476 860.475 275.716C860.847 275.956 861.111 276.226 861.267 276.526C861.423 276.826 861.501 277.192 861.501 277.624C861.501 278.128 861.357 278.572 861.069 278.956C860.781 279.34 860.385 279.64 859.881 279.856C859.389 280.06 858.831 280.162 858.207 280.162C857.487 280.162 856.911 280.108 856.479 280C856.059 279.88 855.645 279.712 855.237 279.496C855.261 279.304 855.273 279.07 855.273 278.794C855.285 278.518 855.291 278.242 855.291 277.966C855.291 277.69 855.279 277.456 855.255 277.264C855.351 277.192 855.483 277.144 855.651 277.12C855.831 277.084 856.011 277.066 856.191 277.066C856.287 277.822 856.521 278.386 856.893 278.758C857.265 279.13 857.763 279.316 858.387 279.316C858.879 279.316 859.257 279.208 859.521 278.992C859.797 278.776 859.935 278.5 859.935 278.164C859.935 277.948 859.881 277.762 859.773 277.606C859.677 277.45 859.491 277.294 859.215 277.138C858.939 276.982 858.531 276.796 857.991 276.58C857.343 276.316 856.821 276.07 856.425 275.842C856.041 275.614 855.759 275.344 855.579 275.032C855.411 274.72 855.327 274.324 855.327 273.844C855.327 273.46 855.423 273.13 855.615 272.854C855.807 272.566 856.053 272.332 856.353 272.152C856.665 271.96 856.995 271.822 857.343 271.738C857.691 271.642 858.015 271.594 858.315 271.594C858.855 271.594 859.329 271.648 859.737 271.756C860.145 271.864 860.535 272.02 860.907 272.224ZM867.004 280.162C866.188 280.162 865.474 279.988 864.862 279.64C864.25 279.28 863.776 278.782 863.44 278.146C863.104 277.498 862.936 276.742 862.936 275.878C862.936 275.062 863.11 274.33 863.458 273.682C863.806 273.034 864.286 272.524 864.898 272.152C865.51 271.78 866.212 271.594 867.004 271.594C867.856 271.594 868.582 271.774 869.182 272.134C869.794 272.494 870.262 272.998 870.586 273.646C870.91 274.282 871.072 275.026 871.072 275.878C871.072 276.694 870.898 277.426 870.55 278.074C870.214 278.722 869.74 279.232 869.128 279.604C868.528 279.976 867.82 280.162 867.004 280.162ZM867.148 279.298C867.868 279.298 868.402 279.004 868.75 278.416C869.098 277.816 869.272 277.042 869.272 276.094C869.272 275.35 869.158 274.708 868.93 274.168C868.714 273.616 868.42 273.196 868.048 272.908C867.676 272.608 867.268 272.458 866.824 272.458C866.128 272.458 865.606 272.74 865.258 273.304C864.922 273.868 864.754 274.6 864.754 275.5C864.754 276.304 864.85 276.994 865.042 277.57C865.246 278.134 865.528 278.566 865.888 278.866C866.248 279.154 866.668 279.298 867.148 279.298ZM882.815 278.596C882.491 279.112 882.089 279.502 881.609 279.766C881.129 280.03 880.547 280.162 879.863 280.162C879.251 280.162 878.657 280.006 878.081 279.694C877.517 279.37 877.049 278.896 876.677 278.272C876.305 277.636 876.119 276.85 876.119 275.914C876.119 275.194 876.263 274.504 876.551 273.844C876.839 273.184 877.259 272.644 877.811 272.224C878.375 271.804 879.059 271.594 879.863 271.594C880.415 271.594 880.919 271.66 881.375 271.792C881.843 271.924 882.245 272.128 882.581 272.404C882.533 272.752 882.497 273.094 882.473 273.43C882.461 273.766 882.455 274.108 882.455 274.456C882.359 274.504 882.227 274.54 882.059 274.564C881.903 274.588 881.759 274.6 881.627 274.6C881.555 273.904 881.351 273.37 881.015 272.998C880.679 272.626 880.247 272.44 879.719 272.44C879.131 272.44 878.663 272.716 878.315 273.268C877.967 273.82 877.793 274.612 877.793 275.644C877.793 276.244 877.889 276.814 878.081 277.354C878.285 277.882 878.579 278.314 878.963 278.65C879.347 278.974 879.815 279.136 880.367 279.136C880.751 279.136 881.111 279.046 881.447 278.866C881.795 278.686 882.101 278.428 882.365 278.092C882.461 278.14 882.551 278.212 882.635 278.308C882.719 278.392 882.779 278.488 882.815 278.596ZM883.641 280.054C883.641 279.934 883.647 279.808 883.659 279.676C883.671 279.532 883.695 279.4 883.731 279.28C884.211 279.28 884.535 279.172 884.703 278.956C884.883 278.728 884.973 278.314 884.973 277.714V269.65C884.973 269.362 884.943 269.128 884.883 268.948C884.835 268.756 884.715 268.612 884.523 268.516C884.331 268.42 884.031 268.372 883.623 268.372C883.623 268.24 883.635 268.12 883.659 268.012C883.683 267.904 883.725 267.802 883.785 267.706C883.965 267.706 884.217 267.676 884.541 267.616C884.877 267.556 885.201 267.478 885.513 267.382C885.825 267.286 886.053 267.19 886.197 267.094C886.305 267.13 886.395 267.202 886.467 267.31C886.551 267.418 886.593 267.586 886.593 267.814V277.714C886.593 278.314 886.671 278.728 886.827 278.956C886.995 279.172 887.271 279.28 887.655 279.28C887.691 279.4 887.715 279.538 887.727 279.694C887.739 279.85 887.745 279.97 887.745 280.054C887.541 280.042 887.325 280.03 887.097 280.018C886.869 280.018 886.635 280.012 886.395 280C886.167 280 885.939 280 885.711 280C885.483 280 885.243 280 884.991 280C884.751 280.012 884.517 280.018 884.289 280.018C884.061 280.03 883.845 280.042 883.641 280.054ZM892.908 280.162C892.056 280.162 891.348 279.97 890.784 279.586C890.22 279.202 889.794 278.686 889.506 278.038C889.23 277.378 889.092 276.658 889.092 275.878C889.092 275.11 889.242 274.402 889.542 273.754C889.842 273.106 890.268 272.584 890.82 272.188C891.384 271.792 892.05 271.594 892.818 271.594C893.598 271.594 894.222 271.762 894.69 272.098C895.17 272.434 895.524 272.884 895.752 273.448C895.992 274.012 896.136 274.636 896.184 275.32C896.136 275.56 896.046 275.764 895.914 275.932C895.71 275.932 895.404 275.932 894.996 275.932C894.588 275.932 894.126 275.938 893.61 275.95C893.094 275.95 892.566 275.962 892.026 275.986C891.486 275.998 890.976 276.016 890.496 276.04V275.122H894.312C894.312 274.33 894.168 273.688 893.88 273.196C893.592 272.704 893.184 272.458 892.656 272.458C892.368 272.458 892.086 272.548 891.81 272.728C891.534 272.896 891.306 273.202 891.126 273.646C890.946 274.078 890.856 274.696 890.856 275.5C890.856 276.088 890.928 276.664 891.072 277.228C891.228 277.78 891.492 278.242 891.864 278.614C892.248 278.974 892.788 279.154 893.484 279.154C893.88 279.154 894.27 279.064 894.654 278.884C895.038 278.704 895.38 278.446 895.68 278.11C895.776 278.158 895.866 278.242 895.95 278.362C896.046 278.47 896.1 278.572 896.112 278.668C895.704 279.208 895.23 279.592 894.69 279.82C894.162 280.048 893.568 280.162 892.908 280.162ZM903.071 280.162C902.939 280.102 902.831 279.994 902.747 279.838C902.675 279.682 902.639 279.436 902.639 279.1C902.639 278.992 902.645 278.866 902.657 278.722C902.669 278.566 902.693 278.428 902.729 278.308H902.765C902.729 278.5 902.645 278.71 902.513 278.938C902.393 279.154 902.231 279.346 902.027 279.514C901.823 279.694 901.565 279.844 901.253 279.964C900.941 280.072 900.563 280.126 900.119 280.126C899.363 280.126 898.787 279.958 898.391 279.622C897.995 279.274 897.797 278.806 897.797 278.218C897.797 277.75 897.905 277.354 898.121 277.03C898.349 276.694 898.637 276.418 898.985 276.202C899.345 275.974 899.729 275.794 900.137 275.662C900.557 275.53 900.965 275.428 901.361 275.356C901.757 275.284 902.105 275.224 902.405 275.176C902.405 274.684 902.393 274.3 902.369 274.024C902.357 273.748 902.321 273.532 902.261 273.376C902.213 273.208 902.135 273.064 902.027 272.944C901.883 272.764 901.715 272.632 901.523 272.548C901.343 272.452 901.139 272.404 900.911 272.404C900.515 272.404 900.203 272.53 899.975 272.782C899.747 273.022 899.585 273.304 899.489 273.628C899.393 273.952 899.339 274.24 899.327 274.492C899.195 274.492 899.027 274.486 898.823 274.474C898.631 274.45 898.487 274.414 898.391 274.366C898.415 274.066 898.421 273.73 898.409 273.358C898.397 272.986 898.361 272.668 898.301 272.404C898.793 272.152 899.309 271.954 899.849 271.81C900.401 271.666 900.905 271.594 901.361 271.594C901.805 271.594 902.183 271.66 902.495 271.792C902.819 271.912 903.077 272.074 903.269 272.278C903.581 272.578 903.785 272.974 903.881 273.466C903.977 273.946 904.025 274.588 904.025 275.392V277.372C904.025 277.708 904.049 277.978 904.097 278.182C904.157 278.374 904.265 278.518 904.421 278.614C904.577 278.698 904.817 278.752 905.141 278.776C905.141 278.896 905.135 279.034 905.123 279.19C905.111 279.334 905.081 279.472 905.033 279.604C904.733 279.616 904.397 279.676 904.025 279.784C903.665 279.88 903.347 280.006 903.071 280.162ZM900.623 279.136C900.887 279.136 901.157 279.052 901.433 278.884C901.709 278.704 901.937 278.428 902.117 278.056C902.309 277.684 902.405 277.198 902.405 276.598V275.914C902.105 275.95 901.787 276.004 901.451 276.076C901.115 276.136 900.803 276.232 900.515 276.364C900.227 276.496 899.993 276.682 899.813 276.922C899.633 277.15 899.543 277.462 899.543 277.858C899.543 278.302 899.651 278.626 899.867 278.83C900.083 279.034 900.335 279.136 900.623 279.136ZM907.86 276.148V274.15C907.86 273.862 907.83 273.628 907.77 273.448C907.71 273.268 907.584 273.13 907.392 273.034C907.2 272.938 906.906 272.884 906.51 272.872C906.51 272.74 906.522 272.62 906.546 272.512C906.57 272.404 906.612 272.302 906.672 272.206C907.044 272.182 907.47 272.11 907.95 271.99C908.43 271.87 908.808 271.738 909.084 271.594C909.192 271.63 909.282 271.708 909.354 271.828C909.438 271.936 909.48 272.122 909.48 272.386L907.86 276.148ZM914.808 277.714C914.808 278.338 914.892 278.758 915.06 278.974C915.24 279.178 915.51 279.28 915.87 279.28C915.906 279.388 915.93 279.502 915.942 279.622C915.954 279.742 915.96 279.886 915.96 280.054C915.696 280.03 915.396 280.012 915.06 280C914.724 280 914.37 280 913.998 280C913.758 280 913.506 280 913.242 280C912.978 280.012 912.726 280.018 912.486 280.018C912.258 280.03 912.048 280.042 911.856 280.054C911.856 279.886 911.862 279.742 911.874 279.622C911.886 279.49 911.91 279.376 911.946 279.28C912.378 279.28 912.69 279.172 912.882 278.956C913.086 278.728 913.188 278.314 913.188 277.714V274.978C913.188 274.126 913.032 273.55 912.72 273.25C912.408 272.938 912.006 272.782 911.514 272.782C911.202 272.782 910.89 272.884 910.578 273.088C910.266 273.28 910.002 273.598 909.786 274.042C909.582 274.474 909.48 275.056 909.48 275.788V277.714C909.48 278.314 909.57 278.728 909.75 278.956C909.93 279.172 910.254 279.28 910.722 279.28C910.758 279.388 910.782 279.502 910.794 279.622C910.806 279.742 910.812 279.886 910.812 280.054C910.644 280.042 910.44 280.03 910.2 280.018C909.96 280.018 909.708 280.012 909.444 280C909.18 280 908.922 280 908.67 280C908.43 280 908.178 280 907.914 280C907.65 280.012 907.398 280.018 907.158 280.018C906.918 280.03 906.708 280.042 906.528 280.054C906.528 279.886 906.534 279.742 906.546 279.622C906.558 279.49 906.582 279.376 906.618 279.28C907.086 279.28 907.41 279.172 907.59 278.956C907.77 278.728 907.86 278.314 907.86 277.714V274.15L909.48 272.386C909.48 272.53 909.474 272.692 909.462 272.872C909.45 273.052 909.414 273.244 909.354 273.448C909.39 273.388 909.426 273.322 909.462 273.25C909.498 273.166 909.552 273.076 909.624 272.98C909.828 272.704 910.152 272.422 910.596 272.134C911.052 271.834 911.598 271.684 912.234 271.684C912.69 271.684 913.11 271.78 913.494 271.972C913.89 272.152 914.208 272.458 914.448 272.89C914.688 273.31 914.808 273.886 914.808 274.618V277.714ZM918.691 280.18C918.307 280.18 918.007 280.072 917.791 279.856C917.575 279.64 917.467 279.364 917.467 279.028C917.467 278.692 917.587 278.404 917.827 278.164C918.079 277.924 918.397 277.804 918.781 277.804C919.153 277.804 919.441 277.93 919.645 278.182C919.861 278.422 919.969 278.668 919.969 278.92C919.969 279.352 919.837 279.67 919.573 279.874C919.321 280.078 919.027 280.18 918.691 280.18Z" fill="white" fill-opacity="0.81"/>
<path d="M654 335H786V373H654V335Z" fill="#4D4D4D" fill-opacity="0.2" stroke="white" stroke-width="2"/>
<path d="M677.352 356.125C677.352 355.859 677.32 355.625 677.258 355.422C677.195 355.214 677.086 355.026 676.93 354.859C676.773 354.693 676.555 354.534 676.273 354.383C675.992 354.232 675.635 354.078 675.203 353.922C674.734 353.755 674.31 353.57 673.93 353.367C673.549 353.159 673.224 352.922 672.953 352.656C672.688 352.391 672.482 352.086 672.336 351.742C672.19 351.398 672.117 351.005 672.117 350.562C672.117 350.12 672.193 349.711 672.344 349.336C672.5 348.961 672.719 348.635 673 348.359C673.286 348.078 673.63 347.859 674.031 347.703C674.432 347.547 674.88 347.469 675.375 347.469C676.115 347.469 676.737 347.633 677.242 347.961C677.753 348.284 678.138 348.708 678.398 349.234C678.659 349.755 678.789 350.312 678.789 350.906H677.352C677.352 350.479 677.281 350.102 677.141 349.773C677.005 349.44 676.792 349.18 676.5 348.992C676.214 348.799 675.839 348.703 675.375 348.703C674.958 348.703 674.615 348.784 674.344 348.945C674.078 349.107 673.88 349.326 673.75 349.602C673.625 349.878 673.562 350.193 673.562 350.547C673.562 350.786 673.604 351.005 673.688 351.203C673.771 351.396 673.898 351.576 674.07 351.742C674.247 351.909 674.466 352.062 674.727 352.203C674.992 352.344 675.305 352.479 675.664 352.609C676.221 352.792 676.698 352.995 677.094 353.219C677.49 353.443 677.812 353.695 678.062 353.977C678.312 354.253 678.495 354.568 678.609 354.922C678.729 355.271 678.789 355.667 678.789 356.109C678.789 356.573 678.711 356.992 678.555 357.367C678.404 357.742 678.182 358.062 677.891 358.328C677.599 358.594 677.247 358.799 676.836 358.945C676.424 359.086 675.961 359.156 675.445 359.156C674.997 359.156 674.557 359.083 674.125 358.938C673.698 358.792 673.31 358.573 672.961 358.281C672.612 357.99 672.333 357.63 672.125 357.203C671.917 356.771 671.812 356.271 671.812 355.703H673.25C673.25 356.094 673.307 356.43 673.422 356.711C673.536 356.987 673.695 357.216 673.898 357.398C674.102 357.581 674.333 357.716 674.594 357.805C674.859 357.888 675.143 357.93 675.445 357.93C675.862 357.93 676.211 357.857 676.492 357.711C676.779 357.565 676.992 357.357 677.133 357.086C677.279 356.815 677.352 356.495 677.352 356.125ZM686.789 357.773V359H681.852V357.773H686.789ZM682.109 347.625V359H680.672V347.625H682.109ZM686.125 352.516V353.742H681.852V352.516H686.125ZM686.711 347.625V348.859H681.852V347.625H686.711ZM694.742 357.773V359H689.805V357.773H694.742ZM690.062 347.625V359H688.625V347.625H690.062ZM694.078 352.516V353.742H689.805V352.516H694.078ZM694.664 347.625V348.859H689.805V347.625H694.664ZM707.648 352.328V354.305C707.648 355.107 707.56 355.812 707.383 356.422C707.211 357.026 706.958 357.531 706.625 357.938C706.292 358.344 705.891 358.648 705.422 358.852C704.953 359.055 704.424 359.156 703.836 359.156C703.268 359.156 702.75 359.055 702.281 358.852C701.812 358.648 701.409 358.344 701.07 357.938C700.732 357.531 700.469 357.026 700.281 356.422C700.099 355.812 700.008 355.107 700.008 354.305V352.328C700.008 351.526 700.099 350.823 700.281 350.219C700.464 349.609 700.724 349.102 701.062 348.695C701.401 348.289 701.805 347.984 702.273 347.781C702.742 347.573 703.26 347.469 703.828 347.469C704.417 347.469 704.945 347.573 705.414 347.781C705.888 347.984 706.289 348.289 706.617 348.695C706.951 349.102 707.206 349.609 707.383 350.219C707.56 350.823 707.648 351.526 707.648 352.328ZM706.227 354.305V352.312C706.227 351.688 706.174 351.151 706.07 350.703C705.966 350.25 705.812 349.88 705.609 349.594C705.406 349.307 705.156 349.096 704.859 348.961C704.562 348.82 704.219 348.75 703.828 348.75C703.458 348.75 703.125 348.82 702.828 348.961C702.536 349.096 702.286 349.307 702.078 349.594C701.87 349.88 701.708 350.25 701.594 350.703C701.484 351.151 701.43 351.688 701.43 352.312V354.305C701.43 354.935 701.484 355.477 701.594 355.93C701.708 356.378 701.87 356.747 702.078 357.039C702.292 357.326 702.547 357.539 702.844 357.68C703.141 357.815 703.471 357.883 703.836 357.883C704.227 357.883 704.57 357.815 704.867 357.68C705.169 357.539 705.419 357.326 705.617 357.039C705.82 356.747 705.971 356.378 706.07 355.93C706.174 355.477 706.227 354.935 706.227 354.305ZM715.227 347.625H716.664V355.633C716.664 356.487 716.5 357.172 716.172 357.688C715.844 358.203 715.411 358.578 714.875 358.812C714.344 359.042 713.771 359.156 713.156 359.156C712.5 359.156 711.909 359.042 711.383 358.812C710.857 358.578 710.438 358.203 710.125 357.688C709.818 357.172 709.664 356.487 709.664 355.633V347.625H711.094V355.633C711.094 356.227 711.177 356.69 711.344 357.023C711.516 357.357 711.755 357.591 712.062 357.727C712.375 357.862 712.74 357.93 713.156 357.93C713.578 357.93 713.943 357.862 714.25 357.727C714.562 357.591 714.802 357.357 714.969 357.023C715.141 356.69 715.227 356.227 715.227 355.633V347.625ZM718.867 347.625H722.047C722.786 347.625 723.406 347.755 723.906 348.016C724.411 348.276 724.792 348.661 725.047 349.172C725.307 349.677 725.438 350.299 725.438 351.039C725.438 351.56 725.352 352.036 725.18 352.469C725.008 352.896 724.758 353.26 724.43 353.562C724.102 353.859 723.703 354.081 723.234 354.227L722.844 354.391H720.008L719.992 353.164H722.031C722.469 353.164 722.833 353.07 723.125 352.883C723.417 352.69 723.635 352.432 723.781 352.109C723.927 351.786 724 351.43 724 351.039C724 350.602 723.935 350.219 723.805 349.891C723.674 349.562 723.466 349.31 723.18 349.133C722.898 348.951 722.521 348.859 722.047 348.859H720.305V359H718.867V347.625ZM724.328 359L722.062 353.844L723.555 353.836L725.867 358.906V359H724.328ZM733.586 355.562L735.406 347.625H736.43L735.891 350.711L733.914 359H732.891L733.586 355.562ZM731.789 347.625L733.211 355.406L733.633 359H732.625L730.359 347.625H731.789ZM738.75 355.398L740.141 347.625H741.57L739.312 359H738.305L738.75 355.398ZM736.594 347.625L738.359 355.562L739.039 359H738.016L736.125 350.711L735.586 347.625H736.594ZM750.617 352.328V354.305C750.617 355.107 750.529 355.812 750.352 356.422C750.18 357.026 749.927 357.531 749.594 357.938C749.26 358.344 748.859 358.648 748.391 358.852C747.922 359.055 747.393 359.156 746.805 359.156C746.237 359.156 745.719 359.055 745.25 358.852C744.781 358.648 744.378 358.344 744.039 357.938C743.701 357.531 743.438 357.026 743.25 356.422C743.068 355.812 742.977 355.107 742.977 354.305V352.328C742.977 351.526 743.068 350.823 743.25 350.219C743.432 349.609 743.693 349.102 744.031 348.695C744.37 348.289 744.773 347.984 745.242 347.781C745.711 347.573 746.229 347.469 746.797 347.469C747.385 347.469 747.914 347.573 748.383 347.781C748.857 347.984 749.258 348.289 749.586 348.695C749.919 349.102 750.174 349.609 750.352 350.219C750.529 350.823 750.617 351.526 750.617 352.328ZM749.195 354.305V352.312C749.195 351.688 749.143 351.151 749.039 350.703C748.935 350.25 748.781 349.88 748.578 349.594C748.375 349.307 748.125 349.096 747.828 348.961C747.531 348.82 747.188 348.75 746.797 348.75C746.427 348.75 746.094 348.82 745.797 348.961C745.505 349.096 745.255 349.307 745.047 349.594C744.839 349.88 744.677 350.25 744.562 350.703C744.453 351.151 744.398 351.688 744.398 352.312V354.305C744.398 354.935 744.453 355.477 744.562 355.93C744.677 356.378 744.839 356.747 745.047 357.039C745.26 357.326 745.516 357.539 745.812 357.68C746.109 357.815 746.44 357.883 746.805 357.883C747.195 357.883 747.539 357.815 747.836 357.68C748.138 357.539 748.388 357.326 748.586 357.039C748.789 356.747 748.94 356.378 749.039 355.93C749.143 355.477 749.195 354.935 749.195 354.305ZM752.852 347.625H756.031C756.771 347.625 757.391 347.755 757.891 348.016C758.396 348.276 758.776 348.661 759.031 349.172C759.292 349.677 759.422 350.299 759.422 351.039C759.422 351.56 759.336 352.036 759.164 352.469C758.992 352.896 758.742 353.26 758.414 353.562C758.086 353.859 757.688 354.081 757.219 354.227L756.828 354.391H753.992L753.977 353.164H756.016C756.453 353.164 756.818 353.07 757.109 352.883C757.401 352.69 757.62 352.432 757.766 352.109C757.911 351.786 757.984 351.43 757.984 351.039C757.984 350.602 757.919 350.219 757.789 349.891C757.659 349.562 757.451 349.31 757.164 349.133C756.883 348.951 756.505 348.859 756.031 348.859H754.289V359H752.852V347.625ZM758.312 359L756.047 353.844L757.539 353.836L759.852 358.906V359H758.312ZM762.781 347.625V359H761.344V347.625H762.781ZM768.5 347.625L764.586 352.93L762.297 355.688L762.039 354.078L763.719 351.875L766.781 347.625H768.5ZM767.07 359L763.719 353.453L764.57 352.258L768.781 359H767.07Z" fill="white"/>
<path d="M438.021 185.14H445.119C444.939 188.998 444.154 192.328 442.766 195.131C441.403 197.908 439.41 200.043 436.787 201.534C434.189 203.026 430.936 203.771 427.027 203.771C424.224 203.771 421.691 203.219 419.428 202.113C417.165 201.007 415.224 199.425 413.604 197.368C412.009 195.285 410.788 192.791 409.939 189.885C409.09 186.979 408.666 183.713 408.666 180.087V169.71C408.666 166.11 409.09 162.857 409.939 159.951C410.813 157.045 412.061 154.564 413.681 152.506C415.326 150.423 417.319 148.829 419.66 147.723C422.026 146.617 424.7 146.064 427.683 146.064C431.335 146.064 434.421 146.797 436.941 148.263C439.487 149.703 441.441 151.825 442.804 154.628C444.193 157.405 444.964 160.813 445.119 164.85H438.021C437.841 161.893 437.378 159.488 436.632 157.637C435.887 155.759 434.781 154.384 433.315 153.509C431.875 152.609 429.998 152.159 427.683 152.159C425.626 152.159 423.839 152.571 422.321 153.394C420.83 154.216 419.595 155.399 418.618 156.942C417.667 158.46 416.947 160.298 416.458 162.458C415.995 164.593 415.764 166.985 415.764 169.633V180.087C415.764 182.556 415.957 184.857 416.342 186.992C416.754 189.126 417.397 191.003 418.271 192.624C419.171 194.218 420.341 195.465 421.781 196.365C423.221 197.265 424.97 197.715 427.027 197.715C429.625 197.715 431.682 197.291 433.199 196.442C434.716 195.594 435.835 194.244 436.555 192.392C437.301 190.541 437.79 188.123 438.021 185.14ZM483.847 196.944V203H460.548V196.944H483.847ZM461.821 146.836V203H454.724V146.836H461.821ZM522.499 196.944V203H498.12V196.944H522.499ZM499.393 146.836V203H492.295V146.836H499.393ZM519.22 170.983V177.04H498.12V170.983H519.22ZM522.113 146.836V152.931H498.12V146.836H522.113ZM549.771 151.812L534.418 203H527.166L545.257 146.836H549.809L549.771 151.812ZM562.191 203L546.839 151.812L546.762 146.836H551.352L569.443 203H562.191ZM562.191 182.208V188.303H535.112V182.208H562.191ZM613.881 146.836V203H606.745L584.256 159.681V203H577.158V146.836H584.256L606.86 190.271V146.836H613.881ZM662.484 151.812L647.132 203H639.88L657.971 146.836H662.523L662.484 151.812ZM674.905 203L659.553 151.812L659.476 146.836H664.066L682.157 203H674.905ZM674.905 182.208V188.303H647.826V182.208H674.905ZM726.595 146.836V203H719.458L696.97 159.681V203H689.872V146.836H696.97L719.574 190.271V146.836H726.595ZM751.591 203H742.024L742.102 196.944H751.591C754.96 196.944 757.698 196.301 759.807 195.015C761.916 193.704 763.472 191.775 764.475 189.229C765.478 186.657 765.979 183.481 765.979 179.701V170.096C765.979 167.113 765.696 164.542 765.13 162.381C764.565 160.221 763.716 158.447 762.584 157.058C761.453 155.669 760.026 154.641 758.303 153.972C756.58 153.278 754.561 152.931 752.247 152.931H741.832V146.836H752.247C755.41 146.836 758.264 147.337 760.81 148.34C763.356 149.318 765.542 150.796 767.368 152.776C769.194 154.731 770.582 157.161 771.534 160.067C772.511 162.973 773 166.342 773 170.173V179.701C773 183.533 772.511 186.902 771.534 189.808C770.582 192.714 769.181 195.144 767.329 197.098C765.478 199.053 763.227 200.531 760.579 201.534C757.956 202.511 754.96 203 751.591 203ZM745.959 146.836V203H738.861V146.836H745.959ZM826.695 188.805C826.695 187.493 826.541 186.336 826.232 185.333C825.923 184.304 825.383 183.379 824.612 182.556C823.84 181.733 822.76 180.948 821.372 180.203C819.983 179.457 818.221 178.698 816.087 177.927C813.772 177.104 811.677 176.191 809.799 175.188C807.922 174.159 806.315 172.989 804.978 171.678C803.666 170.366 802.65 168.862 801.93 167.165C801.21 165.467 800.85 163.526 800.85 161.34C800.85 159.154 801.223 157.135 801.969 155.284C802.74 153.432 803.82 151.825 805.209 150.462C806.623 149.073 808.321 147.993 810.301 147.222C812.281 146.45 814.493 146.064 816.936 146.064C820.587 146.064 823.66 146.875 826.155 148.495C828.675 150.089 830.578 152.185 831.864 154.782C833.15 157.354 833.792 160.105 833.792 163.037H826.695C826.695 160.928 826.348 159.064 825.653 157.444C824.985 155.798 823.93 154.512 822.49 153.586C821.076 152.635 819.224 152.159 816.936 152.159C814.878 152.159 813.181 152.558 811.844 153.355C810.532 154.152 809.555 155.232 808.912 156.595C808.295 157.958 807.986 159.514 807.986 161.263C807.986 162.446 808.192 163.526 808.604 164.503C809.015 165.454 809.645 166.342 810.494 167.165C811.368 167.987 812.448 168.746 813.734 169.44C815.045 170.135 816.588 170.803 818.363 171.446C821.114 172.346 823.467 173.349 825.422 174.455C827.376 175.561 828.971 176.808 830.205 178.197C831.439 179.56 832.34 181.116 832.905 182.864C833.497 184.587 833.792 186.542 833.792 188.728C833.792 191.016 833.407 193.086 832.635 194.938C831.889 196.79 830.797 198.371 829.356 199.683C827.916 200.994 826.181 202.01 824.149 202.73C822.117 203.424 819.829 203.771 817.283 203.771C815.071 203.771 812.898 203.411 810.764 202.691C808.655 201.971 806.739 200.891 805.016 199.451C803.293 198.011 801.917 196.237 800.889 194.128C799.86 191.993 799.346 189.525 799.346 186.722H806.443C806.443 188.65 806.726 190.309 807.292 191.698C807.858 193.061 808.642 194.192 809.645 195.092C810.648 195.992 811.792 196.661 813.078 197.098C814.39 197.51 815.791 197.715 817.283 197.715C819.34 197.715 821.063 197.355 822.452 196.635C823.866 195.915 824.92 194.887 825.615 193.549C826.335 192.212 826.695 190.631 826.695 188.805ZM850.495 146.836V203H843.397V146.836H850.495ZM865.076 146.836H871.942L886.639 192.624L901.297 146.836H908.164L889.301 203H883.9L865.076 146.836ZM862.839 146.836H868.856L869.898 181.09V203H862.839V146.836ZM904.345 146.836H910.362V203H903.303V181.09L904.345 146.836ZM940.45 180.974H928.184V174.918H940.45C942.765 174.918 944.629 174.455 946.043 173.529C947.484 172.604 948.525 171.318 949.168 169.672C949.837 168.026 950.171 166.149 950.171 164.04C950.171 162.111 949.837 160.298 949.168 158.601C948.525 156.904 947.484 155.541 946.043 154.512C944.629 153.458 942.765 152.931 940.45 152.931H929.649V203H922.552V146.836H940.45C944.076 146.836 947.136 147.569 949.631 149.035C952.125 150.5 954.015 152.532 955.301 155.129C956.613 157.701 957.269 160.646 957.269 163.963C957.269 167.563 956.613 170.636 955.301 173.182C954.015 175.728 952.125 177.67 949.631 179.007C947.136 180.318 944.076 180.974 940.45 180.974ZM995.496 196.944V203H972.197V196.944H995.496ZM973.47 146.836V203H966.372V146.836H973.47ZM1034.15 196.944V203H1009.77V196.944H1034.15ZM1011.04 146.836V203H1003.94V146.836H1011.04ZM1030.87 170.983V177.04H1009.77V170.983H1030.87ZM1033.76 146.836V152.931H1009.77V146.836H1033.76Z" fill="white"/>
<path d="M701 460H710V469H701V460Z" fill="white"/>
<path d="M716 460H725V469H716V460Z" fill="white" fill-opacity="0.4"/>
<path d="M731 460H740V469H731V460Z" fill="white" fill-opacity="0.4"/>
</svg>
